<?xml version="1.0" encoding="utf-8"?>
<!-- Generator: Adobe Illustrator 23.0.0, SVG Export Plug-In . SVG Version: 6.00 Build 0)  -->
<svg version="1.1" id="Layer_1" xmlns="http://www.w3.org/2000/svg" xmlns:xlink="http://www.w3.org/1999/xlink" x="0px" y="0px"
	 viewBox="0 0 990.1 387.4" style="enable-background:new 0 0 990.1 387.4;" xml:space="preserve">
<style type="text/css">
	.st0{fill:#1A91CF;}
	.st1{fill:#FFFFFF;}
	.st2{fill:#A7A8A8;}
	.st3{fill:#A29C94;}
</style>
<g>
	<path d="M522,245.7l1.9,0.4h26.3l0.5-0.1c2.3,0,3.6,1.4,3.9,4.1c-0.5,2.3-1.8,3.5-4,3.5h-23.7v16.1H542l1.9-0.1
		c1.8,0,3,1.2,3.5,3.7c0,1.7-1,3-3.1,3.9l-2.9-0.1h-14.6v15.2h24.4c1.9,0,3,1.3,3.4,4c-0.7,2.3-1.9,3.4-3.5,3.4H523
		c-2.4-0.4-3.5-1.6-3.5-3.6v-46.2c0.4-2.4,1.2-3.6,2.6-3.6V245.7z"/>
	<path d="M597.3,285.1v-35.4c0.4-2.3,1.6-3.4,3.5-3.4h0.4c1.9,0,3.1,1.2,3.5,3.5v45.9c0,2.1-1.3,3.3-3.8,3.7c-1.4,0-3.3-1.7-5.6-5.1
		L569.1,261v34.9c0,1.9-1.2,3.1-3.6,3.5h-0.2c-2,0-3.2-1.2-3.6-3.6v-45.5c0.3-2.6,1.4-4,3.4-4h0.5c1.6,0,2.9,1,3.9,3.1
		C570.7,250.9,580,262.8,597.3,285.1z"/>
	<path d="M616.3,246.2h33.4c2.3,0.4,3.4,1.6,3.4,3.5v0.5c0,2-1.3,3.1-4,3.4h-12.4v42.5c0,1.9-1.2,3.1-3.6,3.5H633
		c-2,0-3.2-1.2-3.6-3.7v-42.3h-12.7c-2.4-0.5-3.7-1.8-3.7-3.9C613.5,247.4,614.6,246.2,616.3,246.2z"/>
	<path d="M663.3,245.7l1.9,0.4h26.3l0.5-0.1c2.3,0,3.6,1.4,3.9,4.1c-0.5,2.3-1.8,3.5-4,3.5h-23.7v16.1h15.1l1.9-0.1
		c1.8,0,3,1.2,3.5,3.7c0,1.7-1,3-3.1,3.9l-2.9-0.1h-14.6v15.2h24.4c1.9,0,3,1.3,3.4,4c-0.7,2.3-1.9,3.4-3.5,3.4h-28.1
		c-2.4-0.4-3.5-1.6-3.5-3.6v-46.2c0.4-2.4,1.2-3.6,2.6-3.6V245.7z"/>
	<path d="M706.4,246.2h11.2c5.2,0,9.4,2.7,12.7,8.1c1.1,2.1,1.6,4.3,1.6,6.6v0.5c0,5.1-2.5,9.3-7.4,12.5l-0.4,0.2
		c7.9,13.6,11.8,20.7,11.8,21.2v0.7c0,1.9-1.2,3.1-3.6,3.5h-0.2c-1.7,0-3.4-1.7-5-5.2L716.4,276h-6v20c0,1.9-1.2,3.1-3.6,3.5h-0.2
		c-2,0-3.2-1.2-3.6-3.7v-45.7C703.3,247.5,704.4,246.2,706.4,246.2z M710.5,253.5v15.2h6.6c3.7,0,6.2-2,7.3-6l0.1-1v-1
		c0-2.9-1.7-5.2-5-6.7c-0.9-0.3-2.5-0.5-4.6-0.5H710.5z"/>
	<path d="M745.2,246.1h12.3c5.2,0,9.6,2.7,13.2,8c1.4,2.7,2,5.2,2,7.4v1c0,4.8-2.2,9-6.5,12.5c-3,2-5.9,3.1-8.7,3.1h-8.3v18
		c0,1.9-1.2,3.1-3.5,3.5h-0.2c-2,0-3.2-1.2-3.6-3.7v-45.8C742.1,247.4,743.2,246.1,745.2,246.1z M749.3,253.5v17.1h7.3
		c4,0,6.8-1.9,8.3-5.8c0.3-0.8,0.5-1.7,0.5-2.9c0-3.5-1.8-6.1-5.5-7.8c-0.8-0.4-1.8-0.6-3-0.6H749.3z"/>
	<path d="M783.4,246.2h11.2c5.2,0,9.4,2.7,12.7,8.1c1.1,2.1,1.6,4.3,1.6,6.6v0.5c0,5.1-2.5,9.3-7.4,12.5l-0.4,0.2
		c7.9,13.6,11.8,20.7,11.8,21.2v0.7c0,1.9-1.2,3.1-3.6,3.5h-0.2c-1.7,0-3.4-1.7-5-5.2L793.4,276h-6v20c0,1.9-1.2,3.1-3.6,3.5h-0.2
		c-2,0-3.2-1.2-3.6-3.7v-45.7C780.3,247.5,781.4,246.2,783.4,246.2z M787.4,253.5v15.2h6.6c3.7,0,6.2-2,7.3-6l0.1-1v-1
		c0-2.9-1.7-5.2-5-6.7c-0.9-0.3-2.5-0.5-4.6-0.5H787.4z"/>
	<path d="M824.5,245.7l0.8,0.1h4.9l0.6-0.1c2.5,0.5,3.8,1.9,3.8,3.9c-0.4,2.5-1.6,3.7-3.6,3.7h0.5v38.8h-0.2c1.8,0,2.9,1.2,3.4,3.6
		v0.4c-0.4,2.4-1.6,3.5-3.6,3.5h-6.5c-2.4-0.4-3.5-1.6-3.5-3.6v-0.2c0.5-2.4,1.6-3.6,3.4-3.6h-0.2v-38.8h0.5c-2.1,0-3.4-1.3-3.6-3.9
		v-0.2C821,247.6,822.2,246.4,824.5,245.7z"/>
	<path d="M859.6,246.1c4.8,0,8.8,2.2,12,6.6l0.2,0.9v1c0,1.8-1.2,2.8-3.6,3.2c-1.1,0-2.6-1-4.5-3.1c-1.3-0.8-2.6-1.2-3.8-1.2h-0.8
		c-2.6,0-4.5,1.4-5.9,4.2c-0.3,0.6-0.4,1.2-0.4,1.9v1.1c0,3,1.8,5.1,5.4,6.4c3.1,0,6.5,1.5,10.2,4.5c3.6,3.6,5.4,7.6,5.4,12
		c0,5.3-2.3,9.7-6.9,13.1c-2.8,1.9-5.9,2.9-9.3,2.9c-5.5,0-10.1-2.4-13.8-7.3l-0.4-1.5c0.5-2.5,1.7-3.7,3.7-3.7c1.3,0,2.7,1,4.4,3.1
		c2,1.4,3.8,2,5.4,2h1.2c3.2,0,5.8-1.8,7.7-5.5c0.3-1.2,0.5-2,0.5-2.6v-1.4c0-3.2-1.8-5.7-5.5-7.7l-7-1.9c-5.6-3.2-8.4-7.5-8.4-12.7
		v-1c0-5.2,2.8-9.2,8.2-12.1C855.9,246.5,857.8,246.1,859.6,246.1z"/>
	<path d="M883.4,245.7l1.9,0.4h26.3l0.5-0.1c2.3,0,3.6,1.4,3.9,4.1c-0.5,2.3-1.8,3.5-4,3.5h-23.7v16.1h15.1l1.9-0.1
		c1.8,0,3,1.2,3.5,3.7c0,1.7-1,3-3.1,3.9l-2.9-0.1h-14.6v15.2h24.4c1.9,0,3,1.3,3.4,4c-0.7,2.3-1.9,3.4-3.5,3.4h-28.1
		c-2.4-0.4-3.5-1.6-3.5-3.6v-46.2c0.4-2.4,1.2-3.6,2.6-3.6V245.7z"/>
</g>
<path d="M853.7,160.9l53.2-34.5c1-0.6,2.1-0.9,3.4-0.9c1.7,0,3.2,0.6,4.4,1.8c1.2,1.2,1.8,2.7,1.8,4.4c0,1.7-0.6,3.2-1.8,4.4
	c-0.3,0.3-0.6,0.6-0.9,0.8l-36.4,23.7l37.4,42.1c1.2,1.3,1.7,2.7,1.7,4.4c0,1.7-0.6,3.2-1.8,4.4c-1.2,1.2-2.7,1.8-4.4,1.8
	s-3.2-0.6-4.6-1.9l-39-44l-13,8.4v31.2c0,1.7-0.6,3.2-1.8,4.4c-1.2,1.2-2.7,1.8-4.4,1.8c-1.7,0-3.2-0.6-4.4-1.8
	c-1.2-1.2-1.8-2.7-1.8-4.4V94c0-1.7,0.6-3.2,1.8-4.4c1.2-1.2,2.7-1.8,4.4-1.8c1.7,0,3.2,0.6,4.4,1.8c1.2,1.2,1.8,2.7,1.8,4.4V160.9z
	"/>
<path d="M773.4,169.4c-4.8-1.8-8.1-3.6-10-5.6c-3.7-3.7-5.6-8.1-5.6-13.3c0-5.2,1.9-9.7,5.8-13.6c7.5-7.7,17.4-11.5,29.5-11.5
	c13.1,0,24.4,5.3,33.8,15.8c0.8,1,1.2,2.2,1.2,3.7c0,1.7-0.6,3.2-1.8,4.4c-1.2,1.2-2.7,1.8-4.4,1.8s-3.1-0.5-4.2-1.6
	c-1-1.1-1.8-1.9-2.3-2.4c-6.1-6.1-13.5-9.2-22.2-9.2c-8.7,0-15.6,2.7-20.8,8.2c-1.3,1.5-1.9,3.3-1.9,5.4c0.2,2.5,1.4,4.1,3.8,5
	l38.6,12.8c4.8,1.8,8.1,3.6,10,5.6c3.7,3.7,5.6,8.1,5.6,13.3c0,5.2-1.9,9.7-5.8,13.6c-7.5,7.7-17.4,11.5-29.5,11.5
	c-13.2,0-24.4-5.3-33.8-15.8c-0.8-1.1-1.2-2.3-1.2-3.7c0-1.7,0.6-3.2,1.8-4.4c1.2-1.2,2.7-1.8,4.4-1.8c1.7,0,3.1,0.5,4.2,1.6
	c1,1.1,1.8,1.9,2.3,2.4c6.1,6.1,13.5,9.2,22.2,9.2c8.7,0,15.6-2.7,20.8-8.2c1.3-1.5,1.9-3.3,1.9-5.4c-0.2-2.5-1.4-4.1-3.8-5
	L773.4,169.4z"/>
<path d="M725.6,192c1.7,0,3.2,0.6,4.4,1.8c1.2,1.2,1.8,2.7,1.8,4.4c0,1.7-0.6,3.2-1.8,4.5c-8.1,7.1-17.7,10.6-28.7,10.6
	c-12.1,0-22.5-4.3-31.1-12.9c-8.6-8.6-12.9-18.9-12.9-31.1c0-12.1,4.3-22.5,12.9-31.1c8.6-8.6,18.9-12.9,31.1-12.9
	c12.1,0,22.5,4.3,31.1,12.9c8.6,8.6,12.9,18.9,12.9,31.1c0,1.7-0.6,3.2-1.8,4.4c-1.2,1.2-2.7,1.8-4.4,1.8h-68.5
	c1.2,6,4,11.3,8.6,15.9c6.1,6.1,13.5,9.2,22.2,9.2c7.9,0,14.6-2.5,20.3-7.5C722.8,192.4,724.1,192,725.6,192z M732.2,163.1
	c-1.2-6-4-11.3-8.6-15.9c-6.1-6.1-13.5-9.2-22.2-9.2c-8.7,0-16.1,3.1-22.2,9.2c-4.6,4.6-7.5,9.9-8.6,15.9H732.2z"/>
<path d="M632.3,93.8c0-1.7,0.6-3.2,1.8-4.4c1.2-1.2,2.7-1.8,4.4-1.8c1.7,0,3.2,0.6,4.4,1.8c1.2,1.2,1.8,2.7,1.8,4.4v75.5
	c0,12.1-4.3,22.5-12.9,31.1c-8.6,8.6-18.9,12.9-31.1,12.9c-12.1,0-22.5-4.3-31.1-12.9c-8.6-8.6-12.9-18.9-12.9-31.1
	c0-12.1,4.3-22.5,12.9-31.1c8.6-8.6,18.9-12.9,31.1-12.9c12.1,0,22.5,4.3,31.1,12.9c0.1,0.1,0.2,0.2,0.3,0.3V93.8z M632.3,169.4
	c0-8.7-3.1-16.1-9.2-22.2c-6.1-6.1-13.5-9.2-22.2-9.2c-8.7,0-16.1,3.1-22.2,9.2c-6.1,6.1-9.2,13.5-9.2,22.2c0,8.7,3.1,16.1,9.2,22.2
	c6.1,6.1,13.5,9.2,22.2,9.2c8.7,0,16.1-3.1,22.2-9.2C629.2,185.5,632.3,178.1,632.3,169.4z"/>
<path d="M539.6,106.6c0,2.1-0.8,4-2.3,5.5c-1.5,1.5-3.4,2.3-5.5,2.3c-2.1,0-4-0.8-5.5-2.3c-1.5-1.5-2.3-3.4-2.3-5.5
	c0-2.1,0.8-4,2.3-5.5c1.5-1.5,3.4-2.3,5.5-2.3c2.1,0,4,0.8,5.5,2.3C538.9,102.6,539.6,104.4,539.6,106.6z M525.5,131.7
	c0-1.7,0.6-3.2,1.8-4.4c1.2-1.2,2.7-1.8,4.4-1.8s3.2,0.6,4.4,1.8c1.2,1.2,1.8,2.7,1.8,4.4v75.4c0,1.7-0.6,3.2-1.8,4.4
	c-1.2,1.2-2.7,1.8-4.4,1.8s-3.2-0.6-4.4-1.8c-1.2-1.2-1.8-2.7-1.8-4.4V131.7z"/>
<path d="M431.3,138.6c0.1-0.1,0.2-0.2,0.3-0.3c8.6-8.6,18.9-12.9,31.1-12.9c12.1,0,22.5,4.3,31.1,12.9c8.6,8.6,12.9,18.9,12.9,31.1
	c0,12.1-4.3,22.5-12.9,31.1c-8.6,8.6-18.9,12.9-31.1,12.9c-12.1,0-22.5-4.3-31.1-12.9c-8.6-8.6-12.9-18.9-12.9-31.1V93.8
	c0-1.7,0.6-3.2,1.8-4.4c1.2-1.2,2.7-1.8,4.4-1.8c1.7,0,3.2,0.6,4.4,1.8c1.2,1.2,1.8,2.7,1.8,4.4V138.6z M462.7,200.8
	c8.7,0,16.1-3.1,22.2-9.2c6.1-6.1,9.2-13.5,9.2-22.2c0-8.7-3.1-16.1-9.2-22.2c-6.1-6.1-13.5-9.2-22.2-9.2c-8.7,0-16.1,3.1-22.2,9.2
	c-6.1,6.1-9.2,13.5-9.2,22.2c0,8.7,3.1,16.1,9.2,22.2C446.6,197.7,454,200.8,462.7,200.8z"/>
<g>
	<path class="st0" d="M407.9,155.6c0,12.9-4.6,23.9-13.9,32.8c-9.4,9.1-20.5,13.6-33.5,13.6c-13.1,0-24.2-4.5-33.5-13.6
		c-9.2-9.1-13.9-20-13.9-32.8c0-12.8,4.6-23.8,13.9-32.8c9.2-9.1,20.4-13.6,33.5-13.6c13,0,24.1,4.5,33.5,13.6
		c4.6,4.5,8.1,9.5,10.3,15C406.7,143.2,407.9,149.1,407.9,155.6z M360.6,126.4c-4.2,0-8.1,0.8-11.7,2.3c-3.6,1.5-6.7,3.6-9.4,6.3
		c-2.6,2.6-4.7,5.7-6.3,9.2c-1.5,3.5-2.3,7.3-2.3,11.3c0,4,0.8,7.7,2.3,11.3c1.5,3.5,3.6,6.6,6.3,9.2c2.6,2.6,5.8,4.7,9.4,6.3
		c3.6,1.5,7.5,2.3,11.7,2.3c4.1,0,8-0.8,11.6-2.3c3.6-1.5,6.7-3.6,9.4-6.3c2.7-2.7,4.8-5.7,6.3-9.2c1.5-3.5,2.3-7.3,2.3-11.2
		c0-4-0.8-7.7-2.3-11.2c-1.5-3.5-3.7-6.6-6.3-9.2c-2.7-2.7-5.8-4.8-9.4-6.3C368.6,127.2,364.7,126.4,360.6,126.4z"/>
	<g>
		<g>
			<path class="st1" d="M391.1,159.3c0,0,0.2-1.6,0.2-2c0,0,0-2.5,0-3.2c0,0-0.2-3.6-0.7-5.7c0,0-0.9-3.5-1.7-5.3
				c0,0-1.6-3.5-3.2-5.6c0,0-1.7-2.3-4.1-4.7c0,0-2.5-2.5-4.9-3.9c0,0-2.9-1.8-5.7-2.9c0,0-4-1.5-8.1-1.8c0,0-5-0.7-11.8,0.9
				c0,0-5.8,1.3-11.5,6c0,0-4,3.3-6.6,7.2c0,0-2.1,3.2-2.9,5.4c0,0-1.1,2.6-1.5,4.9c0,0-0.5,2.5-0.7,5.3c0,0-0.1,3.4,0.1,5.2
				c0,0,0.3,2.3,0.5,3.5c0,0,0.3,1.2,0.4,1.8c0,0,0.3,1.2,0.6,1.8c0,0,0.4,1.2,0.6,1.6c0,0,0.5,1.1,0.8,1.8c0,0,0.5,1.1,1.3,2.3
				c0,0,1.2,1.9,2.1,3.1c0,0,1.7,2,2.3,2.6c0,0,2.1,2.1,3.1,2.8c0,0,3.5,2.8,5.9,3.8c0,0,3.7,1.8,6.8,2.3c0,0,3.2,0.8,7.4,0.7
				c0,0,5.2-0.2,8.7-1.2c0,0,4.3-1.1,8-3.7c0,0,3.3-2.4,4-3.1c0,0,2.3-2.1,3.2-3.3C383.9,176.1,391,160,391.1,159.3z"/>
			<path class="st1" d="M391.1,159.1c0,0-0.1,1.8-0.5,3c0,0,0,1.1-0.5,1.7c0,0-0.3,0.6-0.4,0.7c0,0-0.2,0.7-0.3,1.8
				c0,0-0.3,1.5-0.1,2.6c0,0,0,1.6,1.1,3c0,0,0.8,1.1,2.2,1.8c0,0,0.2,0.1,1.3,0.6c0,0,1,0.4,2.2,0.6c0,0-1.6,0.8-3.9,1.1
				c0,0-2.3,0.4-4.2,0.4c0,0-1.3,0-2.6,0l-1.2-0.1c0,0-0.4-0.1-0.4-0.1c0,0-0.3,0.4-0.7,0.8c0,0-0.7,0.8-1,1.1c0,0-0.9,0.9-1.3,1.3
				c0,0-1.1,0.9-2.2,1.8l-3.9-1.4l-4.9-10.2l15.9-12.2L391.1,159.1z"/>
		</g>
		<path class="st0" d="M353.1,152.2c0,3.5-2.9,6.4-6.4,6.4c-3.5,0-6.4-2.8-6.4-6.4c0-3.5,2.9-6.4,6.4-6.4
			C350.2,145.8,353.1,148.7,353.1,152.2z"/>
		<path class="st0" d="M378.1,157.4c0,3.5-2.9,6.4-6.4,6.4c-3.5,0-6.4-2.8-6.4-6.4c0-3.5,2.9-6.4,6.4-6.4
			C375.3,151,378.1,153.8,378.1,157.4z"/>
	</g>
</g>
<g>
	<path class="st2" d="M305.3,167.9c0,13-4.6,24-13.9,32.9c-9.4,9.1-20.6,13.6-33.6,13.6c-13.1,0-24.3-4.5-33.6-13.6
		c-9.3-9.1-13.9-20.1-13.9-32.9s4.6-23.8,13.9-32.9c9.3-9.1,20.5-13.6,33.6-13.6c13,0,24.2,4.5,33.6,13.6c4.6,4.5,8.1,9.6,10.4,15.1
		C304.1,155.5,305.3,161.4,305.3,167.9z M257.9,138.7c-4.2,0-8.1,0.8-11.7,2.3c-3.6,1.6-6.8,3.6-9.4,6.3c-2.7,2.6-4.8,5.7-6.3,9.3
		c-1.6,3.6-2.3,7.3-2.3,11.3c0,4,0.8,7.8,2.3,11.3c1.6,3.5,3.7,6.6,6.3,9.3c2.7,2.6,5.8,4.7,9.4,6.3c3.6,1.6,7.5,2.3,11.7,2.3
		c4.1,0,8-0.8,11.6-2.3c3.6-1.6,6.8-3.7,9.5-6.3c2.7-2.7,4.8-5.8,6.4-9.3c1.6-3.5,2.3-7.3,2.3-11.3c0-4-0.8-7.7-2.3-11.3
		c-1.6-3.5-3.7-6.6-6.4-9.3c-2.7-2.7-5.8-4.8-9.5-6.3C265.9,139.5,262,138.7,257.9,138.7z"/>
	<g>
		<g>
			<path class="st1" d="M227.3,171.2c0,0-0.2-1.6-0.2-1.9c0,0,0-2.4,0-3.1c0,0,0.2-3.5,0.7-5.5c0,0,0.8-3.4,1.7-5.1
				c0,0,1.5-3.4,3.1-5.4c0,0,1.6-2.3,4-4.6c0,0,2.5-2.5,4.8-3.8c0,0,2.8-1.8,5.5-2.8c0,0,3.9-1.5,7.8-1.8c0,0,4.9-0.7,11.5,0.9
				c0,0,5.7,1.3,11.2,5.8c0,0,3.9,3.2,6.4,7c0,0,2,3.1,2.8,5.3c0,0,1.1,2.5,1.5,4.8c0,0,0.5,2.5,0.7,5.2c0,0,0.1,3.3-0.1,5.1
				c0,0-0.3,2.2-0.5,3.4c0,0-0.3,1.2-0.4,1.8c0,0-0.3,1.2-0.5,1.8c0,0-0.4,1.1-0.6,1.6c0,0-0.4,1.1-0.8,1.8c0,0-0.5,1.1-1.2,2.2
				c0,0-1.2,1.9-2.1,3c0,0-1.7,2-2.2,2.5c0,0-2,2-3,2.8c0,0-3.4,2.7-5.8,3.7c0,0-3.6,1.8-6.6,2.3c0,0-3.1,0.8-7.2,0.7
				c0,0-5.1-0.2-8.5-1.2c0,0-4.1-1.1-7.8-3.5c0,0-3.2-2.3-3.9-3c0,0-2.2-2.1-3.1-3.3C234.3,187.5,227.3,171.9,227.3,171.2z"/>
			<path class="st1" d="M227.3,171c0,0,0.1,1.7,0.4,3c0,0,0.1,0.8,0.6,1.4c0,0,0.2,0.7,0.3,0.8c0,0,0.1,0.5,0.2,1.8
				c0,0,0.3,1.5,0.1,2.6c0,0,0,1.6-1.1,3c0,0-0.8,1-2.1,1.7c0,0-0.1,0.1-1.3,0.6c0,0-1,0.4-2.1,0.6c0,0,1.6,0.7,3.8,1.1
				c0,0,2.2,0.4,4.1,0.4c0,0,1.2,0,2.5,0l1.2-0.1c0,0,0.4-0.1,0.4-0.1c0,0,0.3,0.4,0.7,0.8c0,0,0.7,0.7,1,1.1c0,0,0.9,0.9,1.3,1.3
				c0,0,1,0.9,2.2,1.7l3.8-1.3l4.8-9.9l-15.5-11.9L227.3,171z"/>
		</g>
		<path class="st3" d="M265.6,163.5c0,3.2,2.6,5.9,5.9,5.9c3.2,0,5.9-2.6,5.9-5.9c0-3.2-2.6-5.9-5.9-5.9
			C268.2,157.6,265.6,160.2,265.6,163.5z"/>
		<path class="st3" d="M240.4,169.3c0,3.2,2.6,5.9,5.9,5.9c3.2,0,5.9-2.6,5.9-5.9c0-3.2-2.6-5.9-5.9-5.9
			C243,163.5,240.4,166.1,240.4,169.3z"/>
	</g>
</g>
<path d="M132,209.5l-44.4-88.9v86.4c0,1.7-0.6,3.2-1.8,4.4c-1.2,1.2-2.7,1.8-4.4,1.8c-1.7,0-3.2-0.6-4.4-1.8
	c-1.2-1.2-1.8-2.7-1.8-4.4V94c0-1.7,0.6-3.2,1.8-4.4c1.2-1.2,2.7-1.8,4.4-1.8c2.5,0,4.4,1.1,5.6,3.3l51,102l51-102
	c1.2-2.2,3.1-3.3,5.6-3.3c1.7,0,3.2,0.6,4.4,1.8c1.2,1.2,1.8,2.7,1.8,4.4v113.1c0,1.7-0.6,3.2-1.8,4.4c-1.2,1.2-2.7,1.8-4.4,1.8
	c-1.7,0-3.2-0.6-4.4-1.8c-1.2-1.2-1.8-2.7-1.8-4.4v-86.4l-44.8,89.7c-1.1,2-2.9,3.1-5.4,3.1C135.2,213.3,133.3,212.1,132,209.5z"/>
</svg>
