<svg xmlns="http://www.w3.org/2000/svg" width="47" height="47" viewBox="0 0 47 47">
  <g id="survey" transform="translate(-1 -1)">
    <path id="Path_786" data-name="Path 786" d="M23.339,25a8.339,8.339,0,1,0,8.339,8.339A8.349,8.349,0,0,0,23.339,25Zm0,15.161a6.823,6.823,0,1,1,6.823-6.823A6.83,6.83,0,0,1,23.339,40.161Z" transform="translate(-3.387 -5.806)" fill="#0081d2"/>
    <path id="Path_787" data-name="Path 787" d="M35.871,29.806V33.5l5.536-3.69h1.286a3.8,3.8,0,0,0,3.79-3.79v-9.1a3.8,3.8,0,0,0-3.79-3.79H38.638a4.541,4.541,0,0,0-8.566,0H26.016a3.787,3.787,0,0,0-.758.077V7.823a3.8,3.8,0,0,0-3.79-3.79H17.412a4.541,4.541,0,0,0-8.566,0H4.79A3.8,3.8,0,0,0,1,7.823v9.1a3.8,3.8,0,0,0,3.79,3.79h6.086a11.295,11.295,0,0,0-.454,13.006L9.339,34.8l-.758-.758L2.007,40.615A3.438,3.438,0,0,0,6.87,45.477L13.443,38.9l-.758-.758,1.083-1.083a11.354,11.354,0,0,0,17.326-7.255ZM38.9,14.645h3.79a2.277,2.277,0,0,1,2.274,2.274v9.1a2.277,2.277,0,0,1-2.274,2.274H40.948l-3.561,2.374V28.29h-6.1c.017-.252.039-.5.039-.758s-.022-.506-.039-.758H41.935V25.258a7.588,7.588,0,0,0-4.779-7.037A4.54,4.54,0,0,0,38.9,14.645ZM36.571,25.258l-.463-5.8a6.074,6.074,0,0,1,4.311,5.8ZM34.566,19.2l.484,6.054H33.66l.483-6.052c.071,0,.141-.013.212-.013S34.5,19.2,34.566,19.2Zm-2.428,6.054H31.093a11.282,11.282,0,0,0-1.5-3.733A6.045,6.045,0,0,1,32.6,19.463Zm2.217-13.645a3.032,3.032,0,1,1-3.032,3.032A3.035,3.035,0,0,1,34.355,11.613Zm-4.548,3.032a4.54,4.54,0,0,0,1.744,3.574,7.571,7.571,0,0,0-2.881,2.026,11.4,11.4,0,0,0-4.919-3.417,2.272,2.272,0,0,1,2.265-2.183Zm-12.129-9.1h3.79a2.277,2.277,0,0,1,2.274,2.274v6.084a3.771,3.771,0,0,0-1.464,2.5,11.228,11.228,0,0,0-1.568-.2v-.039a7.588,7.588,0,0,0-4.779-7.037A4.54,4.54,0,0,0,17.677,5.548ZM7.065,16.161a6.074,6.074,0,0,1,4.312-5.8l-.464,5.8Zm5.853-6.054c.071,0,.14-.011.211-.011s.141.008.212.011l.484,6.054h-1.39Zm1.964.25a6.074,6.074,0,0,1,4.312,5.8H15.346ZM13.129,2.516A3.032,3.032,0,1,1,10.1,5.548,3.035,3.035,0,0,1,13.129,2.516ZM2.516,16.919v-9.1A2.277,2.277,0,0,1,4.79,5.548h3.79a4.54,4.54,0,0,0,1.747,3.576,7.588,7.588,0,0,0-4.779,7.037v1.516H14.3a11.415,11.415,0,0,0-2.056,1.516H4.79A2.277,2.277,0,0,1,2.516,16.919ZM5.8,44.405a1.922,1.922,0,1,1-2.718-2.718l5.5-5.5L11.3,38.9Zm5.815-7.332-1.2-1.2.932-.932a11.54,11.54,0,0,0,1.2,1.2Zm8.339.314a9.855,9.855,0,1,1,9.855-9.855A9.866,9.866,0,0,1,19.952,37.387Z" fill="#0081d2"/>
    <path id="Path_788" data-name="Path 788" d="M54.919,45H41.274A2.277,2.277,0,0,0,39,47.274v9.1a2.277,2.277,0,0,0,2.274,2.274H54.919a2.277,2.277,0,0,0,2.274-2.274v-9.1A2.277,2.277,0,0,0,54.919,45Zm.758,11.371a.759.759,0,0,1-.758.758H41.274a.759.759,0,0,1-.758-.758v-9.1a.759.759,0,0,1,.758-.758H54.919a.759.759,0,0,1,.758.758Z" transform="translate(-9.194 -10.645)" fill="#0081d2"/>
    <path id="Path_789" data-name="Path 789" d="M53.613,50.516H52.1v4.548H50.581V52.032H49.065v3.032H47.548V53.548H46.032v1.516H44.516V49H43v7.581H55.129V55.065H53.613Z" transform="translate(-10.161 -11.613)" fill="#0081d2"/>
    <path id="Path_790" data-name="Path 790" d="M55,21h1.516v1.516H55Z" transform="translate(-13.065 -4.839)" fill="#0081d2"/>
    <path id="Path_791" data-name="Path 791" d="M55,25h1.516v1.516H55Z" transform="translate(-13.065 -5.806)" fill="#0081d2"/>
    <path id="Path_792" data-name="Path 792" d="M5,9H6.516v1.516H5Z" transform="translate(-0.968 -1.935)" fill="#0081d2"/>
    <path id="Path_793" data-name="Path 793" d="M5,13H6.516v1.516H5Z" transform="translate(-0.968 -2.903)" fill="#0081d2"/>
  </g>
</svg>
