<svg xmlns="http://www.w3.org/2000/svg" xmlns:xlink="http://www.w3.org/1999/xlink" width="35.432" height="47" viewBox="0 0 35.432 47">
  <defs>
    <clipPath id="clip-path">
      <circle id="Ellipse_10" data-name="Ellipse 10" cx="13.926" cy="13.926" r="13.926" fill="#0081d2"/>
    </clipPath>
  </defs>
  <g id="Group_69" data-name="Group 69" transform="translate(-1337.175 -538.91)">
    <g id="Group_52" data-name="Group 52" transform="translate(1349.383 575.353)">
      <g id="Group_51" data-name="Group 51" transform="translate(0 0)">
        <path id="Path_225" data-name="Path 225" d="M1370.654,610.068a.822.822,0,0,0-.663-.559l-2.81-.408-1.256-2.546a.821.821,0,0,0-1.473,0L1363.2,609.1l-2.81.408a.821.821,0,0,0-.455,1.4l2.033,1.982-.48,2.8a.821.821,0,0,0,1.193.868l2.513-1.321,2.514,1.321a.821.821,0,0,0,1.193-.868l-.48-2.8,2.033-1.982A.822.822,0,0,0,1370.654,610.068Zm-3.186,2.083a1.055,1.055,0,0,0-.3.936l.35,2.038-1.833-.963a1.056,1.056,0,0,0-.984,0l-1.833.963.35-2.038a1.056,1.056,0,0,0-.3-.936l-1.482-1.446,2.049-.3a1.057,1.057,0,0,0,.8-.578l.916-1.856.916,1.856a1.057,1.057,0,0,0,.8.578l2.049.3Z" transform="translate(-1359.683 -606.098)" fill="#0081d2"/>
      </g>
    </g>
    <g id="Group_52-2" data-name="Group 52" transform="translate(1361.595 575.243)">
      <g id="Group_51-2" data-name="Group 51" transform="translate(0 0)">
        <path id="Path_225-2" data-name="Path 225" d="M1393.166,609.865a.823.823,0,0,0-.663-.559l-2.81-.408-1.256-2.546a.821.821,0,0,0-1.473,0l-1.256,2.546-2.81.408a.821.821,0,0,0-.455,1.4l2.033,1.982-.48,2.8a.821.821,0,0,0,1.193.868l2.514-1.321,2.513,1.321a.821.821,0,0,0,1.193-.868l-.481-2.8,2.033-1.982A.82.82,0,0,0,1393.166,609.865Zm-3.186,2.083a1.058,1.058,0,0,0-.3.936l.351,2.038-1.833-.964a1.059,1.059,0,0,0-.984,0l-1.833.964.35-2.038a1.059,1.059,0,0,0-.3-.936l-1.483-1.445,2.049-.3a1.056,1.056,0,0,0,.8-.578l.916-1.856.916,1.856a1.056,1.056,0,0,0,.8.578l2.049.3Z" transform="translate(-1382.196 -605.893)" fill="#0081d2"/>
      </g>
    </g>
    <g id="Group_52-3" data-name="Group 52" transform="translate(1337.175 575.242)">
      <g id="Group_51-3" data-name="Group 51">
        <path id="Path_225-3" data-name="Path 225" d="M1348.145,609.865a.822.822,0,0,0-.662-.559l-2.81-.408-1.257-2.546a.82.82,0,0,0-1.472,0l-1.257,2.546-2.81.408a.821.821,0,0,0-.455,1.4l2.032,1.982-.48,2.8a.821.821,0,0,0,1.193.868l2.514-1.321,2.514,1.321a.821.821,0,0,0,1.193-.868l-.48-2.8,2.032-1.982a.82.82,0,0,0,.2-.841Zm-3.186,2.083a1.058,1.058,0,0,0-.3.936l.35,2.038-1.833-.964a1.059,1.059,0,0,0-.984,0l-1.833.964.35-2.038a1.058,1.058,0,0,0-.3-.936l-1.483-1.445,2.049-.3a1.056,1.056,0,0,0,.8-.578l.916-1.856.916,1.856a1.055,1.055,0,0,0,.8.578l2.049.3Z" transform="translate(-1337.175 -605.893)" fill="#0081d2"/>
      </g>
    </g>
    <g id="Group_65" data-name="Group 65" transform="translate(1337.198 538.91)">
      <path id="Path_263" data-name="Path 263" d="M1354.816,574.113a17.6,17.6,0,1,1,14.6-7.76.766.766,0,1,1-1.269-.857,16.085,16.085,0,1,0-2.91,3.255.765.765,0,0,1,.993,1.165A17.609,17.609,0,0,1,1354.816,574.113Z" transform="translate(-1337.219 -538.91)" fill="#0081d2"/>
      <circle id="Ellipse_9" data-name="Ellipse 9" cx="0.828" cy="0.828" r="0.828" transform="translate(29.273 28.024)" fill="#0081d2"/>
    </g>
    <path id="Path_264" data-name="Path 264" d="M1357.34,573.634a14.607,14.607,0,1,1,14.607-14.607A14.607,14.607,0,0,1,1357.34,573.634Zm0-27.851a13.245,13.245,0,1,0,13.245,13.245,13.245,13.245,0,0,0-13.245-13.245Z" transform="translate(-2.544 -2.522)" fill="#0081d2"/>
    <g id="Group_68" data-name="Group 68" transform="translate(1340.87 542.58)">
      <g id="Group_67" data-name="Group 67" clip-path="url(#clip-path)">
        <g id="Group_66" data-name="Group 66" transform="translate(4.367 3.613)">
          <path id="Path_207" data-name="Path 207" d="M1365.01,575.454h-6.827a6.152,6.152,0,0,0-6.144,6.145v5.462a.683.683,0,0,0,.683.683h17.752a.684.684,0,0,0,.684-.683V581.6A6.153,6.153,0,0,0,1365.01,575.454Zm-1.759,1.725-1.487,1.783a.22.22,0,0,1-.337,0l-1.486-1.784a.217.217,0,0,1,.169-.36h2.973a.217.217,0,0,1,.169.361Zm-2.338,4.145v5.057h-4.1v-4.1a.682.682,0,0,0-.682-.682h0a.683.683,0,0,0-.683.682v4.1H1353.4V581.6a4.783,4.783,0,0,1,3.982-4.707l3.345,3.931a.773.773,0,0,1,.184.5Zm4.894-4.434a4.782,4.782,0,0,1,3.982,4.707v4.78h-2.048v-4.1a.683.683,0,0,0-.683-.682h0a.683.683,0,0,0-.683.682v4.1h-4.1v-5.055a.771.771,0,0,1,.184-.5Z" transform="translate(-1352.039 -562.915)" fill="#0081d2"/>
          <path id="Path_208" data-name="Path 208" d="M1369.772,560.53v-2.048a.683.683,0,0,0,.683-.683h0a5.462,5.462,0,0,0-10.924,0h0a.683.683,0,0,0,.683.683h0v2.048a4.779,4.779,0,0,0,9.559,0Zm-4.779-6.828a4.1,4.1,0,0,1,4.017,3.292,4.6,4.6,0,0,1-2.084-1.623.682.682,0,0,0-.5-.3h-.068a.685.685,0,0,0-.482.2c-.745.743-3.12,1.38-4.9,1.708a4.1,4.1,0,0,1,4.014-3.277Zm0,10.241a3.417,3.417,0,0,1-3.414-3.413l0-2.273a15.42,15.42,0,0,0,4.67-1.559,5.7,5.7,0,0,0,2.162,1.524v2.308a3.417,3.417,0,0,1-3.414,3.413Z" transform="translate(-1355.467 -552.337)" fill="#0081d2"/>
        </g>
      </g>
    </g>
  </g>
</svg>
