<svg xmlns="http://www.w3.org/2000/svg" width="44.503" height="47" viewBox="0 0 44.503 47">
  <g id="bar-chart" transform="translate(-13.601)">
    <g id="Group_328" data-name="Group 328" transform="translate(13.601 13.462)">
      <g id="Group_327" data-name="Group 327">
        <path id="Path_855" data-name="Path 855" d="M57.186,178.356H55.173V149.122a2.471,2.471,0,0,0-2.468-2.468H48.2a2.471,2.471,0,0,0-2.468,2.468v29.234H40.625V162.367a2.47,2.47,0,0,0-2.468-2.468h-4.5a2.471,2.471,0,0,0-2.468,2.468v15.989H26.077v-8.28a2.471,2.471,0,0,0-2.468-2.468h-4.5a2.471,2.471,0,0,0-2.468,2.468v8.28H14.519a.918.918,0,0,0,0,1.836H57.186a.918.918,0,1,0,0-1.836Zm-32.945,0H18.477v-8.28a.632.632,0,0,1,.632-.632h4.5a.632.632,0,0,1,.632.632v8.28Zm14.548,0H33.025V162.367a.632.632,0,0,1,.632-.632h4.5a.632.632,0,0,1,.632.632Zm14.548,0H47.573V149.122a.632.632,0,0,1,.632-.632h4.5a.632.632,0,0,1,.632.632v29.234Z" transform="translate(-13.601 -146.654)" fill="#0081d2"/>
      </g>
    </g>
    <g id="Group_330" data-name="Group 330" transform="translate(21.472)">
      <g id="Group_329" data-name="Group 329">
        <path id="Path_856" data-name="Path 856" d="M133.044.965A.915.915,0,0,0,132.081,0l-.044,0h-5.554a.918.918,0,0,0,0,1.836h3.429l-9.075,9.075-3.422-3.422a.918.918,0,0,0-1.3,0l-16.5,16.5a.918.918,0,0,0,1.3,1.3L116.766,9.436l3.422,3.422a.918.918,0,0,0,1.3,0l9.724-9.724v3.1a.918.918,0,0,0,1.836,0V1.01C133.047.995,133.045.98,133.044.965Z" transform="translate(-99.346)" fill="#0081d2"/>
      </g>
    </g>
    <g id="Group_332" data-name="Group 332" transform="translate(18.378 26.925)">
      <g id="Group_331" data-name="Group 331">
        <circle id="Ellipse_56" data-name="Ellipse 56" cx="0.918" cy="0.918" r="0.918" fill="#0081d2"/>
      </g>
    </g>
  </g>
</svg>
