<svg xmlns="http://www.w3.org/2000/svg" width="47" height="47" viewBox="0 0 47 47">
  <g id="profit" transform="translate(-1 -1)">
    <path id="Path_794" data-name="Path 794" d="M49.032,8.032a1.518,1.518,0,0,1,1.516,1.516h1.516A3.029,3.029,0,0,0,49.79,6.624V5H48.274V6.516H46V9.548a3.035,3.035,0,0,0,3.032,3.032A1.518,1.518,0,0,1,50.548,14.1v1.516H49.032A1.518,1.518,0,0,1,47.516,14.1H46a3.029,3.029,0,0,0,2.274,2.925v1.624H49.79V17.129h2.274V14.1a3.035,3.035,0,0,0-3.032-3.032,1.518,1.518,0,0,1-1.516-1.516V8.032Z" transform="translate(-10.887 -0.968)" fill="#0081d2"/>
    <path id="Path_795" data-name="Path 795" d="M48,10.855a9.853,9.853,0,0,0-18.949-3.79H9.025L1,15.089V48H38.9V20.671A9.862,9.862,0,0,0,48,10.855ZM8.581,9.653v4.993H3.588ZM2.516,46.484V16.161H10.1V8.581H28.565a9.769,9.769,0,0,0,2.62,9.244L27.9,19.868a3,3,0,0,0-4.809,1.6H19.844a3.025,3.025,0,1,0-5.357,2.55l-8.01,9.859,1.177.957,8.008-9.856a3,3,0,0,0,4.183-1.993h3.248a3.026,3.026,0,1,0,5.729-1.9l3.586-2.231a9.786,9.786,0,0,0,4.98,1.821V46.484ZM27.532,22.226a1.516,1.516,0,1,1-1.516-1.516A1.518,1.518,0,0,1,27.532,22.226Zm-12.129,0a1.516,1.516,0,1,1,1.516,1.516A1.518,1.518,0,0,1,15.4,22.226Zm22.742-3.032a8.339,8.339,0,1,1,8.339-8.339A8.349,8.349,0,0,1,38.145,19.194Z" fill="#0081d2"/>
    <path id="Path_796" data-name="Path 796" d="M57,13h1.516v1.516H57Z" transform="translate(-13.548 -2.903)" fill="#0081d2"/>
    <path id="Path_797" data-name="Path 797" d="M41,13h1.516v1.516H41Z" transform="translate(-9.677 -2.903)" fill="#0081d2"/>
    <path id="Path_798" data-name="Path 798" d="M27.681,35.823h-9.19L9,47.686v4.056H37.806V29H36.02ZM18.1,50.226H15.065V42.532l3.032-3.79Zm1.516-12.887h3.032V50.226H19.613Zm4.548,0h3.032V50.226H24.161Zm4.548-.4,3.032-2.481V50.226H28.71ZM10.516,48.218l3.032-3.79v5.8H10.516ZM36.29,50.226H33.258V33.219l3.032-2.481Z" transform="translate(-1.935 -6.774)" fill="#0081d2"/>
    <path id="Path_799" data-name="Path 799" d="M19,13H31.129v1.516H19Z" transform="translate(-4.355 -2.903)" fill="#0081d2"/>
    <path id="Path_800" data-name="Path 800" d="M19,17H31.129v1.516H19Z" transform="translate(-4.355 -3.871)" fill="#0081d2"/>
    <path id="Path_801" data-name="Path 801" d="M15,13h1.516v1.516H15Z" transform="translate(-3.387 -2.903)" fill="#0081d2"/>
    <path id="Path_802" data-name="Path 802" d="M15,17h1.516v1.516H15Z" transform="translate(-3.387 -3.871)" fill="#0081d2"/>
    <path id="Path_803" data-name="Path 803" d="M15,21h1.516v1.516H15Z" transform="translate(-3.387 -4.839)" fill="#0081d2"/>
    <path id="Path_804" data-name="Path 804" d="M19,21H31.129v1.516H19Z" transform="translate(-4.355 -4.839)" fill="#0081d2"/>
    <path id="Path_805" data-name="Path 805" d="M5,23H6.516v1.516H5Z" transform="translate(-0.968 -5.323)" fill="#0081d2"/>
    <path id="Path_806" data-name="Path 806" d="M5,27H6.516v1.516H5Z" transform="translate(-0.968 -6.29)" fill="#0081d2"/>
    <path id="Path_807" data-name="Path 807" d="M5,31H6.516v1.516H5Z" transform="translate(-0.968 -7.258)" fill="#0081d2"/>
  </g>
</svg>
