<svg xmlns="http://www.w3.org/2000/svg" width="47" height="47" viewBox="0 0 47 47">
  <g id="Data_storage_protect_cloud_server_sheild" data-name="Data storage_protect_cloud_server_sheild" transform="translate(-2 -1.999)">
    <path id="Path_808" data-name="Path 808" d="M46.573,42.852,45.465,43.96l2.215,2.215a.783.783,0,0,0,1.108,0l4.431-4.431-1.108-1.108-3.878,3.877Z" transform="translate(-9.417 -8.371)" fill="#0081d2"/>
    <path id="Path_809" data-name="Path 809" d="M48.521,27.912l-1.606-.674a10.955,10.955,0,0,0-6.87-17.21,7.016,7.016,0,0,0-6.705-4.9,6.856,6.856,0,0,0-2.514.47A11.729,11.729,0,0,0,11.258,9.966,10.967,10.967,0,0,0,11.885,31.7a.788.788,0,0,0,.306.063v3.917a.783.783,0,0,0,.783.783h2.35v1.567h-2.35a.783.783,0,0,0-.783.783v9.4a.783.783,0,0,0,.783.783H38.04a.82.82,0,0,0,.392-.118.783.783,0,0,0,.392.118.8.8,0,0,0,.556-.227l7.1-7.1a8.556,8.556,0,0,0,2.522-6.094v-6.94a.773.773,0,0,0-.486-.721ZM12.19,26.283v3.87a9.393,9.393,0,0,1-.251-18.7.772.772,0,0,0,.666-.556A10.163,10.163,0,0,1,30.035,7.06a.777.777,0,0,0,.932.188A5.405,5.405,0,0,1,33.34,6.7a5.465,5.465,0,0,1,5.327,4.2.783.783,0,0,0,.65.6A9.434,9.434,0,0,1,47.44,20.8a9.333,9.333,0,0,1-2.029,5.812L39.121,24a.718.718,0,0,0-.6,0L35.69,25.171V23.933h2.35a.783.783,0,0,0,.783-.783v-9.4a.783.783,0,0,0-.783-.783H12.974a.783.783,0,0,0-.783.783v9.4a.783.783,0,0,0,.783.783h2.35V25.5h-2.35A.783.783,0,0,0,12.19,26.283Zm1.567-3.917V14.533h23.5v7.833Zm20.367,1.567V25.5H16.89V23.933ZM13.757,34.9V27.066h17.39l-2.021.846a.773.773,0,0,0-.486.721V34.9ZM29,38.033H16.89V36.466h11.8A8.164,8.164,0,0,0,29,38.033Zm-15.244,9.4V39.6H29.635a8.669,8.669,0,0,0,1.528,2.068l5.773,5.765ZM47.44,35.573a7,7,0,0,1-2.068,4.982l-6.549,6.556-6.549-6.556a7,7,0,0,1-2.068-4.982V29.158l8.617-3.6,8.617,3.6Z" transform="translate(-0.007 0)" fill="#0081d2"/>
    <path id="Path_810" data-name="Path 810" d="M54.181,36.25l-7.05-2.937a.718.718,0,0,0-.6,0l-7.05,2.937A.773.773,0,0,0,39,36.97v5.374a6.222,6.222,0,0,0,1.833,4.426l5.444,5.444a.775.775,0,0,0,1.112,0l5.444-5.444a6.222,6.222,0,0,0,1.833-4.426V36.97a.773.773,0,0,0-.486-.721ZM53.1,42.344a4.644,4.644,0,0,1-1.379,3.321l-4.888,4.888-4.888-4.888a4.644,4.644,0,0,1-1.379-3.321V37.5l6.267-2.616L53.1,37.5Z" transform="translate(-8.017 -6.77)" fill="#0081d2"/>
    <path id="Path_811" data-name="Path 811" d="M21.35,20a2.35,2.35,0,1,0,2.35,2.35A2.35,2.35,0,0,0,21.35,20Zm0,3.133a.783.783,0,1,1,.783-.783A.783.783,0,0,1,21.35,23.133Z" transform="translate(-3.683 -3.9)" fill="#0081d2"/>
    <path id="Path_812" data-name="Path 812" d="M29.35,20a2.35,2.35,0,1,0,2.35,2.35A2.35,2.35,0,0,0,29.35,20Zm0,3.133a.783.783,0,1,1,.783-.783A.783.783,0,0,1,29.35,23.133Z" transform="translate(-5.417 -3.9)" fill="#0081d2"/>
    <path id="Path_813" data-name="Path 813" d="M36,20h1.567v1.567H36Z" transform="translate(-7.367 -3.9)" fill="#0081d2"/>
    <path id="Path_814" data-name="Path 814" d="M36,24h1.567v1.567H36Z" transform="translate(-7.367 -4.767)" fill="#0081d2"/>
    <path id="Path_815" data-name="Path 815" d="M42,20h1.567v1.567H42Z" transform="translate(-8.667 -3.9)" fill="#0081d2"/>
    <path id="Path_816" data-name="Path 816" d="M42,24h1.567v1.567H42Z" transform="translate(-8.667 -4.767)" fill="#0081d2"/>
    <path id="Path_817" data-name="Path 817" d="M21.35,36a2.35,2.35,0,1,0,2.35,2.35A2.35,2.35,0,0,0,21.35,36Zm0,3.133a.783.783,0,1,1,.783-.783A.783.783,0,0,1,21.35,39.133Z" transform="translate(-3.683 -7.367)" fill="#0081d2"/>
    <path id="Path_818" data-name="Path 818" d="M29.35,36a2.35,2.35,0,1,0,2.35,2.35A2.35,2.35,0,0,0,29.35,36Zm0,3.133a.783.783,0,1,1,.783-.783A.783.783,0,0,1,29.35,39.133Z" transform="translate(-5.417 -7.367)" fill="#0081d2"/>
    <path id="Path_819" data-name="Path 819" d="M21.35,52a2.35,2.35,0,1,0,2.35,2.35A2.35,2.35,0,0,0,21.35,52Zm0,3.133a.783.783,0,1,1,.783-.783A.783.783,0,0,1,21.35,55.133Z" transform="translate(-3.683 -10.834)" fill="#0081d2"/>
    <path id="Path_820" data-name="Path 820" d="M29.35,52a2.35,2.35,0,1,0,2.35,2.35A2.35,2.35,0,0,0,29.35,52Zm0,3.133a.783.783,0,1,1,.783-.783A.783.783,0,0,1,29.35,55.133Z" transform="translate(-5.417 -10.834)" fill="#0081d2"/>
    <path id="Path_821" data-name="Path 821" d="M36,52h1.567v1.567H36Z" transform="translate(-7.367 -10.834)" fill="#0081d2"/>
    <path id="Path_822" data-name="Path 822" d="M36,56h1.567v1.567H36Z" transform="translate(-7.367 -11.7)" fill="#0081d2"/>
    <path id="Path_823" data-name="Path 823" d="M2,48H3.567v1.567H2Z" transform="translate(0 -9.967)" fill="#0081d2"/>
    <path id="Path_824" data-name="Path 824" d="M6,48h4.7v1.567H6Z" transform="translate(-0.867 -9.967)" fill="#0081d2"/>
    <path id="Path_825" data-name="Path 825" d="M2,54H3.567v1.567H2Z" transform="translate(0 -11.267)" fill="#0081d2"/>
    <path id="Path_826" data-name="Path 826" d="M6,54h4.7v1.567H6Z" transform="translate(-0.867 -11.267)" fill="#0081d2"/>
    <path id="Path_827" data-name="Path 827" d="M2,60H3.567v1.567H2Z" transform="translate(0 -12.567)" fill="#0081d2"/>
    <path id="Path_828" data-name="Path 828" d="M6,60h4.7v1.567H6Z" transform="translate(-0.867 -12.567)" fill="#0081d2"/>
  </g>
</svg>
