<svg id="logistics" xmlns="http://www.w3.org/2000/svg" width="47" height="47" viewBox="0 0 47 47">
  <path id="Path_775" data-name="Path 775" d="M2.428,15.561H9.5a2.428,2.428,0,0,0,2.428-2.428,5.922,5.922,0,0,0-1.748-4.217A6,6,0,0,0,8.77,7.87a3.486,3.486,0,0,0,.7-2.1V2.339A2.342,2.342,0,0,0,7.129,0H4.8A2.342,2.342,0,0,0,2.46,2.339V5.774a3.486,3.486,0,0,0,.7,2.1A6,6,0,0,0,1.747,8.916,5.925,5.925,0,0,0,0,13.133,2.431,2.431,0,0,0,2.428,15.561ZM3.837,2.339A.963.963,0,0,1,4.8,1.377h2.33a.963.963,0,0,1,.962.962v.85A3.658,3.658,0,0,0,5.319,3l-1.482.488Zm0,2.6,1.913-.63a2.3,2.3,0,0,1,2.013.278l.328.221v.969a2.127,2.127,0,0,1-4.254,0ZM2.72,9.89A4.613,4.613,0,0,1,4.3,8.857a3.5,3.5,0,0,0,3.326,0A4.613,4.613,0,0,1,9.208,9.89a4.555,4.555,0,0,1,1.344,3.244A1.051,1.051,0,0,1,9.5,14.184H2.428a1.052,1.052,0,0,1-1.051-1.051A4.557,4.557,0,0,1,2.72,9.89Zm20.982-.5A.688.688,0,0,0,24.39,8.7,5.152,5.152,0,0,1,29.4,3.559l-1,1a.688.688,0,1,0,.974.974l2.177-2.177a.688.688,0,0,0,0-.977L29.373.2a.688.688,0,0,0-.974.974l1.007,1.007A6.53,6.53,0,0,0,23.013,8.7a.688.688,0,0,0,.688.688Zm13.8,6.171h7.073A2.428,2.428,0,0,0,47,13.133a5.925,5.925,0,0,0-1.747-4.217A6,6,0,0,0,43.842,7.87a3.486,3.486,0,0,0,.7-2.1V2.339A2.342,2.342,0,0,0,42.2,0h-2.33a2.342,2.342,0,0,0-2.339,2.339V5.774A3.5,3.5,0,0,0,42.7,8.857,4.613,4.613,0,0,1,44.28,9.89a4.557,4.557,0,0,1,1.343,3.244,1.051,1.051,0,0,1-1.051,1.051H37.5a1.052,1.052,0,0,1-1.051-1.051,4.538,4.538,0,0,1,.979-2.833.688.688,0,0,0-1.082-.852,5.9,5.9,0,0,0-1.274,3.685A2.431,2.431,0,0,0,37.5,15.561Zm5.664-9.787a2.127,2.127,0,0,1-4.254,0V4.937l1.913-.63a2.3,2.3,0,0,1,2.013.278l.328.221Zm0-2.585A3.658,3.658,0,0,0,40.391,3l-1.482.488V2.339a.963.963,0,0,1,.962-.962H42.2a.963.963,0,0,1,.962.962v.85Zm-1.7,24.081a.689.689,0,0,0,0,.974l2.177,2.177a.694.694,0,0,0,.977,0L46.8,28.243a.688.688,0,1,0-.974-.974l-1.007,1.007a6.53,6.53,0,0,0-6.52-6.392.688.688,0,1,0,0,1.377,5.152,5.152,0,0,1,5.143,5.008l-1-1A.689.689,0,0,0,41.468,27.27ZM23.5,14.023a8,8,0,0,0-7.99,7.99v.977a1.584,1.584,0,0,0-1.349,1.564v2.318a1.585,1.585,0,0,0,1.583,1.583h1.343a1.149,1.149,0,0,0,1.147-1.147v-3.19a1.181,1.181,0,0,0-1.349-1.147v-.957a6.613,6.613,0,1,1,13.226,0v.957a1.183,1.183,0,0,0-1.349,1.147v3.514a4.926,4.926,0,0,1-1.393,1.878,4.834,4.834,0,0,1-1,.636,1.918,1.918,0,0,0-1.684-1H23.2a1.917,1.917,0,0,0,0,3.833h1.49a1.919,1.919,0,0,0,1.845-1.405,6.208,6.208,0,0,0,1.712-1A6.282,6.282,0,0,0,29.9,28.455h1.353a1.585,1.585,0,0,0,1.583-1.583V24.554A1.584,1.584,0,0,0,31.49,22.99v-.977a8,8,0,0,0-7.99-7.99ZM16.859,27.078H15.745a.207.207,0,0,1-.206-.206V24.553a.207.207,0,0,1,.206-.206h1.114ZM24.69,31.6H23.2a.54.54,0,1,1,0-1.08h1.49a.54.54,0,0,1,.54.538v0A.54.54,0,0,1,24.69,31.6Zm6.772-4.728a.207.207,0,0,1-.206.206H30.141V24.347h1.114a.207.207,0,0,1,.206.206ZM23.509,25a.688.688,0,0,0,.688-.688V19.852a.688.688,0,1,0-1.377,0v4.462A.688.688,0,0,0,23.509,25Zm-.01,2.833a.7.7,0,1,0-.7-.7A.7.7,0,0,0,23.5,27.836ZM43.842,39.309a3.486,3.486,0,0,0,.7-2.1V33.777A2.342,2.342,0,0,0,42.2,31.438h-2.33a2.342,2.342,0,0,0-2.339,2.339v3.435a3.486,3.486,0,0,0,.7,2.1,5.994,5.994,0,0,0-1.411,1.045,5.922,5.922,0,0,0-1.748,4.218A2.431,2.431,0,0,0,37.5,47h7.073A2.428,2.428,0,0,0,47,44.572a5.925,5.925,0,0,0-1.747-4.217A6,6,0,0,0,43.842,39.309Zm-4.933-5.531a.963.963,0,0,1,.962-.962H42.2a.963.963,0,0,1,.962.962v.85a3.657,3.657,0,0,0-2.772-.19l-1.482.488V33.777Zm0,2.6,1.913-.63a2.3,2.3,0,0,1,2.013.278l.328.221v.969a2.127,2.127,0,0,1-4.254,0Zm6.407,8.94a1.045,1.045,0,0,1-.743.308H37.5a1.052,1.052,0,0,1-1.051-1.051,4.555,4.555,0,0,1,1.344-3.244A4.612,4.612,0,0,1,39.373,40.3a3.5,3.5,0,0,0,3.325,0,4.612,4.612,0,0,1,1.581,1.032,4.557,4.557,0,0,1,1.343,3.244A1.045,1.045,0,0,1,45.315,45.315ZM1.175,19.73l1.007-1.007A6.53,6.53,0,0,0,8.7,25.116a.688.688,0,1,0,0-1.377,5.152,5.152,0,0,1-5.143-5.008l1,1a.688.688,0,1,0,.974-.974L3.356,16.58a.688.688,0,0,0-.977,0L.2,18.757a.688.688,0,0,0,.974.974ZM23.5,10.378A13.122,13.122,0,0,0,10.38,23.247a.688.688,0,0,0,1.377.026,11.716,11.716,0,1,1,.281,2.8.688.688,0,1,0-1.344.3,13.123,13.123,0,1,0,12.806-16ZM8.77,39.309a3.486,3.486,0,0,0,.7-2.1V33.777a2.342,2.342,0,0,0-2.339-2.339H4.8A2.342,2.342,0,0,0,2.46,33.777v3.435a3.486,3.486,0,0,0,.7,2.1,6,6,0,0,0-1.412,1.046A5.926,5.926,0,0,0,0,44.572,2.431,2.431,0,0,0,2.428,47H9.5a2.428,2.428,0,0,0,2.428-2.428,5.921,5.921,0,0,0-1.748-4.217A5.994,5.994,0,0,0,8.77,39.309ZM3.837,33.777a.963.963,0,0,1,.962-.962h2.33a.963.963,0,0,1,.962.962v.85a3.657,3.657,0,0,0-2.772-.19l-1.482.488V33.777Zm0,2.6,1.913-.63a2.3,2.3,0,0,1,2.013.278l.328.221v.969a2.127,2.127,0,1,1-4.254,0Zm6.407,8.94a1.044,1.044,0,0,1-.743.308H2.428a1.052,1.052,0,0,1-1.051-1.051A4.557,4.557,0,0,1,2.72,41.328,4.612,4.612,0,0,1,4.3,40.3a3.5,3.5,0,0,0,3.325,0,4.613,4.613,0,0,1,1.581,1.032,4.554,4.554,0,0,1,1.344,3.244A1.044,1.044,0,0,1,10.244,45.315ZM23.3,37.609a.688.688,0,0,0-.688.688A5.152,5.152,0,0,1,17.6,43.441l1-1a.688.688,0,0,0-.974-.974L15.45,43.644a.688.688,0,0,0,0,.977L17.627,46.8a.688.688,0,0,0,.974-.974l-1.007-1.007a6.53,6.53,0,0,0,6.392-6.52A.689.689,0,0,0,23.3,37.609Z" fill="#0081d2"/>
</svg>
