<svg xmlns="http://www.w3.org/2000/svg" width="47" height="47" viewBox="0 0 47 47">
  <g id="XMLID_1631_" transform="translate(0)">
    <g id="XMLID_321_" transform="translate(0 0)">
      <path id="XMLID_347_" d="M42.41,0H26.552a.918.918,0,0,0-.918.918V8.394a.918.918,0,0,0,1.609.6,2.563,2.563,0,1,1,0,3.37.918.918,0,0,0-1.609.6v.241a4.4,4.4,0,0,0-4.267-.485V7.021a.918.918,0,0,0-.918-.918H4.59A4.6,4.6,0,0,0,0,10.693V42.41A4.6,4.6,0,0,0,4.59,47H36.307a4.6,4.6,0,0,0,4.59-4.59V40.448a.918.918,0,1,0-1.836,0V42.41a2.757,2.757,0,0,1-2.754,2.754H21.366V38.606a.918.918,0,0,0-1.609-.6,2.563,2.563,0,1,1,0-3.37.918.918,0,0,0,1.609-.6V27.47h4.792a4.4,4.4,0,1,0,8.114,0h4.789v4.716a.918.918,0,0,0,1.836,0V26.552a.918.918,0,0,0-.918-.918H39.89a4.392,4.392,0,0,0,.482-4.267h5.71A.918.918,0,0,0,47,20.449V4.59A4.6,4.6,0,0,0,42.41,0ZM1.836,10.693A2.757,2.757,0,0,1,4.59,7.939H19.53V14.5a.918.918,0,0,0,1.609.6,2.563,2.563,0,1,1,0,3.37.918.918,0,0,0-1.609.6v6.558H14.738a4.4,4.4,0,1,0-8.114,0H1.836ZM17.56,31.925a4.4,4.4,0,1,0,1.97,8.447v4.792H4.59A2.757,2.757,0,0,1,1.836,42.41V27.47H8.394A.918.918,0,0,0,9,25.86a2.563,2.563,0,1,1,3.37,0,.918.918,0,0,0,.6,1.609H19.53v4.789a4.4,4.4,0,0,0-1.97-.333ZM31.9,27.243a2.563,2.563,0,1,1-3.37,0,.918.918,0,0,0-.6-1.609H21.366V20.842a4.392,4.392,0,0,0,4.267-.482v.088a.918.918,0,0,0,.918.918h5.707a4.4,4.4,0,0,0,.485,4.267H32.5a.918.918,0,0,0-.6,1.609ZM45.164,19.53H38.606A.918.918,0,0,0,38,21.14a2.563,2.563,0,1,1-3.37,0,.918.918,0,0,0-.6-1.609H27.47V14.738a4.4,4.4,0,1,0,0-8.114V1.836H42.41A2.757,2.757,0,0,1,45.164,4.59Z" transform="translate(0 0)" fill="#0081d2"/>
      <path id="XMLID_351_" d="M426.428,385.62a.918.918,0,1,0,.649.269A.925.925,0,0,0,426.428,385.62Z" transform="translate(-386.45 -350.221)" fill="#0081d2"/>
    </g>
  </g>
</svg>
