<svg xmlns="http://www.w3.org/2000/svg" width="48" height="50.854" viewBox="0 0 48 50.854">
  <g id="icon" transform="translate(-139.5 -2583.646)">
    <path id="Path_869" data-name="Path 869" d="M42.733,14.8a5.508,5.508,0,1,0-7.989,0,8.319,8.319,0,0,0-2.35,1.944,9.739,9.739,0,0,0-4.382-4.629,6.8,6.8,0,0,0,2.465-5.232,6.977,6.977,0,0,0-13.953,0,6.8,6.8,0,0,0,2.465,5.232,9.738,9.738,0,0,0-4.382,4.629,8.321,8.321,0,0,0-2.35-1.944,5.508,5.508,0,1,0-7.989,0A8.268,8.268,0,0,0,0,22.031v1.377A23.622,23.622,0,0,0,23.5,47,23.629,23.629,0,0,0,47,23.408V22.031A8.268,8.268,0,0,0,42.733,14.8Zm-3.995-6.54a2.754,2.754,0,1,1-2.754,2.754A2.757,2.757,0,0,1,38.738,8.262Zm-5.53,16.514a38.607,38.607,0,0,1-1.155,8.363H24.877V24.776ZM23.5,2.754a4.233,4.233,0,0,1,4.223,4.131,4.224,4.224,0,0,1-8.445,0A4.233,4.233,0,0,1,23.5,2.754ZM8.262,8.262a2.754,2.754,0,1,1-2.754,2.754A2.757,2.757,0,0,1,8.262,8.262Zm0,8.262a5.514,5.514,0,0,1,5.508,5.508H2.754A5.514,5.514,0,0,1,8.262,16.523ZM2.8,24.785h8.237a41.827,41.827,0,0,0,1.075,8.354H5.16A20.753,20.753,0,0,1,2.8,24.785ZM6.9,35.893h5.986a23.557,23.557,0,0,0,3.627,7.136A20.848,20.848,0,0,1,6.9,35.893ZM22.123,44.01c-3.081-1.046-5.21-5.054-6.325-8.117h6.325Zm0-10.871H14.947a38.521,38.521,0,0,1-1.155-8.354h8.331Zm-5.6-11.107V20.654a6.977,6.977,0,0,1,13.953,0v1.377ZM24.877,44.01V35.883H31.2C30.087,38.947,27.956,42.964,24.877,44.01Zm5.61-.981a23.607,23.607,0,0,0,3.627-7.145H40.1A20.867,20.867,0,0,1,30.487,43.029Zm11.354-9.89H34.888a41.92,41.92,0,0,0,1.075-8.363H44.2A20.8,20.8,0,0,1,41.84,33.139ZM33.23,22.031a5.508,5.508,0,0,1,11.016,0Z" transform="translate(140 2587)" fill="#0081d2" stroke="#fff" stroke-width="1"/>
    <path id="Path_871" data-name="Path 871" d="M8.736,5.969v6.26H7.708V5.969L4.949,8.727,4.222,8l4-4,4,4-.727.727Z" transform="translate(165 2580)" fill="#0081d2" stroke="#0081d2" stroke-width="0.5"/>
    <path id="Path_872" data-name="Path 872" d="M8.736,5.969v6.26H7.708V5.969L4.949,8.727,4.222,8l4-4,4,4-.727.727Z" transform="translate(145 2580)" fill="#0081d2" stroke="#0081d2" stroke-width="0.5"/>
  </g>
</svg>
