<svg xmlns="http://www.w3.org/2000/svg" width="47.01" height="47" viewBox="0 0 47.01 47">
  <g id="love" transform="translate(0 -0.054)">
    <g id="Group_300" data-name="Group 300" transform="translate(11.659 11.714)">
      <g id="Group_299" data-name="Group 299">
        <path id="Path_776" data-name="Path 776" d="M138.827,127.043a11.843,11.843,0,1,0,11.843,11.843A11.857,11.857,0,0,0,138.827,127.043Zm0,21.851a10.007,10.007,0,1,1,10.007-10.007A10.018,10.018,0,0,1,138.827,148.894Z" transform="translate(-126.984 -127.043)" fill="#0081d2"/>
      </g>
    </g>
    <g id="Group_302" data-name="Group 302" transform="translate(15.791 17.683)">
      <g id="Group_301" data-name="Group 301">
        <path id="Path_777" data-name="Path 777" d="M182.552,192.056a4.783,4.783,0,0,0-2.859.959,4.782,4.782,0,0,0-2.859-.959,4.93,4.93,0,0,0-4.853,4.993c0,1.861,1.255,3.839,3.731,5.878a25.046,25.046,0,0,0,3.542,2.422.918.918,0,0,0,.878,0,25.046,25.046,0,0,0,3.542-2.422c2.476-2.04,3.731-4.018,3.731-5.878A4.931,4.931,0,0,0,182.552,192.056Zm-2.859,11.431c-1.975-1.167-5.876-3.979-5.876-6.438a3.093,3.093,0,0,1,3.017-3.157,2.929,2.929,0,0,1,2.181.976.918.918,0,0,0,1.355,0,2.93,2.93,0,0,1,2.181-.976,3.093,3.093,0,0,1,3.017,3.157C185.569,199.508,181.668,202.32,179.693,203.487Z" transform="translate(-171.981 -192.056)" fill="#0081d2"/>
      </g>
    </g>
    <g id="Group_304" data-name="Group 304" transform="translate(5.965 6.017)">
      <g id="Group_303" data-name="Group 303">
        <path id="Path_778" data-name="Path 778" d="M82.368,65h-.007A17.547,17.547,0,0,0,65.7,87.582a.918.918,0,1,0,1.758-.53A15.711,15.711,0,0,1,82.374,66.833.918.918,0,0,0,82.368,65Z" transform="translate(-64.967 -64.997)" fill="#0081d2"/>
      </g>
    </g>
    <g id="Group_306" data-name="Group 306" transform="translate(22.239 18.323)">
      <g id="Group_305" data-name="Group 305">
        <path id="Path_779" data-name="Path 779" d="M260.414,199.706a.918.918,0,1,0-1.773.478,15.711,15.711,0,0,1-15.155,19.782c-.112,0-.225,0-.337,0h-.02a.918.918,0,0,0-.02,1.836c.125,0,.249,0,.374,0a17.547,17.547,0,0,0,16.93-22.1Z" transform="translate(-242.212 -199.027)" fill="#0081d2"/>
      </g>
    </g>
    <g id="Group_308" data-name="Group 308" transform="translate(1.828 27.472)">
      <g id="Group_307" data-name="Group 307">
        <path id="Path_780" data-name="Path 780" d="M21.721,299.394l0-.007a.918.918,0,1,0-1.79.407l0,.016a.918.918,0,0,0,1.788-.416Z" transform="translate(-19.906 -298.672)" fill="#0081d2"/>
      </g>
    </g>
    <g id="Group_310" data-name="Group 310" transform="translate(1.275 1.33)">
      <g id="Group_309" data-name="Group 309">
        <path id="Path_781" data-name="Path 781" d="M36.086,13.949h0a22.228,22.228,0,0,0-22.2,22.227c0,.524.019,1.056.056,1.58a.918.918,0,0,0,.915.853l.066,0a.918.918,0,0,0,.851-.981c-.034-.481-.051-.969-.051-1.45A20.392,20.392,0,0,1,36.087,15.785a.918.918,0,0,0,0-1.836Z" transform="translate(-13.889 -13.949)" fill="#0081d2"/>
      </g>
    </g>
    <g id="Group_312" data-name="Group 312" transform="translate(43.338 17.794)">
      <g id="Group_311" data-name="Group 311">
        <path id="Path_782" data-name="Path 782" d="M473.826,193.989l0-.016a.918.918,0,0,0-1.788.416l0,.007a.918.918,0,0,0,1.79-.407Z" transform="translate(-472.01 -193.262)" fill="#0081d2"/>
      </g>
    </g>
    <g id="Group_314" data-name="Group 314" transform="translate(22.615 21.124)">
      <g id="Group_313" data-name="Group 313">
        <path id="Path_783" data-name="Path 783" d="M269.363,230.385a.918.918,0,1,0-1.832.13c.034.481.051.969.051,1.45a20.392,20.392,0,0,1-20.362,20.391.918.918,0,0,0,0,1.836h0a22.228,22.228,0,0,0,22.2-22.227C269.419,231.44,269.4,230.909,269.363,230.385Z" transform="translate(-246.304 -229.531)" fill="#0081d2"/>
      </g>
    </g>
    <g id="Group_316" data-name="Group 316" transform="translate(0 30.529)">
      <g id="Group_315" data-name="Group 315">
        <path id="Path_784" data-name="Path 784" d="M8.263,331.967a8.262,8.262,0,1,0,8.262,8.262A8.272,8.272,0,0,0,8.263,331.967Zm0,14.689a6.4,6.4,0,0,1-4.313-1.666v-.109a1.367,1.367,0,0,1,1.115-1.343l.95-.177a3.844,3.844,0,0,0,4.494,0l.95.177a1.367,1.367,0,0,1,1.115,1.343v.11h0A6.4,6.4,0,0,1,8.263,346.656Zm-2.02-6.426a2.02,2.02,0,1,1,2.02,2.02A2.022,2.022,0,0,1,6.242,340.229Zm7.7,2.993a3.2,3.2,0,0,0-2.135-1.486,3.856,3.856,0,1,0-7.1,0,3.2,3.2,0,0,0-2.135,1.486,6.425,6.425,0,1,1,12.111-2.992A6.386,6.386,0,0,1,13.947,343.222Z" transform="translate(0 -331.967)" fill="#0081d2"/>
      </g>
    </g>
    <g id="Group_318" data-name="Group 318" transform="translate(30.485 0.054)">
      <g id="Group_317" data-name="Group 317" transform="translate(0 0)">
        <path id="Path_785" data-name="Path 785" d="M340.284.054a8.262,8.262,0,1,0,8.262,8.262A8.272,8.272,0,0,0,340.284.054Zm0,14.689a6.4,6.4,0,0,1-4.313-1.666v-.109a1.367,1.367,0,0,1,1.115-1.343l.95-.177a3.844,3.844,0,0,0,4.494,0l.95.177a1.367,1.367,0,0,1,1.115,1.343v.11h0A6.4,6.4,0,0,1,340.284,14.743Zm-2.02-6.426a2.02,2.02,0,1,1,2.02,2.02A2.022,2.022,0,0,1,338.264,8.316Zm7.7,2.992a3.2,3.2,0,0,0-2.135-1.486,3.856,3.856,0,1,0-7.1,0,3.2,3.2,0,0,0-2.135,1.486,6.426,6.426,0,1,1,11.369,0Z" transform="translate(-332.021 -0.054)" fill="#0081d2"/>
      </g>
    </g>
  </g>
</svg>
