<svg xmlns="http://www.w3.org/2000/svg" width="42.5" height="60" viewBox="0 0 42.5 60">
  <g id="lock" transform="translate(-74.666)">
    <g id="Group_179" data-name="Group 179" transform="translate(74.666)">
      <g id="Group_178" data-name="Group 178">
        <path id="Path_753" data-name="Path 753" d="M112.166,25.127V16.25a16.25,16.25,0,0,0-32.5,0v8.878a6.26,6.26,0,0,0-5,6.122v22.5A6.257,6.257,0,0,0,80.916,60h30a6.257,6.257,0,0,0,6.25-6.25V31.25A6.258,6.258,0,0,0,112.166,25.127Zm-30-8.877a13.75,13.75,0,0,1,27.5,0V25h-2.5V16.25a11.25,11.25,0,1,0-22.5,0V25h-2.5Zm22.5,0V25h-17.5V16.25a8.75,8.75,0,1,1,17.5,0Zm10,37.5a3.755,3.755,0,0,1-3.75,3.75h-30a3.755,3.755,0,0,1-3.75-3.75V31.25a3.755,3.755,0,0,1,3.75-3.75h30a3.755,3.755,0,0,1,3.75,3.75Z" transform="translate(-74.666)" fill="#0081d2"/>
        <path id="Path_754" data-name="Path 754" d="M208.917,277.333a6.235,6.235,0,0,0-2.772,11.827l-.965,6.748a1.247,1.247,0,0,0,1.237,1.425h5a1.257,1.257,0,0,0,.945-.433,1.24,1.24,0,0,0,.293-1l-.965-6.748a6.234,6.234,0,0,0-2.773-11.825Zm1.045,9.828a1.253,1.253,0,0,0-.885,1.378l.9,6.295h-2.12l.9-6.295a1.25,1.25,0,0,0-.885-1.378,3.711,3.711,0,0,1-2.7-3.578,3.75,3.75,0,0,1,7.5,0A3.711,3.711,0,0,1,209.962,287.161Z" transform="translate(-187.667 -244.833)" fill="#0081d2"/>
      </g>
    </g>
  </g>
</svg>
