<svg id="analytics" xmlns="http://www.w3.org/2000/svg" width="60" height="60" viewBox="0 0 60 60">
  <g id="Group_181" data-name="Group 181" transform="translate(0 57.5)">
    <g id="Group_180" data-name="Group 180">
      <path id="Path_755" data-name="Path 755" d="M58.75,490.667H1.25a1.25,1.25,0,1,0,0,2.5h57.5a1.25,1.25,0,1,0,0-2.5Z" transform="translate(0 -490.667)" fill="#0081d2"/>
    </g>
  </g>
  <g id="Group_183" data-name="Group 183" transform="translate(2.5 42.5)">
    <g id="Group_182" data-name="Group 182">
      <path id="Path_756" data-name="Path 756" d="M30.083,362.667h-7.5a1.251,1.251,0,0,0-1.25,1.25v15a1.25,1.25,0,0,0,1.25,1.25h7.5a1.251,1.251,0,0,0,1.25-1.25v-15A1.25,1.25,0,0,0,30.083,362.667Zm-1.25,15h-5v-12.5h5v12.5Z" transform="translate(-21.333 -362.667)" fill="#0081d2"/>
    </g>
  </g>
  <g id="Group_185" data-name="Group 185" transform="translate(17.5 30)">
    <g id="Group_184" data-name="Group 184">
      <path id="Path_757" data-name="Path 757" d="M158.083,256h-7.5a1.251,1.251,0,0,0-1.25,1.25v27.5a1.251,1.251,0,0,0,1.25,1.25h7.5a1.251,1.251,0,0,0,1.25-1.25v-27.5A1.251,1.251,0,0,0,158.083,256Zm-1.25,27.5h-5v-25h5Z" transform="translate(-149.333 -256)" fill="#0081d2"/>
    </g>
  </g>
  <g id="Group_187" data-name="Group 187" transform="translate(32.5 35)">
    <g id="Group_186" data-name="Group 186">
      <path id="Path_758" data-name="Path 758" d="M286.083,298.667h-7.5a1.251,1.251,0,0,0-1.25,1.25v22.5a1.251,1.251,0,0,0,1.25,1.25h7.5a1.251,1.251,0,0,0,1.25-1.25v-22.5A1.25,1.25,0,0,0,286.083,298.667Zm-1.25,22.5h-5v-20h5Z" transform="translate(-277.333 -298.667)" fill="#0081d2"/>
    </g>
  </g>
  <g id="Group_189" data-name="Group 189" transform="translate(47.5 20)">
    <g id="Group_188" data-name="Group 188">
      <path id="Path_759" data-name="Path 759" d="M414.083,170.667h-7.5a1.251,1.251,0,0,0-1.25,1.25v37.5a1.251,1.251,0,0,0,1.25,1.25h7.5a1.251,1.251,0,0,0,1.25-1.25v-37.5A1.25,1.25,0,0,0,414.083,170.667Zm-1.25,37.5h-5v-35h5Z" transform="translate(-405.333 -170.667)" fill="#0081d2"/>
    </g>
  </g>
  <g id="Group_191" data-name="Group 191" transform="translate(2.5 22.5)">
    <g id="Group_190" data-name="Group 190">
      <path id="Path_760" data-name="Path 760" d="M26.333,192a5,5,0,1,0,5,5A5.005,5.005,0,0,0,26.333,192Zm0,7.5a2.5,2.5,0,1,1,2.5-2.5A2.5,2.5,0,0,1,26.333,199.5Z" transform="translate(-21.333 -192)" fill="#0081d2"/>
    </g>
  </g>
  <g id="Group_193" data-name="Group 193" transform="translate(17.5 10)">
    <g id="Group_192" data-name="Group 192">
      <path id="Path_761" data-name="Path 761" d="M154.333,85.333a5,5,0,1,0,5,5A5.005,5.005,0,0,0,154.333,85.333Zm0,7.5a2.5,2.5,0,1,1,2.5-2.5A2.5,2.5,0,0,1,154.333,92.833Z" transform="translate(-149.333 -85.333)" fill="#0081d2"/>
    </g>
  </g>
  <g id="Group_195" data-name="Group 195" transform="translate(32.5 15)">
    <g id="Group_194" data-name="Group 194">
      <path id="Path_762" data-name="Path 762" d="M282.333,128a5,5,0,1,0,5,5A5.005,5.005,0,0,0,282.333,128Zm0,7.5a2.5,2.5,0,1,1,2.5-2.5A2.5,2.5,0,0,1,282.333,135.5Z" transform="translate(-277.333 -128)" fill="#0081d2"/>
    </g>
  </g>
  <g id="Group_197" data-name="Group 197" transform="translate(47.5)">
    <g id="Group_196" data-name="Group 196">
      <path id="Path_763" data-name="Path 763" d="M410.333,0a5,5,0,1,0,5,5A5.005,5.005,0,0,0,410.333,0Zm0,7.5a2.5,2.5,0,1,1,2.5-2.5A2.5,2.5,0,0,1,410.333,7.5Z" transform="translate(-405.333)" fill="#0081d2"/>
    </g>
  </g>
  <g id="Group_199" data-name="Group 199" transform="translate(38.902 6.399)">
    <g id="Group_198" data-name="Group 198">
      <path id="Path_764" data-name="Path 764" d="M343.8,54.974a1.251,1.251,0,0,0-1.768,0l-9.7,9.7a1.25,1.25,0,0,0,1.768,1.768l9.7-9.7A1.251,1.251,0,0,0,343.8,54.974Z" transform="translate(-331.963 -54.608)" fill="#0081d2"/>
    </g>
  </g>
  <g id="Group_201" data-name="Group 201" transform="translate(24.856 14.775)">
    <g id="Group_200" data-name="Group 200">
      <path id="Path_765" data-name="Path 765" d="M221.729,128.418l-8.03-2.29a1.25,1.25,0,0,0-.685,2.405l8.03,2.29a1.25,1.25,0,0,0,.685-2.405Z" transform="translate(-212.108 -126.078)" fill="#0081d2"/>
    </g>
  </g>
  <g id="Group_203" data-name="Group 203" transform="translate(8.899 16.087)">
    <g id="Group_202" data-name="Group 202">
      <path id="Path_766" data-name="Path 766" d="M87.586,137.744a1.251,1.251,0,0,0-1.755-.2l-9.425,7.515a1.25,1.25,0,0,0,.78,2.227,1.262,1.262,0,0,0,.778-.27l9.425-7.515A1.249,1.249,0,0,0,87.586,137.744Z" transform="translate(-75.935 -137.273)" fill="#0081d2"/>
    </g>
  </g>
</svg>
