<svg xmlns="http://www.w3.org/2000/svg" width="60" height="47.763" viewBox="0 0 60 47.763">
  <g id="speak" transform="translate(0 4)">
    <path id="Path_741" data-name="Path 741" d="M58.828,15.069a1.172,1.172,0,0,0-1.172,1.172v4.176a4.352,4.352,0,0,1-4.347,4.347H46.63a1.172,1.172,0,0,0-.829.343l-8.1,8.1V25.936a1.172,1.172,0,0,0-1.172-1.172H19.753a4.352,4.352,0,0,1-4.347-4.347V2.69a4.351,4.351,0,0,1,4.347-4.346H53.31A4.351,4.351,0,0,1,57.656,2.69V6.866a1.172,1.172,0,0,0,2.344,0V2.69A6.7,6.7,0,0,0,53.31-4H19.753a6.7,6.7,0,0,0-6.69,6.69V17.745H4.533A4.538,4.538,0,0,0,0,22.279v10.8a4.538,4.538,0,0,0,4.533,4.533H8.117l5.808,5.808a1.172,1.172,0,0,0,2-.828v-4.98h9.049a4.538,4.538,0,0,0,4.533-4.533v-5.97h5.851v8.926a1.172,1.172,0,0,0,2,.828l9.755-9.755H53.31A6.7,6.7,0,0,0,60,20.417V16.241A1.172,1.172,0,0,0,58.828,15.069ZM27.166,33.077a2.192,2.192,0,0,1-2.19,2.19H14.755a1.172,1.172,0,0,0-1.172,1.172v3.323L9.431,35.61a1.172,1.172,0,0,0-.829-.344H4.533a2.192,2.192,0,0,1-2.19-2.19v-10.8a2.192,2.192,0,0,1,2.19-2.19h8.529v.328a6.7,6.7,0,0,0,6.69,6.69h7.412Zm0,0" fill="#0081d2"/>
    <path id="Path_742" data-name="Path 742" d="M279.316,77.914H256.465a1.172,1.172,0,0,0,0,2.344h22.852a1.172,1.172,0,0,0,0-2.344Zm0,0" transform="translate(-231.359 -74.235)" fill="#0081d2"/>
    <path id="Path_743" data-name="Path 743" d="M280.488,146.59a1.172,1.172,0,0,0-1.172-1.172H256.465a1.172,1.172,0,0,0,0,2.344h22.852A1.172,1.172,0,0,0,280.488,146.59Zm0,0" transform="translate(-231.359 -135.41)" fill="#0081d2"/>
    <path id="Path_744" data-name="Path 744" d="M256.465,212.918a1.172,1.172,0,0,0,0,2.344h13.184a1.172,1.172,0,0,0,0-2.344Zm0,0" transform="translate(-231.359 -196.582)" fill="#0081d2"/>
    <path id="Path_745" data-name="Path 745" d="M616.172,149.4a1.172,1.172,0,1,0,1.172,1.172A1.174,1.174,0,0,0,616.172,149.4Zm0,0" transform="translate(-557.344 -139.021)" fill="#0081d2"/>
  </g>
</svg>
