<svg xmlns="http://www.w3.org/2000/svg" width="60" height="60" viewBox="0 0 60 60">
  <g id="brain" transform="translate(0 -0.001)">
    <g id="Group_248" data-name="Group 248" transform="translate(11.274 0.001)">
      <g id="Group_247" data-name="Group 247" transform="translate(0 0)">
        <path id="Path_819" data-name="Path 819" d="M144.053,29.122H129.9v-2h3.818a.879.879,0,0,0,0-1.758H129.9v-2h2.651a3.673,3.673,0,0,0,2.614-1.083l5.78-5.78a2.756,2.756,0,1,0-1.243-1.243l-5.78,5.78a1.927,1.927,0,0,1-1.371.568H129.9V19.668a4.642,4.642,0,0,0-4.636-4.636h-1.939V7.251a2.758,2.758,0,1,0-1.758,0v7.781h-2V11.213a.879.879,0,1,0-1.758,0v3.818h-2V.88a.879.879,0,1,0-1.758,0V15.031h-2V11.213a.879.879,0,0,0-1.758,0v3.818h-2V12.381a3.673,3.673,0,0,0-1.083-2.614L101.43,3.984a2.759,2.759,0,1,0-1.243,1.243l5.782,5.783a1.926,1.926,0,0,1,.568,1.371v2.651H104.6a4.656,4.656,0,0,0-1.159.146.879.879,0,0,0,.438,1.7,2.9,2.9,0,0,1,.72-.091h20.666a2.882,2.882,0,0,1,2.879,2.879V40.334a2.9,2.9,0,0,1-.09.72.879.879,0,1,0,1.7.438,4.651,4.651,0,0,0,.146-1.158V38.395h7.781a2.758,2.758,0,1,0,0-1.758H129.9v-2h3.818a.879.879,0,0,0,0-1.758H129.9v-2h14.151a.879.879,0,0,0,0-1.758Zm-2.586-15.8a1,1,0,1,1-.293.707A.993.993,0,0,1,141.467,13.324Zm-41.8-9.859a1,1,0,1,1,0-1.414A1,1,0,0,1,99.669,3.466Zm22.778,2.171a1,1,0,1,1,1-1A1,1,0,0,1,122.447,5.637ZM140.3,36.516a1,1,0,1,1-1,1A1,1,0,0,1,140.3,36.516Z" transform="translate(-96.206 -0.001)" fill="#0081d2"/>
      </g>
    </g>
    <g id="Group_250" data-name="Group 250" transform="translate(0 17.849)">
      <g id="Group_249" data-name="Group 249">
        <path id="Path_820" data-name="Path 820" d="M47.92,189.75a2.761,2.761,0,0,0-3.175-.518l-5.782-5.783a1.926,1.926,0,0,1-.568-1.371v-2.651h1.939a4.654,4.654,0,0,0,1.159-.146.879.879,0,0,0-.438-1.7,2.893,2.893,0,0,1-.72.091H19.667a2.882,2.882,0,0,1-2.879-2.879V154.125a2.891,2.891,0,0,1,.091-.72.879.879,0,0,0-1.7-.438,4.647,4.647,0,0,0-.146,1.159v1.939H7.25a2.758,2.758,0,1,0,0,1.758H15.03v2H11.212a.879.879,0,0,0,0,1.758H15.03v2H.879a.879.879,0,1,0,0,1.758H15.03v2H11.212a.879.879,0,0,0,0,1.758H15.03v2H12.379a3.673,3.673,0,0,0-2.614,1.083l-5.78,5.78A2.755,2.755,0,1,0,5.228,179.2l5.78-5.78a1.927,1.927,0,0,1,1.371-.568h2.651v1.939a4.642,4.642,0,0,0,4.636,4.636h1.939v7.781a2.758,2.758,0,1,0,1.758,0v-7.781h2v3.818a.879.879,0,0,0,1.758,0v-3.818h2v14.152a.879.879,0,0,0,1.758,0V179.428h2v3.818a.879.879,0,0,0,1.758,0v-3.818h2v2.651a3.673,3.673,0,0,0,1.083,2.614l5.782,5.782a2.757,2.757,0,1,0,4.418-.725ZM4.636,157.943a1,1,0,1,1,1-1A1,1,0,0,1,4.636,157.943ZM3.465,181.135a1,1,0,1,1,.293-.707A.993.993,0,0,1,3.465,181.135Zm20.02,8.687a1,1,0,1,1-1-1A1,1,0,0,1,23.485,189.822Zm23.192,2.586a1,1,0,1,1,0-1.414A1,1,0,0,1,46.677,192.407Z" transform="translate(0 -152.306)" fill="#0081d2"/>
      </g>
    </g>
    <g id="Group_252" data-name="Group 252" transform="translate(20.667 19.728)">
      <g id="Group_251" data-name="Group 251">
        <path id="Path_821" data-name="Path 821" d="M195.024,176.264a4.245,4.245,0,0,0-3.257-3.989,3,3,0,0,0,.087-.708,3.388,3.388,0,0,0-3.521-3.227,3.656,3.656,0,0,0-2.642,1.1,3.656,3.656,0,0,0-2.642-1.1,3.388,3.388,0,0,0-3.521,3.227,3,3,0,0,0,.087.708,4.245,4.245,0,0,0-3.257,3.989,3.86,3.86,0,0,0,.926,2.5,4.346,4.346,0,0,0-.926,2.666,4.526,4.526,0,0,0,2.113,3.755v0a3.89,3.89,0,0,0,4.049,3.7,4.193,4.193,0,0,0,3.17-1.4,4.193,4.193,0,0,0,3.17,1.4,3.917,3.917,0,0,0,4.041-3.469,4.108,4.108,0,0,0,2.122-3.516,3.962,3.962,0,0,0-1.222-2.818A3.962,3.962,0,0,0,195.024,176.264Zm-3.111,3.6a2.345,2.345,0,0,1,1.352,2.041,2.248,2.248,0,0,1-.774,1.652,3.946,3.946,0,0,0-2.311-1.861.879.879,0,0,0-.527,1.677,1.994,1.994,0,0,1,1.5,1.819,2.324,2.324,0,0,1-4.583,0v-5.636a2.14,2.14,0,0,1,2.291-1.939.879.879,0,0,0,0-1.758,4.3,4.3,0,0,0-2.291.651v-1.123a.879.879,0,0,0-1.758,0v4.879a4.187,4.187,0,0,0-.971-.45.879.879,0,0,0-.527,1.677,1.994,1.994,0,0,1,1.5,1.819v1.879a2.324,2.324,0,0,1-4.583,0,1.772,1.772,0,0,1,.547-1.254.879.879,0,0,0-1.239-1.247,3.739,3.739,0,0,0-.543.681,2.681,2.681,0,0,1-.879-1.938,2.993,2.993,0,0,1,2.485-2.782.879.879,0,0,0-.393-1.713,5.354,5.354,0,0,0-1.612.657,2.121,2.121,0,0,1-.48-1.328,2.639,2.639,0,0,1,2.8-2.408h.023a.878.878,0,0,0,.746-1.341c-.007-.011-.013-.022-.02-.032l-.012-.016c-.014-.019-.028-.038-.043-.056v0a1.3,1.3,0,0,1-.322-.843,1.792,1.792,0,0,1,3.526,0,.879.879,0,0,0,1.758,0,1.792,1.792,0,0,1,3.526,0,1.236,1.236,0,0,1-.132.553,4.881,4.881,0,0,0-1.442.362.879.879,0,0,0,.683,1.62,3.173,3.173,0,0,1,1.215-.246h.049a2.638,2.638,0,0,1,2.8,2.408,2.345,2.345,0,0,1-1.352,2.041.879.879,0,0,0,0,1.555Z" transform="translate(-176.357 -168.34)" fill="#0081d2"/>
      </g>
    </g>
  </g>
</svg>
