<svg xmlns="http://www.w3.org/2000/svg" width="53.906" height="60" viewBox="0 0 53.906 60">
  <g id="support" transform="translate(-26)">
    <g id="Group_173" data-name="Group 173" transform="translate(64.672 46.406)">
      <g id="Group_172" data-name="Group 172">
        <path id="Path_746" data-name="Path 746" d="M357.172,396a1.172,1.172,0,1,0,1.172,1.172A1.172,1.172,0,0,0,357.172,396Z" transform="translate(-356 -396)" fill="#0081d2"/>
      </g>
    </g>
    <g id="Group_175" data-name="Group 175" transform="translate(26)">
      <g id="Group_174" data-name="Group 174">
        <path id="Path_747" data-name="Path 747" d="M68.729,42.617l-5.57-1.856-2-4a12.835,12.835,0,0,0,3.474-6.79l.249-1.495h2.133a3.52,3.52,0,0,0,3.516-3.516V17.578a17.578,17.578,0,0,0-35.156,0v7.383a3.521,3.521,0,0,0,2.344,3.314v1.373a3.52,3.52,0,0,0,3.516,3.516h1.029a12.713,12.713,0,0,0,1.966,3.044c.166.191.339.376.516.556l-2,4-5.57,1.856C30.7,44.776,26,51.594,26,58.828A1.172,1.172,0,0,0,27.172,60H78.734a1.172,1.172,0,0,0,1.172-1.172C79.906,51.594,75.206,44.776,68.729,42.617Zm-.542-17.656a1.173,1.173,0,0,1-1.172,1.172H65.227c.3-2.307.5-4.763.576-7.181,0-.068,0-.135.006-.2h2.378Zm-29.3,1.172a1.173,1.173,0,0,1-1.172-1.172V18.75H40.1q.006.183.013.369s0,.008,0,.013h0c.082,2.352.278,4.744.569,7H38.891Zm2.344,4.688a1.173,1.173,0,0,1-1.172-1.172V28.477h.961l.249,1.5c.048.284.106.567.174.849Zm-1.17-14.414h-2.3a15.235,15.235,0,0,1,30.38,0h-2.3A11.869,11.869,0,0,0,54,4.688H51.9A11.869,11.869,0,0,0,40.064,16.406ZM51.9,7.031H54a9.529,9.529,0,0,1,9.5,9.54c0,.369,0,.69-.009.982,0,0,0,.008,0,.011l-1.466-.209a18.83,18.83,0,0,1-10.587-5.294,1.172,1.172,0,0,0-.829-.343,10.6,10.6,0,0,0-8.151,3.856A9.526,9.526,0,0,1,51.9,7.031ZM43.876,30.82A66.983,66.983,0,0,1,42.47,19.447l1.577-2.1a8.249,8.249,0,0,1,6.1-3.268,21.2,21.2,0,0,0,11.547,5.6l1.725.247c-.115,2.447-.351,4.9-.689,7.162v0c-.107.726-.192,1.194-.408,2.5a9.954,9.954,0,0,1-7.065,8.005,9.22,9.22,0,0,1-10.351-4.427H47.3a3.521,3.521,0,0,0,3.314,2.344h2.344a3.516,3.516,0,0,0,0-7.031H50.609a3.517,3.517,0,0,0-3.316,2.344Zm6.635,9.142a11.754,11.754,0,0,0,4.359.1L52.8,42.251Zm.677,3.992-3.717,3.931A44.65,44.65,0,0,1,44.847,41.8l1.4-2.792Zm8.277-5.342L61.059,41.8a44.638,44.638,0,0,1-2.624,6.086l-3.978-3.978Zm-10.027-6.62a1.172,1.172,0,0,1,1.172-1.172h2.344a1.172,1.172,0,0,1,0,2.344H50.609A1.173,1.173,0,0,1,49.438,31.992ZM28.391,57.656c.464-5.805,4.328-11.082,9.528-12.816L42.851,43.2a46.977,46.977,0,0,0,3.336,7.235l.007.012h0a46.988,46.988,0,0,0,3.208,4.9l1.442,2.314Zm24.563-1.045L51.364,54.06q-.027-.043-.057-.083a44.681,44.681,0,0,1-2.64-3.945l4.179-4.42,4.4,4.4a44.631,44.631,0,0,1-2.65,3.96C54.542,54.053,54.624,53.932,52.953,56.612Zm2.111,1.045,1.442-2.314a46.972,46.972,0,0,0,3.23-4.937l.017-.031,0,0a46.939,46.939,0,0,0,3.3-7.173l4.933,1.644c5.2,1.734,9.063,7.011,9.528,12.816H55.064Z" transform="translate(-26)" fill="#0081d2"/>
      </g>
    </g>
    <g id="Group_177" data-name="Group 177" transform="translate(68.79 48.643)">
      <g id="Group_176" data-name="Group 176">
        <path id="Path_748" data-name="Path 748" d="M396.343,419.359a11.716,11.716,0,0,0-3.317-4.027,1.172,1.172,0,0,0-1.429,1.858,9.358,9.358,0,0,1,2.65,3.217,1.172,1.172,0,0,0,2.1-1.047Z" transform="translate(-391.139 -415.088)" fill="#0081d2"/>
      </g>
    </g>
  </g>
</svg>
