<svg xmlns="http://www.w3.org/2000/svg" width="60" height="60" viewBox="0 0 60 60">
  <g id="Coding" transform="translate(-2 -2)">
    <path id="Path_719" data-name="Path 719" d="M61,52H58.974A4.948,4.948,0,0,0,60,49V21a5.006,5.006,0,0,0-5-5H48V7a5.006,5.006,0,0,0-5-5H21a5.006,5.006,0,0,0-5,5v9H9a5.006,5.006,0,0,0-5,5V49a4.948,4.948,0,0,0,1.026,3H3a1,1,0,0,0-1,1v4a5.006,5.006,0,0,0,5,5H57a5.006,5.006,0,0,0,5-5V53A1,1,0,0,0,61,52ZM18,7a3,3,0,0,1,3-3H43a3,3,0,0,1,3,3V18a3,3,0,0,1-3,3H30a1,1,0,0,0-.759.349L25,26.3V22a1,1,0,0,0-1-1H21a3,3,0,0,1-3-3ZM6,49V21a3,3,0,0,1,3-3h7a5.006,5.006,0,0,0,5,5h2v6a1,1,0,0,0,1.759.651L30.46,23H43a5.006,5.006,0,0,0,5-5h7a3,3,0,0,1,3,3V49a3,3,0,0,1-3,3H9A3,3,0,0,1,6,49Zm22,5h8v1a1,1,0,0,1-1,1H29a1,1,0,0,1-1-1Zm32,3a3,3,0,0,1-3,3H7a3,3,0,0,1-3-3V54H26v1a3,3,0,0,0,3,3h6a3,3,0,0,0,3-3V54H60Z" fill="#0081d2"/>
    <path id="Path_720" data-name="Path 720" d="M56,49V21a1,1,0,0,0-1-1H50a1,1,0,0,0,0,2h4V48H10V22h4a1,1,0,0,0,0-2H9a1,1,0,0,0-1,1V49a1,1,0,0,0,1,1H55A1,1,0,0,0,56,49Z" fill="#0081d2"/>
    <path id="Path_721" data-name="Path 721" d="M14,29a1,1,0,0,0,1,1h2a1,1,0,0,0,0-2H15A1,1,0,0,0,14,29Z" fill="#0081d2"/>
    <path id="Path_722" data-name="Path 722" d="M17,32H15a1,1,0,0,0,0,2h2a1,1,0,0,0,0-2Z" fill="#0081d2"/>
    <path id="Path_723" data-name="Path 723" d="M17,36H15a1,1,0,0,0,0,2h2a1,1,0,0,0,0-2Z" fill="#0081d2"/>
    <path id="Path_724" data-name="Path 724" d="M17,40H15a1,1,0,0,0,0,2h2a1,1,0,0,0,0-2Z" fill="#0081d2"/>
    <path id="Path_725" data-name="Path 725" d="M17,44H15a1,1,0,0,0,0,2h2a1,1,0,0,0,0-2Z" fill="#0081d2"/>
    <path id="Path_726" data-name="Path 726" d="M30,30H49a1,1,0,0,0,0-2H30a1,1,0,0,0,0,2Z" fill="#0081d2"/>
    <path id="Path_727" data-name="Path 727" d="M29,34H45a1,1,0,0,0,0-2H29a1,1,0,0,0,0,2Z" fill="#0081d2"/>
    <path id="Path_728" data-name="Path 728" d="M21,38H33a1,1,0,0,0,0-2H21a1,1,0,0,0,0,2Z" fill="#0081d2"/>
    <path id="Path_729" data-name="Path 729" d="M21,42H33a1,1,0,0,0,0-2H21a1,1,0,0,0,0,2Z" fill="#0081d2"/>
    <path id="Path_730" data-name="Path 730" d="M21,46H33a1,1,0,0,0,0-2H21a1,1,0,0,0,0,2Z" fill="#0081d2"/>
    <path id="Path_731" data-name="Path 731" d="M20.445,12.832l6,4a1,1,0,1,0,1.11-1.664l-4.567-3.044L27.447,9.9a1,1,0,0,0-.894-1.79l-6,3a1,1,0,0,0-.108,1.727Z" fill="#0081d2"/>
    <path id="Path_732" data-name="Path 732" d="M36.553,9.9l4.459,2.229-4.567,3.044a1,1,0,0,0,1.11,1.664l6-4a1,1,0,0,0-.108-1.727l-6-3a1,1,0,0,0-.894,1.79Z" fill="#0081d2"/>
    <path id="Path_733" data-name="Path 733" d="M29.658,18.94a1,1,0,0,0,1.281-.6l4-11a1,1,0,1,0-1.878-.684l-4,11a1,1,0,0,0,.6,1.284Z" fill="#0081d2"/>
    <path id="Path_734" data-name="Path 734" d="M21,34h4a1,1,0,0,0,0-2H21a1,1,0,0,0,0,2Z" fill="#0081d2"/>
    <path id="Path_735" data-name="Path 735" d="M46,37a1,1,0,0,0-1-1H37a1,1,0,0,0,0,2h8A1,1,0,0,0,46,37Z" fill="#0081d2"/>
    <path id="Path_736" data-name="Path 736" d="M39,40H37a1,1,0,0,0,0,2h2a1,1,0,0,0,0-2Z" fill="#0081d2"/>
    <path id="Path_737" data-name="Path 737" d="M39,44H37a1,1,0,0,0,0,2h2a1,1,0,0,0,0-2Z" fill="#0081d2"/>
  </g>
</svg>
