<svg xmlns="http://www.w3.org/2000/svg" width="47" height="47" viewBox="0 0 47 47">
  <g id="crm" transform="translate(-1 -1)">
    <path id="Path_768" data-name="Path 768" d="M43.926,38.728a4.539,4.539,0,0,0-1.991-8.1v-.826a3.8,3.8,0,0,0-3.79-3.79H25.258V23.254a2.349,2.349,0,0,0,3.782-1.794,2.36,2.36,0,0,0,2.274-2.274,2.36,2.36,0,0,0,2.274-2.274,2.361,2.361,0,0,0,1.59-4.031l-.158-.158A7.186,7.186,0,0,0,24.5,2.974,7.183,7.183,0,0,0,14.361,13.146a2.35,2.35,0,0,0,1.809,3.765,2.36,2.36,0,0,0,2.274,2.274,2.36,2.36,0,0,0,2.274,2.274,2.329,2.329,0,0,0,3.024,2.176v2.38H10.855a3.8,3.8,0,0,0-3.79,3.79v.826a4.539,4.539,0,0,0-1.991,8.1A6.83,6.83,0,0,0,1,44.968V48H14.645V44.968a6.83,6.83,0,0,0-4.074-6.24,4.539,4.539,0,0,0-1.991-8.1v-.826a2.277,2.277,0,0,1,2.274-2.274H23.742v3.1a4.539,4.539,0,0,0-1.991,8.1,6.83,6.83,0,0,0-4.074,6.24V48H31.323V44.968a6.83,6.83,0,0,0-4.074-6.24,4.539,4.539,0,0,0-1.991-8.1v-3.1H38.145a2.277,2.277,0,0,1,2.274,2.274v.826a4.539,4.539,0,0,0-1.991,8.1,6.83,6.83,0,0,0-4.074,6.24V48H48V44.968a6.83,6.83,0,0,0-4.074-6.24ZM29.439,2.516a5.668,5.668,0,0,1,4.5,9.123L30.452,8.154A6.123,6.123,0,0,0,31.1,7.6L30.029,6.529A4.392,4.392,0,0,1,26.9,7.823H25.7L24.408,9.117a.755.755,0,0,1-.537.222H21.024A.314.314,0,0,1,20.8,8.8l4.625-4.625a5.639,5.639,0,0,1,4.012-1.662Zm-9.878,0a5.631,5.631,0,0,1,3.859,1.523L19.729,7.731a1.831,1.831,0,0,0,1.295,3.124h2.848a2.26,2.26,0,0,0,1.609-.666l.85-.85H26.9a5.926,5.926,0,0,0,2.175-.414l5.027,5.027a.85.85,0,0,1-1.2,1.2l-1.8-1.8-1.072,1.072,1.8,1.8a.85.85,0,0,1-1.2,1.2l-1.8-1.8L27.754,16.7l1.8,1.8a.85.85,0,0,1-1.2,1.2l-1.8-1.8L25.48,18.971l1.8,1.8a.85.85,0,0,1-1.2,1.2l-.253-.253a2.359,2.359,0,0,0-2.095-3.28,2.36,2.36,0,0,0-2.274-2.274A2.36,2.36,0,0,0,19.185,13.9a2.364,2.364,0,0,0-2.358-2.283,2.339,2.339,0,0,0-1.393.463,5.668,5.668,0,0,1,4.127-9.56ZM15.4,14.553a.846.846,0,0,1,.249-.6l.575-.575a.85.85,0,0,1,1.2,1.2l-.575.575a.85.85,0,0,1-1.451-.6Zm2.274,2.274a.846.846,0,0,1,.249-.6l.575-.575a.85.85,0,0,1,1.2,1.2l-.575.575a.85.85,0,0,1-1.451-.6ZM19.952,19.1a.846.846,0,0,1,.249-.6l.575-.575a.85.85,0,0,1,1.2,1.2L21.4,19.7a.85.85,0,0,1-1.451-.6Zm3.124,3.124a.85.85,0,0,1-.6-1.451l.575-.575a.85.85,0,0,1,1.2,1.2l-.575.575A.846.846,0,0,1,23.076,22.226ZM13.129,44.968v1.516H11.613V43.452H10.1v3.032H5.548V43.452H4.032v3.032H2.516V44.968a5.306,5.306,0,1,1,10.613,0Zm-2.274-9.855a3.032,3.032,0,1,1-3.032-3.032A3.035,3.035,0,0,1,10.855,35.113Zm18.952,9.855v1.516H28.29V43.452H26.774v3.032H22.226V43.452H20.71v3.032H19.194V44.968a5.306,5.306,0,1,1,10.613,0Zm-2.274-9.855A3.032,3.032,0,1,1,24.5,32.081,3.035,3.035,0,0,1,27.532,35.113Zm10.613,0a3.032,3.032,0,1,1,3.032,3.032A3.035,3.035,0,0,1,38.145,35.113Zm8.339,11.371H44.968V43.452H43.452v3.032H38.9V43.452H37.387v3.032H35.871V44.968a5.306,5.306,0,1,1,10.613,0Z" fill="#0081d2"/>
    <path id="Path_769" data-name="Path 769" d="M38,38h1.516v1.516H38Z" transform="translate(-8.952 -8.952)" fill="#0081d2"/>
    <path id="Path_770" data-name="Path 770" d="M42,38h1.516v1.516H42Z" transform="translate(-9.919 -8.952)" fill="#0081d2"/>
    <path id="Path_771" data-name="Path 771" d="M46,38h1.516v1.516H46Z" transform="translate(-10.887 -8.952)" fill="#0081d2"/>
    <path id="Path_772" data-name="Path 772" d="M16,38h1.516v1.516H16Z" transform="translate(-3.629 -8.952)" fill="#0081d2"/>
    <path id="Path_773" data-name="Path 773" d="M20,38h1.516v1.516H20Z" transform="translate(-4.597 -8.952)" fill="#0081d2"/>
    <path id="Path_774" data-name="Path 774" d="M24,38h1.516v1.516H24Z" transform="translate(-5.565 -8.952)" fill="#0081d2"/>
  </g>
</svg>
