<svg xmlns="http://www.w3.org/2000/svg" width="28.726" height="27.358" viewBox="0 0 28.726 27.358">
  <path id="Icon_simple-line" data-name="Icon simple-line" d="M23.178,11.979a.755.755,0,0,1,0,1.509h-2.1v1.347h2.1a.753.753,0,1,1,0,1.507H20.323a.755.755,0,0,1-.75-.753V9.878a.756.756,0,0,1,.754-.754h2.856a.754.754,0,0,1,0,1.508h-2.1v1.347h2.1Zm-4.614,3.61a.753.753,0,0,1-.517.713.773.773,0,0,1-.238.037.74.74,0,0,1-.61-.3l-2.924-3.97v3.519a.752.752,0,1,1-1.5,0V9.878a.75.75,0,0,1,.515-.712.7.7,0,0,1,.232-.039.774.774,0,0,1,.592.3l2.947,3.986V9.878a.754.754,0,1,1,1.508,0Zm-6.872,0a.753.753,0,1,1-1.506,0V9.878a.753.753,0,1,1,1.506,0Zm-2.952.753H5.885a.758.758,0,0,1-.754-.753V9.878a.754.754,0,1,1,1.508,0v4.956h2.1a.753.753,0,0,1,0,1.507m19.985-3.823c0-6.429-6.445-11.66-14.363-11.66S0,6.09,0,12.518c0,5.758,5.111,10.583,12.011,11.5.468.1,1.1.309,1.266.706a2.924,2.924,0,0,1,.045,1.293l-.2,1.221c-.054.36-.287,1.42,1.256.772s8.278-4.881,11.294-8.349a10.321,10.321,0,0,0,3.05-7.143" transform="translate(0 -0.858)" fill="#fff"/>
</svg>
