<svg xmlns="http://www.w3.org/2000/svg" width="37.212" height="37.202" viewBox="0 0 37.212 37.202">
  <path id="Icon_simple-whatsapp" data-name="Icon simple-whatsapp" d="M26.247,21.573c-.451-.225-2.65-1.3-3.06-1.449s-.709-.225-1.01.225-1.156,1.446-1.416,1.743-.524.315-.969.112a12.174,12.174,0,0,1-3.6-2.227,13.609,13.609,0,0,1-2.49-3.1c-.261-.45-.028-.7.195-.922.2-.2.451-.517.677-.785a3.8,3.8,0,0,0,.446-.744.825.825,0,0,0-.038-.786c-.113-.225-1.008-2.43-1.383-3.309-.36-.876-.731-.765-1.008-.765-.258-.023-.557-.023-.856-.023a1.691,1.691,0,0,0-1.2.538A5.008,5.008,0,0,0,8.967,13.79,8.776,8.776,0,0,0,10.8,18.4c.224.292,3.158,4.792,7.65,6.728,1.071.45,1.905.72,2.556.944a6.206,6.206,0,0,0,2.82.181c.861-.136,2.65-1.082,3.024-2.139a3.713,3.713,0,0,0,.27-2.138c-.111-.2-.405-.315-.855-.517M18.091,32.625h-.024a15.005,15.005,0,0,1-7.583-2.07l-.54-.321L4.32,31.7l1.508-5.468-.359-.562A14.877,14.877,0,0,1,28.639,7.314,14.682,14.682,0,0,1,33,17.8,14.9,14.9,0,0,1,18.1,32.626M30.78,5.174A18.213,18.213,0,0,0,18.067,0,17.835,17.835,0,0,0,2.544,26.757L0,36l9.5-2.478a18.093,18.093,0,0,0,8.565,2.171h.009A17.91,17.91,0,0,0,36,17.849,17.691,17.691,0,0,0,30.757,5.232" transform="translate(0.712 0.5)" fill="#3e4b54" stroke="#fff" stroke-width="1"/>
</svg>
