<svg xmlns="http://www.w3.org/2000/svg" width="24.677" height="24.677" viewBox="0 0 24.677 24.677">
  <path id="Icon_ionic-logo-whatsapp" data-name="Icon ionic-logo-whatsapp" d="M14.812,2.25A12.068,12.068,0,0,0,2.7,14.271a11.9,11.9,0,0,0,1.738,6.207L2.25,26.927,8.957,24.8a12.135,12.135,0,0,0,17.97-10.526A12.068,12.068,0,0,0,14.812,2.25Zm6.024,16.586a3.129,3.129,0,0,1-2.143,1.381c-.568.03-.584.44-3.682-.905A12.64,12.64,0,0,1,9.9,14.483a5.941,5.941,0,0,1-1.143-3.22A3.433,3.433,0,0,1,9.941,8.744a1.186,1.186,0,0,1,.839-.353c.244,0,.4-.007.582,0s.451-.038.686.586.8,2.157.867,2.313a.561.561,0,0,1,.006.538,2.1,2.1,0,0,1-.328.5c-.162.173-.34.388-.484.52-.161.147-.329.307-.16.621a9.27,9.27,0,0,0,1.64,2.189,8.452,8.452,0,0,0,2.429,1.615c.3.165.485.147.673-.051s.806-.867,1.024-1.166.422-.241.7-.128,1.771.912,2.075,1.077.506.249.579.38A2.544,2.544,0,0,1,20.836,18.836Z" transform="translate(-2.25 -2.25)" fill="#fff"/>
</svg>
