<svg xmlns="http://www.w3.org/2000/svg" width="31.845" height="32.26" viewBox="0 0 31.845 32.26">
  <g id="shopping-cart" transform="translate(-14.1 -11)">
    <g id="Group_31" data-name="Group 31" transform="translate(14.1 11)">
      <path id="Path_37" data-name="Path 37" d="M303.48,417.6a2.7,2.7,0,0,0-2.68,2.745,2.68,2.68,0,1,0,2.68-2.745Zm0,4.115a1.319,1.319,0,0,1-1.3-1.376,1.305,1.305,0,1,1,1.3,1.376Z" transform="translate(-281.925 -390.831)" fill="#3e4b54"/>
      <path id="Path_38" data-name="Path 38" d="M81.38,417.6a2.7,2.7,0,0,0-2.68,2.745,2.744,2.744,0,0,0,2.68,2.745,2.7,2.7,0,0,0,2.68-2.745,2.744,2.744,0,0,0-2.68-2.745Zm0,4.115a1.319,1.319,0,0,1-1.3-1.376,1.367,1.367,0,0,1,1.3-1.376,1.319,1.319,0,0,1,1.3,1.376A1.358,1.358,0,0,1,81.38,421.715Z" transform="translate(-74.447 -390.831)" fill="#3e4b54"/>
      <path id="Path_39" data-name="Path 39" d="M42.107,11,41.04,15.187H14.1l4.971,14.728a3.414,3.414,0,0,0-2.91,3.463,3.472,3.472,0,0,0,3.43,3.568H38.262v-1.3H19.591a2.1,2.1,0,0,1-2.061-2.2,2.144,2.144,0,0,1,2.061-2.2H38.328L43.2,12.369h2.745V11H42.107ZM37.3,29.875H20.486L16.022,16.557H40.665Z" transform="translate(-14.1 -11)" fill="#3e4b54"/>
      <rect id="Rectangle_17" data-name="Rectangle 17" width="1.376" height="7.756" transform="translate(8.717 8.783)" fill="#3e4b54"/>
      <rect id="Rectangle_18" data-name="Rectangle 18" width="1.376" height="7.756" transform="translate(13.595 8.783)" fill="#3e4b54"/>
      <rect id="Rectangle_19" data-name="Rectangle 19" width="1.376" height="7.756" transform="translate(18.467 8.783)" fill="#3e4b54"/>
    </g>
  </g>
</svg>
