<svg id="income" xmlns="http://www.w3.org/2000/svg" width="47" height="47" viewBox="0 0 47 47">
  <g id="Group_256" data-name="Group 256" transform="translate(6.823 5.306)">
    <g id="Group_255" data-name="Group 255">
      <path id="Path_740" data-name="Path 740" d="M75.032,60.548a1.516,1.516,0,1,1,1.516-1.516h1.516a3.032,3.032,0,1,0-3.032,3.032,1.516,1.516,0,1,1-1.516,1.516H72a3.032,3.032,0,1,0,3.032-3.032Z" transform="translate(-72 -56)" fill="#0081d2"/>
    </g>
  </g>
  <g id="Group_258" data-name="Group 258" transform="translate(9.097 3.79)">
    <g id="Group_257" data-name="Group 257">
      <rect id="Rectangle_157" data-name="Rectangle 157" width="1.516" height="2.274" fill="#0081d2"/>
    </g>
  </g>
  <g id="Group_260" data-name="Group 260" transform="translate(9.097 15.161)">
    <g id="Group_259" data-name="Group 259">
      <rect id="Rectangle_158" data-name="Rectangle 158" width="1.516" height="2.274" fill="#0081d2"/>
    </g>
  </g>
  <g id="Group_262" data-name="Group 262" transform="translate(0 42.452)">
    <g id="Group_261" data-name="Group 261">
      <path id="Path_741" data-name="Path 741" d="M0,448v4.548H13.645V448Zm12.129,3.032H1.516v-1.516H12.129Z" transform="translate(0 -448)" fill="#0081d2"/>
    </g>
  </g>
  <g id="Group_264" data-name="Group 264" transform="translate(0 39.419)">
    <g id="Group_263" data-name="Group 263">
      <path id="Path_742" data-name="Path 742" d="M0,416v4.548H13.645V416Zm12.129,3.032H1.516v-1.516H12.129Z" transform="translate(0 -416)" fill="#0081d2"/>
    </g>
  </g>
  <g id="Group_266" data-name="Group 266" transform="translate(0 36.387)">
    <g id="Group_265" data-name="Group 265">
      <path id="Path_743" data-name="Path 743" d="M0,384v4.548H13.645V384Zm12.129,3.032H1.516v-1.516H12.129Z" transform="translate(0 -384)" fill="#0081d2"/>
    </g>
  </g>
  <g id="Group_268" data-name="Group 268" transform="translate(15.161 42.452)">
    <g id="Group_267" data-name="Group 267">
      <path id="Path_744" data-name="Path 744" d="M164.548,448v1.516h7.581v1.516H161.516v-1.516h1.516V448H160v4.548h13.645V448Z" transform="translate(-160 -448)" fill="#0081d2"/>
    </g>
  </g>
  <g id="Group_270" data-name="Group 270" transform="translate(15.161 39.419)">
    <g id="Group_269" data-name="Group 269">
      <path id="Path_745" data-name="Path 745" d="M160,416v3.79h1.516v-2.274h10.613v2.274h1.516V416Z" transform="translate(-160 -416)" fill="#0081d2"/>
    </g>
  </g>
  <g id="Group_272" data-name="Group 272" transform="translate(15.161 36.387)">
    <g id="Group_271" data-name="Group 271">
      <path id="Path_746" data-name="Path 746" d="M160,384v4.548h13.645V384Zm12.129,3.032H161.516v-1.516h10.613Z" transform="translate(-160 -384)" fill="#0081d2"/>
    </g>
  </g>
  <g id="Group_274" data-name="Group 274" transform="translate(15.161 33.355)">
    <g id="Group_273" data-name="Group 273">
      <path id="Path_747" data-name="Path 747" d="M160,352v4.548h13.645V352Zm12.129,3.032H161.516v-1.516h10.613Z" transform="translate(-160 -352)" fill="#0081d2"/>
    </g>
  </g>
  <g id="Group_276" data-name="Group 276" transform="translate(15.161 30.323)">
    <g id="Group_275" data-name="Group 275">
      <path id="Path_748" data-name="Path 748" d="M160,320v4.548h13.645V320Zm12.129,3.032H161.516v-1.516h10.613Z" transform="translate(-160 -320)" fill="#0081d2"/>
    </g>
  </g>
  <g id="Group_278" data-name="Group 278" transform="translate(30.323 42.452)">
    <g id="Group_277" data-name="Group 277">
      <path id="Path_749" data-name="Path 749" d="M320,448v4.548h13.645V448Zm12.129,3.032H321.516v-1.516h10.613Z" transform="translate(-320 -448)" fill="#0081d2"/>
    </g>
  </g>
  <g id="Group_280" data-name="Group 280" transform="translate(30.323 39.419)">
    <g id="Group_279" data-name="Group 279">
      <path id="Path_750" data-name="Path 750" d="M320,416v4.548h13.645V416Zm12.129,3.032H321.516v-1.516h10.613Z" transform="translate(-320 -416)" fill="#0081d2"/>
    </g>
  </g>
  <g id="Group_282" data-name="Group 282" transform="translate(30.323 36.387)">
    <g id="Group_281" data-name="Group 281">
      <path id="Path_751" data-name="Path 751" d="M320,384v4.548h13.645V384Zm12.129,3.032H321.516v-1.516h10.613Z" transform="translate(-320 -384)" fill="#0081d2"/>
    </g>
  </g>
  <g id="Group_284" data-name="Group 284" transform="translate(30.323 33.355)">
    <g id="Group_283" data-name="Group 283">
      <path id="Path_752" data-name="Path 752" d="M320,352v4.548h13.645V352Zm12.129,3.032H321.516v-1.516h10.613Z" transform="translate(-320 -352)" fill="#0081d2"/>
    </g>
  </g>
  <g id="Group_286" data-name="Group 286" transform="translate(30.323 30.323)">
    <g id="Group_285" data-name="Group 285">
      <path id="Path_753" data-name="Path 753" d="M330.613,320v1.516h1.516v1.516H321.516v-1.516H329.1V320H320v4.548h13.645V320Z" transform="translate(-320 -320)" fill="#0081d2"/>
    </g>
  </g>
  <g id="Group_288" data-name="Group 288" transform="translate(30.323 27.29)">
    <g id="Group_287" data-name="Group 287">
      <path id="Path_754" data-name="Path 754" d="M320,288v3.79h1.516v-2.274h10.613v2.274h1.516V288Z" transform="translate(-320 -288)" fill="#0081d2"/>
    </g>
  </g>
  <g id="Group_290" data-name="Group 290" transform="translate(30.323 24.258)">
    <g id="Group_289" data-name="Group 289">
      <path id="Path_755" data-name="Path 755" d="M320,256v4.548h13.645V256Zm12.129,3.032H321.516v-1.516h10.613Z" transform="translate(-320 -256)" fill="#0081d2"/>
    </g>
  </g>
  <g id="Group_292" data-name="Group 292" transform="translate(0.29)">
    <g id="Group_291" data-name="Group 291">
      <path id="Path_756" data-name="Path 756" d="M38.4,0a2.274,2.274,0,0,0,0,4.548h3.476L30.706,15.715l-6-3.753-21.645,17,.937,1.192L24.8,13.813l6.124,3.827L45.532,3.032H38.4a.758.758,0,0,1,0-1.516H48.25v9.855a.758.758,0,0,1-1.516,0V4.993L31.441,20.285l-6.767-3.759L5.325,32l.948,1.184L24.827,18.345,31.7,22.167,45.218,8.653v2.718a2.274,2.274,0,0,0,4.548,0V0Z" transform="translate(-3.056)" fill="#0081d2"/>
    </g>
  </g>
  <g id="Group_294" data-name="Group 294" transform="translate(3.032 9.855)">
    <g id="Group_293" data-name="Group 293">
      <rect id="Rectangle_159" data-name="Rectangle 159" width="1.516" height="1.516" fill="#0081d2"/>
    </g>
  </g>
  <g id="Group_296" data-name="Group 296" transform="translate(15.161 9.855)">
    <g id="Group_295" data-name="Group 295">
      <rect id="Rectangle_160" data-name="Rectangle 160" width="1.516" height="1.516" fill="#0081d2"/>
    </g>
  </g>
  <g id="Group_298" data-name="Group 298" transform="translate(0 0.758)">
    <g id="Group_297" data-name="Group 297">
      <path id="Path_757" data-name="Path 757" d="M9.855,8a9.855,9.855,0,1,0,9.855,9.855A9.866,9.866,0,0,0,9.855,8Zm0,18.194a8.339,8.339,0,1,1,8.339-8.339A8.349,8.349,0,0,1,9.855,26.194Z" transform="translate(0 -8)" fill="#0081d2"/>
    </g>
  </g>
</svg>
