<svg xmlns="http://www.w3.org/2000/svg" width="36.734" height="32.26" viewBox="0 0 36.734 32.26">
  <g id="select" transform="translate(0 -24.352)">
    <path id="Path_51" data-name="Path 51" d="M36.37,212.928l-.88-.873a2.482,2.482,0,0,0-3.508,0l-5.305,5.308v-.682a1.861,1.861,0,0,0-1.861-1.861H8.685a.619.619,0,0,0-.439.182L6.2,217.045v-.984a.62.62,0,0,0-.62-.62H.62a.62.62,0,0,0-.62.62v12.408a.62.62,0,0,0,.62.62H5.583a.62.62,0,0,0,.62-.62v-.984l2.738-2.738H26.056a.621.621,0,0,0,.439-.182l9.876-9.876a1.247,1.247,0,0,0,0-1.761ZM4.963,227.849H1.241V216.682H4.963ZM25.8,223.506H8.685a.619.619,0,0,0-.439.182L6.2,225.731V218.8l2.738-2.738H24.815a.62.62,0,0,1,.62.62v1.861H17.371v1.241h8.685a.62.62,0,0,0,.62-.62l6.183-6.231a1.241,1.241,0,0,1,1.755,0l.88.877Zm0,0" transform="translate(0 -172.478)" fill="#3e4b54"/>
    <path id="Path_52" data-name="Path 52" d="M144,39.861a.62.62,0,0,0,.62.62h13.648a.62.62,0,0,0,.62-.62V36.139a3.105,3.105,0,0,0-3.1-3.1h-2.482v-.888a3.1,3.1,0,0,0,1.861-2.834v-.633a3.105,3.105,0,0,0,1.241-2.469V24.972a.62.62,0,0,0-.62-.62h-4.963a3.105,3.105,0,0,0-3.1,3.1v1.861a3.086,3.086,0,0,0,1.861,2.83v.892H147.1a3.105,3.105,0,0,0-3.1,3.1Zm4.963-10.547V27.453a1.861,1.861,0,0,1,1.861-1.861h4.343v.62a1.841,1.841,0,0,1-.931,1.6.621.621,0,0,0-.31.536v.965a1.854,1.854,0,0,1-1.117,1.7,1.24,1.24,0,0,0-.745,1.134v.892h-1.241v-.892a1.237,1.237,0,0,0-.745-1.134A1.854,1.854,0,0,1,148.963,29.315Zm2.718,4.963-.237.474-.237-.474Zm-6.441,1.861a1.861,1.861,0,0,1,1.861-1.861h2.718l1.069,2.138a.621.621,0,0,0,1.111,0l1.069-2.138h2.718a1.861,1.861,0,0,1,1.861,1.861v3.1h-1.241V35.518h-1.241v3.722h-7.445V35.518h-1.241v3.722h-1.241Zm0,0" transform="translate(-132.833)" fill="#3e4b54"/>
  </g>
</svg>
