<svg xmlns="http://www.w3.org/2000/svg" width="23.001" height="23" viewBox="0 0 23.001 23">
  <path id="Icon_awesome-facebook-messenger" data-name="Icon awesome-facebook-messenger" d="M12.089.563C5.595.563.563,5.308.563,11.719a10.9,10.9,0,0,0,3.62,8.252c.387.348.307.55.373,2.7a.924.924,0,0,0,1.293.815C8.3,22.4,8.334,22.319,8.75,22.433c7.109,1.956,14.814-2.593,14.814-10.714C23.564,5.308,18.583.563,12.089.563Zm6.921,8.585-3.385,5.359a1.733,1.733,0,0,1-2.5.46l-2.693-2.016a.7.7,0,0,0-.835,0L5.962,15.708a.547.547,0,0,1-.793-.727L8.554,9.622a1.733,1.733,0,0,1,2.5-.46l2.692,2.015a.7.7,0,0,0,.835,0l3.636-2.754a.545.545,0,0,1,.793.724Z" transform="translate(-0.563 -0.563)" fill="#fff"/>
</svg>
