<svg xmlns="http://www.w3.org/2000/svg" width="40.002" height="32.26" viewBox="0 0 40.002 32.26">
  <g id="call-center" transform="translate(0 -6.244)">
    <path id="Path_4" data-name="Path 4" d="M36.5,115.325,31.615,114.2v-1.271a5.2,5.2,0,0,0,1.237-1.442h.7a3.23,3.23,0,0,0,3.226-3.226,3.2,3.2,0,0,0-.645-1.916v-2.6a7.742,7.742,0,0,0-15.485,0v2.6A3.2,3.2,0,0,0,20,108.259a3.23,3.23,0,0,0,3.226,3.226h.7a5.185,5.185,0,0,0,1.237,1.442V114.2l-4.887,1.128a4.494,4.494,0,0,0-.92.328V112.13a1.938,1.938,0,0,0-1.936-1.936H1.936A1.938,1.938,0,0,0,0,112.13v11.614a1.938,1.938,0,0,0,1.936,1.936H7.1v1.29H5.807v1.29H40v-8.534A4.5,4.5,0,0,0,36.5,115.325Zm-10.84.082,1.573,1.18-1.59.954L25.3,115.49Zm2.03,5.111h1.394l.537,6.452H27.154Zm1.522-1.29H27.563l-.37-1.111,1.2-.717,1.2.717Zm.33-2.641,1.573-1.18.455.105-.409,2.045Zm4.007-6.392h-.17a5.132,5.132,0,0,0,.17-1.29v-2.581a1.936,1.936,0,1,1,0,3.871Zm-5.162-12.9a6.459,6.459,0,0,1,6.452,6.452v1.564a3.193,3.193,0,0,0-1.29-.273v-1.29H32.26v.36a3.782,3.782,0,0,1-1.558.812c.025-.025.053-.046.078-.07l-.912-.912a3.775,3.775,0,0,1-1.747.983c.025-.025.053-.046.078-.07l-.912-.912a3.786,3.786,0,0,1-2.659,1.1h-.111v-1.29h-1.29v1.29a3.193,3.193,0,0,0-1.29.273v-1.564A6.459,6.459,0,0,1,28.389,97.29Zm-5.162,12.9a1.936,1.936,0,1,1,0-3.871V108.9a5.131,5.131,0,0,0,.17,1.29Zm1.29-1.29v-2.581h.111a5.043,5.043,0,0,0,1.825-.349v.349h.756a5.043,5.043,0,0,0,1.825-.349v.349h.756a5.078,5.078,0,0,0,2.47-.652V108.9a3.852,3.852,0,0,1-.226,1.29H28.389v1.29h2.878a3.866,3.866,0,0,1-6.749-2.581Zm3.871,5.162a5.126,5.126,0,0,0,1.936-.38v.7l-1.936,1.452-1.936-1.452v-.7A5.126,5.126,0,0,0,28.389,114.066Zm-7.823,2.517,3.476-.8.64,3.842,1.378-.826.385,1.155-.585,7.018H22.582v-7.1h-1.29v7.1H18.066V125.56a1.933,1.933,0,0,0,1.29-1.817v-6.591A3.225,3.225,0,0,1,20.566,116.582Zm-8.307,9.1h4.516v1.29H12.259Zm-10.323-1.29a.646.646,0,0,1-.645-.645V112.13a.646.646,0,0,1,.645-.645H17.42a.646.646,0,0,1,.645.645v11.614a.646.646,0,0,1-.645.645H12.259V123.1a2.581,2.581,0,1,0-5.162,0v1.29Zm6.452-1.29a1.29,1.29,0,1,1,2.581,0v3.871H8.388Zm30.324,3.871H35.486v-7.1H34.2v7.1H30.918l-.584-7.018.384-1.155,1.35.81.761-3.8,3.384.781a3.211,3.211,0,0,1,2.5,3.143Zm0,0" transform="translate(0 -89.756)" fill="#3e4b54"/>
  </g>
</svg>
