<svg xmlns="http://www.w3.org/2000/svg" width="27.227" height="23.823" viewBox="0 0 27.227 23.823">
  <path id="Icon_awesome-sms" data-name="Icon awesome-sms" d="M13.613,2.25C6.094,2.25,0,7.2,0,13.311a9.817,9.817,0,0,0,3.031,6.95A13.528,13.528,0,0,1,.117,25.355a.423.423,0,0,0-.08.463.416.416,0,0,0,.388.255A12.161,12.161,0,0,0,7.9,23.34a16.218,16.218,0,0,0,5.711,1.032c7.519,0,13.613-4.951,13.613-11.061S21.133,2.25,13.613,2.25Zm-6.8,14.464H6.169a.427.427,0,0,1-.425-.425v-.851a.427.427,0,0,1,.425-.425h.654c.319,0,.553-.186.553-.351a.281.281,0,0,0-.112-.2l-1.165-1a1.966,1.966,0,0,1-.707-1.494A2.162,2.162,0,0,1,7.647,9.913H8.3a.427.427,0,0,1,.425.425v.851a.427.427,0,0,1-.425.425H7.642c-.319,0-.553.186-.553.351a.281.281,0,0,0,.112.2l1.165,1a1.966,1.966,0,0,1,.707,1.494A2.159,2.159,0,0,1,6.817,16.714Zm10.2-.425a.427.427,0,0,1-.425.425H15.74a.427.427,0,0,1-.425-.425V12.662L14,15.629a.425.425,0,0,1-.76,0l-1.324-2.967v3.627a.427.427,0,0,1-.425.425h-.851a.427.427,0,0,1-.425-.425v-5.53a.853.853,0,0,1,.851-.851h.851a.847.847,0,0,1,.76.468l.941,1.882.941-1.882a.853.853,0,0,1,.76-.468h.851a.853.853,0,0,1,.851.851Zm2.568.425h-.654a.427.427,0,0,1-.425-.425v-.851a.427.427,0,0,1,.425-.425h.654c.319,0,.553-.186.553-.351a.281.281,0,0,0-.112-.2l-1.165-1a1.966,1.966,0,0,1-.707-1.494,2.162,2.162,0,0,1,2.255-2.053h.649a.427.427,0,0,1,.425.425v.851a.427.427,0,0,1-.425.425H20.4c-.319,0-.553.186-.553.351a.281.281,0,0,0,.112.2l1.165,1a1.966,1.966,0,0,1,.707,1.494A2.154,2.154,0,0,1,19.585,16.714Z" transform="translate(0 -2.25)" fill="#fff"/>
</svg>
