<svg xmlns="http://www.w3.org/2000/svg" width="26.463" height="32.26" viewBox="0 0 26.463 32.26">
  <g id="shield" transform="translate(-46)">
    <g id="Group_24" data-name="Group 24" transform="translate(46)">
      <g id="Group_23" data-name="Group 23" transform="translate(0)">
        <path id="Path_33" data-name="Path 33" d="M71.833,3.78A3.154,3.154,0,0,1,68.683.63a.63.63,0,0,0-.63-.63H50.411a.63.63,0,0,0-.63.63,3.154,3.154,0,0,1-3.15,3.15.63.63,0,0,0-.63.63V14.693A18.3,18.3,0,0,0,59.051,32.233a.63.63,0,0,0,.362,0A18.3,18.3,0,0,0,72.463,14.693V4.411A.63.63,0,0,0,71.833,3.78ZM71.2,14.693A16.945,16.945,0,0,1,59.232,30.971,17.037,17.037,0,0,1,47.26,14.693V5A4.421,4.421,0,0,0,51,1.26H67.468A4.421,4.421,0,0,0,71.2,5Z" transform="translate(-46)" fill="#3e4b54"/>
      </g>
    </g>
    <g id="Group_26" data-name="Group 26" transform="translate(48.52 2.52)">
      <g id="Group_25" data-name="Group 25" transform="translate(0)">
        <path id="Path_34" data-name="Path 34" d="M107.045,43.307a5.676,5.676,0,0,1-2.93-2.93.63.63,0,0,0-.577-.377H93.23c-.348,0-.348,1.26,0,1.26h9.909a6.927,6.927,0,0,0,3.023,3.023v7.89a14.353,14.353,0,0,1-9.451,13.616A14.353,14.353,0,0,1,87.26,52.172v-7.89a6.927,6.927,0,0,0,3.023-3.023h3.909a.63.63,0,1,0,0-1.26H89.884a.63.63,0,0,0-.577.377,5.676,5.676,0,0,1-2.93,2.93.63.63,0,0,0-.377.577v8.288a15.685,15.685,0,0,0,10.5,14.88.63.63,0,0,0,.42,0,15.685,15.685,0,0,0,10.5-14.88V43.884A.63.63,0,0,0,107.045,43.307Z" transform="translate(-86 -40)" fill="#3e4b54"/>
      </g>
    </g>
    <g id="Group_28" data-name="Group 28" transform="translate(53.561 9.199)">
      <g id="Group_27" data-name="Group 27">
        <path id="Path_35" data-name="Path 35" d="M171.671,146a5.671,5.671,0,1,0,5.671,5.671A5.677,5.677,0,0,0,171.671,146Zm0,10.081a4.411,4.411,0,1,1,4.411-4.411A4.416,4.416,0,0,1,171.671,156.081Z" transform="translate(-166 -146)" fill="#3e4b54"/>
      </g>
    </g>
    <g id="Group_30" data-name="Group 30" transform="translate(56.711 12.98)">
      <g id="Group_29" data-name="Group 29">
        <path id="Path_36" data-name="Path 36" d="M221.485,206.184a.63.63,0,0,0-.891,0l-2.7,2.7-.815-.815a.63.63,0,0,0-.891.891l1.26,1.26a.63.63,0,0,0,.891,0l3.15-3.15A.63.63,0,0,0,221.485,206.184Z" transform="translate(-215.999 -206)" fill="#3e4b54"/>
      </g>
    </g>
  </g>
</svg>
