<svg xmlns="http://www.w3.org/2000/svg" width="35.992" height="29.884" viewBox="0 0 35.992 29.884">
  <path id="Subtraction_3" data-name="Subtraction 3" d="M32.747,29.884h0c-.5-.238-.984-.515-1.456-.782a16.661,16.661,0,0,0-2.155-1.086,13.721,13.721,0,0,1-6.507.427,10.972,10.972,0,0,1-7.456-4.871,7.975,7.975,0,0,1-1.02-5.941,9.463,9.463,0,0,1,5.069-6.243,12.766,12.766,0,0,1,11.444-.045A9.951,9.951,0,0,1,35.3,16.064a8.027,8.027,0,0,1-.2,6.948,10.234,10.234,0,0,1-3.366,3.719c.361,1.046.7,2.107,1.014,3.151ZM21.606,14.862a1.493,1.493,0,0,0-.481.079,1.477,1.477,0,0,0,.329,2.853,1.478,1.478,0,0,0,1.563-.947,1.494,1.494,0,0,0-1.411-1.986Zm7.223,0q-.05,0-.1,0a1.667,1.667,0,0,0-1.4,1.433,2.24,2.24,0,0,0,.516,1.1,1.51,1.51,0,0,0,1.282.382,1.522,1.522,0,0,0,1.081-.786H30.19a1.5,1.5,0,0,0-1.362-2.128Zm-24.948,9v0c.394-1.247.813-2.5,1.283-3.831A11.269,11.269,0,0,1,.271,13.4a9.676,9.676,0,0,1,1.2-7.376A12.7,12.7,0,0,1,7.99.9a15.173,15.173,0,0,1,12.425.968h-.038a11.35,11.35,0,0,1,5.737,7.47c-.379-.034-.767-.052-1.156-.052a12.959,12.959,0,0,0-8.588,3.251,9.437,9.437,0,0,0-2.991,5.332,9.277,9.277,0,0,0,.382,4.427c-.185.005-.344.007-.49.007a16.291,16.291,0,0,1-5-.785c-.613.325-1.235.659-1.838.982-.836.449-1.7.913-2.55,1.357ZM17.25,5A2.25,2.25,0,1,0,19.5,7.25,2.253,2.253,0,0,0,17.25,5Zm-9,0A2.25,2.25,0,1,0,10.5,7.25,2.253,2.253,0,0,0,8.25,5Z" transform="translate(-0.004 0)" fill="#fff"/>
</svg>
