<svg id="XMLID_1087_" xmlns="http://www.w3.org/2000/svg" width="47" height="47" viewBox="0 0 47 47">
  <g id="XMLID_463_" transform="translate(0 0)">
    <path id="XMLID_762_" d="M101.963,95.153a.918.918,0,0,0-.712,1.692,9.53,9.53,0,0,1,4.795,13.115,5.916,5.916,0,0,0-4.92-2.99,4.321,4.321,0,0,0,.805-2.515v-1.49a4.346,4.346,0,1,0-8.691,0v1.49a4.321,4.321,0,0,0,.8,2.514,5.916,5.916,0,0,0-4.976,2.991,9.53,9.53,0,0,1,4.78-13.108.918.918,0,1,0-.715-1.691,11.365,11.365,0,1,0,8.83-.008Zm-6.888,7.812a2.51,2.51,0,0,1,5.019,0v1.49a2.51,2.51,0,1,1-5.019,0Zm2.481,12.2a9.512,9.512,0,0,1-7.273-3.38,4.082,4.082,0,0,1,3.938-2.981h2.417v1.243a.918.918,0,0,0,1.836,0V108.8h2.417a4.082,4.082,0,0,1,3.938,2.981,9.512,9.512,0,0,1-7.273,3.38Z" transform="translate(-78.279 -86.353)" fill="#0081d2"/>
    <path id="XMLID_826_" d="M36.214,25.428a10.842,10.842,0,0,0-1.488.1,16.549,16.549,0,0,0,.64-1.9h2.271a.918.918,0,0,0,.918-.918V15.844a.918.918,0,0,0-.918-.918H35.365a16.51,16.51,0,0,0-1.636-3.947l1.608-1.608a.918.918,0,0,0,0-1.3L30.481,3.218a.918.918,0,0,0-1.3,0L27.575,4.827a16.515,16.515,0,0,0-3.946-1.635V.918A.918.918,0,0,0,22.71,0H15.844a.918.918,0,0,0-.918.918V3.192A16.519,16.519,0,0,0,10.98,4.827L9.372,3.219a.918.918,0,0,0-1.3,0L3.219,8.074a.918.918,0,0,0,0,1.3L4.826,10.98A16.508,16.508,0,0,0,3.19,14.926H.918A.918.918,0,0,0,0,15.844V22.71a.918.918,0,0,0,.918.918H3.189a16.515,16.515,0,0,0,1.636,3.949L3.219,29.183a.918.918,0,0,0,0,1.3l4.855,4.855a.918.918,0,0,0,1.3,0l1.605-1.605a16.5,16.5,0,0,0,3.949,1.637v2.269a.918.918,0,0,0,.918.918H22.71a.918.918,0,0,0,.918-.918V35.367a16.555,16.555,0,0,0,1.9-.64,10.786,10.786,0,1,0,10.683-9.3Zm-13.7,8.324a.918.918,0,0,0-.719.9v2.071h-5.03V34.648a.918.918,0,0,0-.719-.9A14.7,14.7,0,0,1,11.33,31.8a.918.918,0,0,0-1.142.125L8.723,33.389,5.166,29.832l1.466-1.465a.918.918,0,0,0,.125-1.142A14.7,14.7,0,0,1,4.8,22.511a.918.918,0,0,0-.9-.719H1.836v-5.03H3.909a.918.918,0,0,0,.9-.719,14.7,14.7,0,0,1,1.953-4.712.918.918,0,0,0-.125-1.142L5.166,8.723,8.723,5.166,10.19,6.634a.918.918,0,0,0,1.142.125,14.7,14.7,0,0,1,4.711-1.952.918.918,0,0,0,.719-.9V1.836h5.03V3.911a.918.918,0,0,0,.719.9,14.7,14.7,0,0,1,4.711,1.952.918.918,0,0,0,1.142-.125l1.468-1.468,3.557,3.557L31.921,10.19a.918.918,0,0,0-.125,1.142,14.7,14.7,0,0,1,1.953,4.712.918.918,0,0,0,.9.719h2.073v5.03H34.646a.918.918,0,0,0-.9.719,14.729,14.729,0,0,1-1.313,3.6,10.842,10.842,0,0,0-6.328,6.329,14.721,14.721,0,0,1-3.6,1.313Zm13.7,11.412a8.95,8.95,0,1,1,8.95-8.95A8.96,8.96,0,0,1,36.214,45.164Z" transform="translate(0 0)" fill="#0081d2"/>
    <path id="XMLID_832_" d="M337.688,327.9H335.46l-.681-2.106a1.673,1.673,0,0,0-1.6-1.162h0a1.674,1.674,0,0,0-1.6,1.162l-.681,2.106h-2.228a1.678,1.678,0,0,0-.983,3.037l1.8,1.3-.69,2.107a1.678,1.678,0,0,0,2.584,1.877l1.791-1.307,1.791,1.307a1.678,1.678,0,0,0,2.584-1.877l-.69-2.107,1.8-1.3a1.678,1.678,0,0,0-.983-3.037Zm-2.439,3.247a.918.918,0,0,0-.335,1.029l.746,2.278-1.936-1.413a.918.918,0,0,0-1.082,0l-1.936,1.413.746-2.278a.918.918,0,0,0-.335-1.029l-1.951-1.411h2.407a.918.918,0,0,0,.874-.636l.736-2.276.736,2.276a.918.918,0,0,0,.874.636H337.2Z" transform="translate(-296.981 -294.828)" fill="#0081d2"/>
    <path id="XMLID_833_" d="M200.918,88.054a.918.918,0,1,0-.649-.269A.921.921,0,0,0,200.918,88.054Z" transform="translate(-181.641 -78.304)" fill="#0081d2"/>
  </g>
</svg>
