<svg xmlns="http://www.w3.org/2000/svg" width="29.646" height="20.012" viewBox="0 0 29.646 20.012">
  <path id="Icon_zocial-email" data-name="Icon zocial-email" d="M.072,22.307V5.84q0-.029.086-.543l9.691,8.291L.186,22.879a2.423,2.423,0,0,1-.114-.572ZM1.358,4.154a1.232,1.232,0,0,1,.486-.086h26.1a1.619,1.619,0,0,1,.515.086l-9.72,8.319L17.453,13.5l-2.544,2.087L12.365,13.5l-1.286-1.029Zm.029,19.84,9.749-9.348L14.909,17.7l3.774-3.059,9.749,9.348a1.373,1.373,0,0,1-.486.086H1.844a1.3,1.3,0,0,1-.457-.086ZM19.969,13.588,29.632,5.3a1.706,1.706,0,0,1,.086.543V22.307a2.191,2.191,0,0,1-.086.572Z" transform="translate(-0.072 -4.068)" fill="#fff"/>
</svg>
