<svg xmlns="http://www.w3.org/2000/svg" width="21.545" height="21.545" viewBox="0 0 21.545 21.545">
  <path id="Icon_material-local-phone" data-name="Icon material-local-phone" d="M8.833,13.824a18.132,18.132,0,0,0,7.888,7.888l2.633-2.633a1.19,1.19,0,0,1,1.221-.287,13.653,13.653,0,0,0,4.273.682,1.2,1.2,0,0,1,1.2,1.2v4.177a1.2,1.2,0,0,1-1.2,1.2A20.346,20.346,0,0,1,4.5,5.7,1.2,1.2,0,0,1,5.7,4.5H9.886a1.2,1.2,0,0,1,1.2,1.2,13.6,13.6,0,0,0,.682,4.273,1.2,1.2,0,0,1-.3,1.221Z" transform="translate(-4.5 -4.5)" fill="#fff"/>
</svg>
