<svg xmlns="http://www.w3.org/2000/svg" width="33.399" height="31" viewBox="0 0 33.399 31">
  <path id="Subtraction_1" data-name="Subtraction 1" d="M-6884.374,44.667a14.9,14.9,0,0,1-3.236-.357,14.465,14.465,0,0,1-3.313-1.144,17.688,17.688,0,0,1-2.9-1.864c-.457-.362-1.394-1.284-1.5-1.388l0,0c-.284-.287-1.113-1.273-1.121-1.282a16.563,16.563,0,0,1-1.05-1.5,10.364,10.364,0,0,1-.611-1.1c-.165-.328-.364-.8-.4-.9v0c-.09-.208-.3-.779-.3-.784-.1-.284-.271-.876-.272-.881-.075-.258-.181-.735-.212-.875v-.007c-.124-.533-.249-1.578-.263-1.7a21.462,21.462,0,0,1-.062-2.562,18.736,18.736,0,0,1,.334-2.606,13.363,13.363,0,0,1,.733-2.4,16.115,16.115,0,0,1,1.407-2.655,18.914,18.914,0,0,1,3.22-3.538,14.837,14.837,0,0,1,5.6-2.936,18.262,18.262,0,0,1,4.292-.531,11.182,11.182,0,0,1,1.468.081,16.157,16.157,0,0,1,3.941.9,18.911,18.911,0,0,1,2.774,1.408,14.735,14.735,0,0,1,2.4,1.913,20.667,20.667,0,0,1,2.014,2.311,16.11,16.11,0,0,1,1.555,2.737,18.313,18.313,0,0,1,.836,2.583,18.546,18.546,0,0,1,.368,2.777c.022.368,0,1.574,0,1.586.008.125-.042.622-.063.834v.012a11.344,11.344,0,0,1-.224,1.489,1.726,1.726,0,0,1-.245.807s-.138.292-.18.362a5.266,5.266,0,0,0-.14.879,3.911,3.911,0,0,0-.03,1.282,2.508,2.508,0,0,0,.547,1.488,3.4,3.4,0,0,0,1.071.859,5.715,5.715,0,0,0,.654.3,6.326,6.326,0,0,0,1.051.281,7.556,7.556,0,0,1-1.908.542,14.52,14.52,0,0,1-2.07.177s-.111,0-.278,0c-.245,0-.617,0-1-.021l-.582-.042a.914.914,0,0,1-.217-.062c-.191.235-.505.572-.908.974-.061.063-.374.385-.573.561l-.083.079c-.118.109-.372.314-.754.607-.086.068-.183.142-.288.221-.474.358-.931.694-.936.7a14,14,0,0,1-3.922,1.78,20.618,20.618,0,0,1-4.258.591C-6884.13,44.665-6884.253,44.667-6884.374,44.667Zm6.181-17.807a3.1,3.1,0,0,0-2.207.915,3.1,3.1,0,0,0-.913,2.207,3.125,3.125,0,0,0,3.122,3.12,3.125,3.125,0,0,0,3.121-3.121A3.127,3.127,0,0,0-6878.193,26.859Zm-12.241-2.509h-.012a3.126,3.126,0,0,0-3.117,3.125,3.126,3.126,0,0,0,3.121,3.117h0a3.124,3.124,0,0,0,3.118-3.124,3.138,3.138,0,0,0-.915-2.208A3.1,3.1,0,0,0-6890.434,24.35Z" transform="translate(6899.634 -13.667)" fill="#fff"/>
</svg>
