<svg id="Icon_feather-instagram" data-name="Icon feather-instagram" xmlns="http://www.w3.org/2000/svg" width="23.823" height="23.824" viewBox="0 0 23.823 23.824">
  <path id="Path_610" data-name="Path 610" d="M8.956,3H20.867a5.956,5.956,0,0,1,5.956,5.956V20.868a5.956,5.956,0,0,1-5.956,5.956H8.956A5.956,5.956,0,0,1,3,20.868V8.956A5.956,5.956,0,0,1,8.956,3Z" transform="translate(-3 -3)" fill="#fff"/>
  <path id="Path_611" data-name="Path 611" d="M21.543,16a4.765,4.765,0,1,1-4.014-4.014A4.765,4.765,0,0,1,21.543,16Z" transform="translate(-4.866 -4.839)" fill="none" stroke="#0f4164" stroke-linecap="round" stroke-linejoin="round" stroke-width="3"/>
  <path id="Path_612" data-name="Path 612" d="M26.25,9.75h0" transform="translate(-7.787 -4.39)" fill="none" stroke="#0f4164" stroke-linecap="round" stroke-linejoin="round" stroke-width="3"/>
</svg>
