<svg xmlns="http://www.w3.org/2000/svg" width="47" height="47" viewBox="0 0 47 47">
  <g id="satisfaction" transform="translate(-1 -1)">
    <path id="Path_587" data-name="Path 587" d="M45.726,40.645H41.556a.379.379,0,0,1-.3-.606,11.055,11.055,0,0,0,2.2-6.6v-.379a3.8,3.8,0,0,0-3.79-3.79,1.518,1.518,0,0,0-1.516,1.516V32.1a7.063,7.063,0,0,1-3.56,6.134l-4.222,2.413H28.29V39.129H14.631a7.568,7.568,0,1,0-3.018,2.395V54.29H28.29V52.774h2.129l3.79,1.516H45.726a2.264,2.264,0,0,0,1.683-3.79,2.239,2.239,0,0,0,0-3.032,2.239,2.239,0,0,0,0-3.032,2.264,2.264,0,0,0-1.683-3.79ZM2.516,34.581A6.065,6.065,0,1,1,13.3,38.374a6.062,6.062,0,0,0-2.222-1.727,3.79,3.79,0,1,0-5,0,6.078,6.078,0,0,0-2.222,1.727,6.03,6.03,0,0,1-1.34-3.793Zm3.79-.758A2.274,2.274,0,1,1,8.581,36.1,2.277,2.277,0,0,1,6.306,33.823Zm-1.358,5.6a4.547,4.547,0,0,1,7.265,0,6.019,6.019,0,0,1-7.265,0Zm8.181,1.22H23.742V52.774H13.129ZM26.774,52.774H25.258V40.645h1.516Zm18.952,0H34.5l-3.79-1.516H28.29v-9.1h2.476l4.571-2.612A8.582,8.582,0,0,0,39.661,32.1V30.79a2.277,2.277,0,0,1,2.274,2.274v.379a9.534,9.534,0,0,1-1.9,5.686,1.9,1.9,0,0,0,1.517,3.032h4.169a.758.758,0,1,1,0,1.516h-3.79v1.516h3.79a.758.758,0,0,1,0,1.516h-3.79v1.516h3.79a.758.758,0,0,1,0,1.516h-3.79v1.516h3.79a.758.758,0,1,1,0,1.516Z" transform="translate(0 -6.29)" fill="#fff"/>
    <path id="Path_588" data-name="Path 588" d="M50.581,23.161A7.581,7.581,0,1,0,43,15.581,7.589,7.589,0,0,0,50.581,23.161Zm-3.633-2.736a4.547,4.547,0,0,1,7.265,0,6.019,6.019,0,0,1-7.265,0Zm1.358-5.6A2.274,2.274,0,1,1,50.581,17.1,2.277,2.277,0,0,1,48.306,14.823Zm2.274-5.306A6.058,6.058,0,0,1,55.3,19.374a6.062,6.062,0,0,0-2.222-1.727,3.79,3.79,0,1,0-5,0,6.078,6.078,0,0,0-2.222,1.727,6.058,6.058,0,0,1,4.724-9.858Z" transform="translate(-10.161 -1.694)" fill="#fff"/>
    <path id="Path_589" data-name="Path 589" d="M23.613,22.226A10.613,10.613,0,1,0,13,11.613,10.625,10.625,0,0,0,23.613,22.226Zm0-1.516A9.067,9.067,0,0,1,17.1,17.945a6.781,6.781,0,0,1,1.84-2.967l1.187,4.749,3.491-2.618L27.1,19.727l1.187-4.749a6.8,6.8,0,0,1,1.84,2.967A9.069,9.069,0,0,1,23.613,20.71ZM20.581,8.581a3.032,3.032,0,1,1,3.032,3.032A3.035,3.035,0,0,1,20.581,8.581Zm3.032,6.4-1.414-1.7a6.668,6.668,0,0,1,2.828,0ZM26.566,13.8c.137.065.272.133.4.208l-.784,3.135-1.48-1.111Zm-5.907,0,1.86,2.232-1.48,1.111-.784-3.135C20.387,13.934,20.522,13.867,20.659,13.8ZM23.613,2.516a9.084,9.084,0,0,1,7.621,14.048,8.3,8.3,0,0,0-4.765-4.448,4.548,4.548,0,1,0-5.712,0,8.3,8.3,0,0,0-4.765,4.448A9.085,9.085,0,0,1,23.613,2.516Z" transform="translate(-2.903)" fill="#fff"/>
    <path id="Path_590" data-name="Path 590" d="M23,31h1.516v1.516H23Z" transform="translate(-5.323 -7.258)" fill="#fff"/>
    <path id="Path_591" data-name="Path 591" d="M27,31H39.129v1.516H27Z" transform="translate(-6.29 -7.258)" fill="#fff"/>
    <path id="Path_592" data-name="Path 592" d="M23,35H38.161v1.516H23Z" transform="translate(-5.323 -8.226)" fill="#fff"/>
    <path id="Path_593" data-name="Path 593" d="M23,39H36.645v1.516H23Z" transform="translate(-5.323 -9.194)" fill="#fff"/>
    <path id="Path_594" data-name="Path 594" d="M19,57h1.516v1.516H19Z" transform="translate(-4.355 -13.548)" fill="#fff"/>
    <path id="Path_595" data-name="Path 595" d="M23,57h1.516v1.516H23Z" transform="translate(-5.323 -13.548)" fill="#fff"/>
    <path id="Path_596" data-name="Path 596" d="M27,57h1.516v1.516H27Z" transform="translate(-6.29 -13.548)" fill="#fff"/>
  </g>
</svg>
