<svg xmlns="http://www.w3.org/2000/svg" width="47" height="47" viewBox="0 0 47 47">
  <g id="review_copy" data-name="review copy" transform="translate(0)">
    <path id="Path_575" data-name="Path 575" d="M12.54,208.291H11.3v-1.3a6.805,6.805,0,0,0,4.464-4.476,1.709,1.709,0,0,0,.367.04c1.281,0,2.238-1.6,2.238-3.028a2.321,2.321,0,0,0-1.309-2.206,8.244,8.244,0,0,0,.123-3.449,6.1,6.1,0,0,0-2.012-3.715c-1.332-1.1-3.274-1.634-5.939-1.634a11.122,11.122,0,0,0-4.61.815.688.688,0,1,0,.568,1.254,9.952,9.952,0,0,1,4.042-.692c2.3,0,4,.444,5.063,1.319a4.637,4.637,0,0,1,1.536,2.914,7.007,7.007,0,0,1-.187,3.151,1.829,1.829,0,0,0-.775,1.052c-.914-1.536-2.577-2.161-4.191-2.768a8.035,8.035,0,0,1-3.492-1.994,1.528,1.528,0,0,0-1.7-.589,3.342,3.342,0,0,0-1.808,2.693c-.006.068-.111,1.379-.222,2.307a1.631,1.631,0,0,0-.63-.7,7.012,7.012,0,0,1-.188-3.151,5.813,5.813,0,0,1,.686-1.926.688.688,0,1,0-1.179-.712,7.152,7.152,0,0,0-.859,2.377,8.25,8.25,0,0,0,.124,3.449A2.321,2.321,0,0,0,.1,199.525c0,1.429.957,3.028,2.238,3.028a1.7,1.7,0,0,0,.367-.04,6.8,6.8,0,0,0,4.468,4.476v1.3H5.93A5.937,5.937,0,0,0,0,214.221v3.3a.688.688,0,0,0,.688.688H17.782a.688.688,0,0,0,.688-.688v-3.3a5.937,5.937,0,0,0-5.93-5.93Zm-3.991,1.377H9.926v3.48a.688.688,0,0,1-1.377,0Zm7.585-8.492a.347.347,0,0,1-.091-.013c.055-.545.029-.858.035-1.721a1.933,1.933,0,0,1,.223-.936.92.92,0,0,1,.694,1.019C16.994,200.395,16.41,201.176,16.133,201.176ZM1.476,199.525a.92.92,0,0,1,.694-1.019,1.93,1.93,0,0,1,.223.934c.007.866-.02,1.178.035,1.723a.344.344,0,0,1-.091.013C2.061,201.176,1.476,200.395,1.476,199.525Zm2.37,1.856v-.005a6.557,6.557,0,0,1-.075-1.194,1.058,1.058,0,0,0,.7-.49,16.52,16.52,0,0,0,.576-3.9,2.173,2.173,0,0,1,.854-1.494c.068-.022.185.107.232.163a9.163,9.163,0,0,0,4.061,2.4c1.711.643,3.189,1.2,3.743,2.713a.979.979,0,0,0,.762.636,6.427,6.427,0,0,1-.075,1.172v.005a5.467,5.467,0,0,1-10.778,0Zm6.08,5.889v1.021H8.549v-1.021A7,7,0,0,0,9.926,207.27Zm7.167,9.568H1.377v-2.616a4.559,4.559,0,0,1,4.553-4.553H7.172v3.48a2.065,2.065,0,1,0,4.131,0v-3.48H12.54a4.559,4.559,0,0,1,4.553,4.553Z" transform="translate(0 -171.214)" fill="#fff"/>
    <path id="Path_576" data-name="Path 576" d="M326.2,266.309l-.521,1.054a1.018,1.018,0,0,1-.767.555l-1.166.169a1.451,1.451,0,0,0-.8,2.476l.844.82a1.012,1.012,0,0,1,.292.9l-.2,1.159a1.451,1.451,0,0,0,2.108,1.531l1.043-.547a1.022,1.022,0,0,1,.949,0l1.043.547a1.453,1.453,0,0,0,2.108-1.531l-.2-1.159a1.012,1.012,0,0,1,.292-.9l.844-.82a1.451,1.451,0,0,0-.805-2.476l-1.166-.169a1.018,1.018,0,0,1-.767-.555l-.522-1.054a1.454,1.454,0,0,0-2.606,0Zm1.372.611.521,1.054a2.4,2.4,0,0,0,1.8,1.308l1.166.169a.068.068,0,0,1,.062.051.065.065,0,0,1-.019.075l-.844.82a2.388,2.388,0,0,0-.689,2.117l.2,1.159a.066.066,0,0,1-.03.072.069.069,0,0,1-.082.006l-1.043-.547a2.4,2.4,0,0,0-2.228,0l-1.043.547a.07.07,0,0,1-.082-.006.066.066,0,0,1-.03-.072l.2-1.159a2.388,2.388,0,0,0-.689-2.117l-.844-.82a.065.065,0,0,1-.019-.075.068.068,0,0,1,.062-.051l1.166-.169a2.4,2.4,0,0,0,1.8-1.308l.521-1.054a.077.077,0,0,1,.138,0Z" transform="translate(-292.893 -241.128)" fill="#fff"/>
    <path id="Path_577" data-name="Path 577" d="M285.463,152.487a1.057,1.057,0,0,0,1.056,1.056h4.773a1.057,1.057,0,0,0,1.056-1.056v-4.773a1.057,1.057,0,0,0-1.056-1.056h-4.773a1.057,1.057,0,0,0-1.056,1.056Zm1.377-4.452h4.131v4.131H286.84Z" transform="translate(-259.258 -133.195)" fill="#fff"/>
    <path id="Path_578" data-name="Path 578" d="M388.188,160.035h5.875a.688.688,0,0,0,0-1.377h-5.875a.688.688,0,0,0,0,1.377Z" transform="translate(-351.929 -144.094)" fill="#fff"/>
    <path id="Path_579" data-name="Path 579" d="M388.188,192.035h5.875a.688.688,0,0,0,0-1.377h-5.875a.688.688,0,0,0,0,1.377Z" transform="translate(-351.929 -173.156)" fill="#fff"/>
    <path id="Path_580" data-name="Path 580" d="M315.081,401.5H302.688a.688.688,0,0,0,0,1.377h12.393a.688.688,0,0,0,0-1.377Z" transform="translate(-274.277 -364.644)" fill="#fff"/>
    <path id="Path_581" data-name="Path 581" d="M315.081,433.5H302.688a.688.688,0,0,0,0,1.377h12.393a.688.688,0,0,0,0-1.377Z" transform="translate(-274.277 -393.706)" fill="#fff"/>
    <path id="Path_582" data-name="Path 582" d="M291.292,46.658h-4.773a1.057,1.057,0,0,0-1.056,1.056v4.773a1.057,1.057,0,0,0,1.056,1.056h4.773a1.057,1.057,0,0,0,1.056-1.056V47.714A1.057,1.057,0,0,0,291.292,46.658Zm-.321,5.508H286.84V48.035h4.131Z" transform="translate(-259.258 -42.375)" fill="#fff"/>
    <path id="Path_583" data-name="Path 583" d="M388.188,60.035h5.875a.688.688,0,0,0,0-1.377h-5.875a.688.688,0,0,0,0,1.377Z" transform="translate(-351.929 -53.273)" fill="#fff"/>
    <path id="Path_584" data-name="Path 584" d="M388.188,92.035h5.875a.688.688,0,0,0,0-1.377h-5.875a.688.688,0,0,0,0,1.377Z" transform="translate(-351.929 -82.336)" fill="#fff"/>
    <path id="Path_585" data-name="Path 585" d="M219.16,122.813a.688.688,0,0,0-.688.688v1.143a1.149,1.149,0,0,1-1.147,1.147H198.047a1.149,1.149,0,0,1-1.147-1.147v-8.128a.688.688,0,0,0-.688-.688h-3.229l3.658-2.905a.688.688,0,0,0,.26-.539V88.96a.688.688,0,1,0-1.377,0v23.091l-4.943,3.926a.688.688,0,0,0,.428,1.228h4.515v7.439a2.527,2.527,0,0,0,2.524,2.524h19.277a2.527,2.527,0,0,0,2.524-2.524V123.5A.688.688,0,0,0,219.16,122.813Z" transform="translate(-172.848 -80.169)" fill="#fff"/>
    <path id="Path_586" data-name="Path 586" d="M268.8,0H249.524A2.527,2.527,0,0,0,247,2.524v3.3a.688.688,0,0,0,1.377,0v-3.3a1.149,1.149,0,0,1,1.147-1.147H268.8a1.149,1.149,0,0,1,1.147,1.147V40.378a.688.688,0,0,0,1.377,0V2.524A2.527,2.527,0,0,0,268.8,0Z" transform="translate(-224.326)" fill="#fff"/>
  </g>
</svg>
