<svg id="layout" xmlns="http://www.w3.org/2000/svg" width="52.222" height="47" viewBox="0 0 52.222 47">
  <path id="Path_597" data-name="Path 597" d="M46.149,264.535H43.538a.87.87,0,0,0,0,1.741h2.611a.87.87,0,0,0,0-1.741Zm0,0" transform="translate(-38.316 -237.554)" fill="#fff"/>
  <path id="Path_598" data-name="Path 598" d="M43.538,198.006h9.574a.87.87,0,1,0,0-1.741H43.538a.87.87,0,0,0,0,1.741Zm0,0" transform="translate(-38.316 -176.247)" fill="#fff"/>
  <path id="Path_599" data-name="Path 599" d="M171.538,198.006h12.185a.87.87,0,0,0,0-1.741H171.538a.87.87,0,0,0,0,1.741Zm0,0" transform="translate(-153.26 -176.247)" fill="#fff"/>
  <path id="Path_600" data-name="Path 600" d="M49.631,230.4H43.538a.87.87,0,0,0,0,1.741h6.093a.87.87,0,0,0,0-1.741Zm0,0" transform="translate(-38.316 -206.899)" fill="#fff"/>
  <path id="Path_601" data-name="Path 601" d="M150.461,230.4H137.405a.87.87,0,0,0,0,1.741h13.056a.87.87,0,1,0,0-1.741Zm0,0" transform="translate(-122.609 -206.899)" fill="#fff"/>
  <path id="Path_602" data-name="Path 602" d="M359.269,326.006h6.093a.87.87,0,0,0,0-1.741h-6.093a.87.87,0,1,0,0,1.741Zm0,0" transform="translate(-321.843 -291.192)" fill="#fff"/>
  <path id="Path_603" data-name="Path 603" d="M454.006,324.266h-.87a.87.87,0,1,0,0,1.741h.87a.87.87,0,1,0,0-1.741Zm0,0" transform="translate(-406.136 -291.192)" fill="#fff"/>
  <path id="Path_604" data-name="Path 604" d="M360.139,358.4h-.87a.87.87,0,1,0,0,1.741h.87a.87.87,0,1,0,0-1.741Zm0,0" transform="translate(-321.843 -321.843)" fill="#fff"/>
  <path id="Path_605" data-name="Path 605" d="M408.029,358.4h-6.092a.87.87,0,1,0,0,1.741h6.092a.87.87,0,1,0,0-1.741Zm0,0" transform="translate(-360.159 -321.843)" fill="#fff"/>
  <path id="Path_606" data-name="Path 606" d="M35.874,56.594h8.7a1.741,1.741,0,0,0,1.741-1.741V44.409a1.741,1.741,0,0,0-1.741-1.741h-8.7a1.741,1.741,0,0,0-1.741,1.741V54.853A1.741,1.741,0,0,0,35.874,56.594Zm0-12.185h8.7V54.853h-8.7Zm0,0" transform="translate(-30.651 -38.316)" fill="#fff"/>
  <path id="Path_607" data-name="Path 607" d="M368.843,204.8h-8.7a1.741,1.741,0,0,0-1.741,1.741V213.5a1.741,1.741,0,0,0,1.741,1.741h8.7a1.741,1.741,0,0,0,1.741-1.741v-6.963A1.741,1.741,0,0,0,368.843,204.8Zm-8.7,8.7v-6.963h8.7V213.5Zm0,0" transform="translate(-321.843 -183.912)" fill="#fff"/>
  <path id="Path_608" data-name="Path 608" d="M180.94,56.594h8.7a1.741,1.741,0,0,0,1.741-1.741V44.409a1.741,1.741,0,0,0-1.741-1.741h-8.7a1.741,1.741,0,0,0-1.741,1.741V54.853A1.741,1.741,0,0,0,180.94,56.594Zm0-12.185h8.7V54.853h-8.7Zm0,0" transform="translate(-160.922 -38.316)" fill="#fff"/>
  <path id="Path_609" data-name="Path 609" d="M48.741,12.185V4.352A4.357,4.357,0,0,0,44.389,0H4.352A4.357,4.357,0,0,0,0,4.352V35.685a4.357,4.357,0,0,0,4.352,4.352H18.278v1.741H14.8a3.481,3.481,0,0,0-3.481,3.481v.87a.87.87,0,0,0,.87.871H48.741a3.481,3.481,0,0,0,3.481-3.481V15.667A3.482,3.482,0,0,0,48.741,12.185ZM33.074,40.037v1.741H30.463V40.037ZM43.519,12.185H36.555a3.452,3.452,0,0,0-1.741.484V6.093h8.7Zm-8.7,6.963H50.481V40.037H34.815Zm15.667-3.481v1.741H34.815V15.667a1.741,1.741,0,0,1,1.741-1.741H48.741A1.741,1.741,0,0,1,50.481,15.667ZM4.352,1.741H44.389A2.611,2.611,0,0,1,47,4.352v7.833H45.259V6.093a1.741,1.741,0,0,0-1.741-1.741h-8.7a1.741,1.741,0,0,0-1.741,1.741V23.5H31.333a.87.87,0,0,0,0,1.741h1.741v1.741H11.315a.87.87,0,1,0,0,1.741H33.074v2.611H1.741V4.352A2.611,2.611,0,0,1,4.352,1.741ZM1.741,35.685V33.074H33.074V38.3H4.352A2.611,2.611,0,0,1,1.741,35.685Zm18.278,4.352h8.7v1.741h-8.7ZM14.8,43.519H33.074a3.448,3.448,0,0,0,.484,1.741h-20.5A1.741,1.741,0,0,1,14.8,43.519Zm33.944,1.741H43.519v-.871a.87.87,0,0,0-1.741,0v.871H36.555a1.741,1.741,0,0,1-1.741-1.741V41.778H50.481v1.741A1.741,1.741,0,0,1,48.741,45.259Zm0,0" fill="#fff"/>
</svg>
