<svg id="Page-1" xmlns="http://www.w3.org/2000/svg" width="46.992" height="47" viewBox="0 0 46.992 47">
  <g id="_002---Secure-Server" data-name="002---Secure-Server" transform="translate(0 0)">
    <circle id="Oval" cx="0.783" cy="0.783" r="0.783" transform="translate(3.133 7.832)" fill="#fff"/>
    <path id="Shape" d="M4.783,14A.783.783,0,0,0,4,14.783V16.35a.783.783,0,1,0,1.566,0V14.783A.783.783,0,0,0,4.783,14Z" transform="translate(-0.867 -3.036)" fill="#fff"/>
    <circle id="Oval-2" data-name="Oval" cx="0.783" cy="0.783" r="0.783" transform="translate(3.133 18.013)" fill="#fff"/>
    <path id="Shape-2" data-name="Shape" d="M4.783,30.133a.783.783,0,0,0,.783-.783V27.783a.783.783,0,0,0-1.566,0V29.35A.783.783,0,0,0,4.783,30.133Z" transform="translate(-0.867 -5.854)" fill="#fff"/>
    <circle id="Oval-3" data-name="Oval" cx="0.783" cy="0.783" r="0.783" transform="translate(3.133 28.194)" fill="#fff"/>
    <path id="Shape-3" data-name="Shape" d="M4.783,40A.783.783,0,0,0,4,40.783V42.35a.783.783,0,1,0,1.566,0V40.783A.783.783,0,0,0,4.783,40Z" transform="translate(-0.867 -8.673)" fill="#fff"/>
    <path id="Shape-4" data-name="Shape" d="M43.074,25.383V17.23A8.589,8.589,0,0,0,32.893,8.764V3.916C32.893.045,17.118,0,16.447,0S0,.045,0,3.916V35.243c0,3.871,15.775,3.916,16.447,3.916,2.244,0,4.355-.095,6.3-.273a12.521,12.521,0,1,0,20.323-13.5ZM41.508,17.23v6.878a12.419,12.419,0,0,0-1.566-.9V17.23a5.488,5.488,0,0,0-5.482-5.482,5.4,5.4,0,0,0-2.741.738,5.468,5.468,0,0,0-2.421,2.9,5.37,5.37,0,0,0-.32,1.847v5.98a12.419,12.419,0,0,0-1.566.9V17.23c0-.235.015-.461.035-.684a7.049,7.049,0,0,1,14.062.684Zm-3.133,5.334a12.389,12.389,0,0,0-7.832,0V17.23a3.809,3.809,0,0,1,.229-1.318,3.906,3.906,0,0,1,1.736-2.072,3.782,3.782,0,0,1,1.951-.526,3.921,3.921,0,0,1,3.916,3.916ZM25.969,15.786a63.907,63.907,0,0,1-9.523.66c-9.227,0-14.489-1.515-14.88-2.375V5.766c4,2.035,14.339,2.066,14.88,2.066S27.326,7.8,31.327,5.766v3.44A8.591,8.591,0,0,0,25.969,15.786Zm-24.4,8.467V15.947c4,2.035,14.339,2.066,14.88,2.066a66.754,66.754,0,0,0,9.4-.621V25.38c-.235.225-.462.461-.681.7a66.4,66.4,0,0,1-8.717.543c-9.227,0-14.489-1.515-14.88-2.375ZM16.447,1.566c9.136,0,14.387,1.488,14.868,2.35-.481.861-5.732,2.35-14.868,2.35-9.241,0-14.507-1.521-14.88-2.3V3.946c.374-.858,5.639-2.379,14.88-2.379Zm0,36.026c-9.227,0-14.489-1.515-14.88-2.375V26.128c4,2.035,14.339,2.066,14.88,2.066a71.308,71.308,0,0,0,7.4-.374,12.326,12.326,0,0,0-1.571,9.537c-1.812.152-3.763.235-5.834.235ZM34.46,45.424A10.964,10.964,0,1,1,45.424,34.46,10.964,10.964,0,0,1,34.46,45.424Z" transform="translate(0 0)" fill="#fff"/>
    <path id="Shape-5" data-name="Shape" d="M41.4,32a9.4,9.4,0,1,0,9.4,9.4A9.4,9.4,0,0,0,41.4,32Zm0,17.23A7.832,7.832,0,1,1,49.23,41.4,7.832,7.832,0,0,1,41.4,49.23Z" transform="translate(-6.939 -6.939)" fill="#fff"/>
    <path id="Shape-6" data-name="Shape" d="M46.265,40.132a3.132,3.132,0,1,0-5.518,2.017.853.853,0,0,1,.212.783l-.646,2.252a1.566,1.566,0,0,0,1.508,2h2.622a1.566,1.566,0,0,0,1.508-2l-.645-2.255a.807.807,0,0,1,.186-.749,3.113,3.113,0,0,0,.771-2.047ZM43.8,43.359l.644,2.256H41.822l.643-2.252a2.422,2.422,0,0,0-.525-2.229,1.53,1.53,0,0,1-.341-1.32,1.57,1.57,0,0,1,1.27-1.226,1.707,1.707,0,0,1,.265-.021A1.566,1.566,0,0,1,44.7,40.132a1.532,1.532,0,0,1-.387,1.018A2.365,2.365,0,0,0,43.8,43.359Z" transform="translate(-8.673 -8.022)" fill="#fff"/>
  </g>
</svg>
