<svg xmlns="http://www.w3.org/2000/svg" width="47.28" height="68" viewBox="0 0 47.28 68">
  <g id="Group_34" data-name="Group 34" transform="translate(-78.005)">
    <path id="Path_50" data-name="Path 50" d="M147.605,53a16.6,16.6,0,1,0,16.6,16.6,16.62,16.62,0,0,0-16.6-16.6Zm0,31.21A14.609,14.609,0,1,1,162.214,69.6,14.626,14.626,0,0,1,147.605,84.208Z" transform="translate(-45.96 -45.959)" fill="#3479b7"/>
    <path id="Path_51" data-name="Path 51" d="M173.62,83a12.617,12.617,0,1,0,12.617,12.617A12.631,12.631,0,0,0,173.62,83Zm0,23.242a10.625,10.625,0,1,1,10.625-10.625A10.637,10.637,0,0,1,173.62,106.239Z" transform="translate(-71.975 -71.974)" fill="#3479b7"/>
    <path id="Path_52" data-name="Path 52" d="M86.372,39.166a2.874,2.874,0,0,1,.641,1.21,5.926,5.926,0,0,0,2.812,3.736q.261.15.531.273V64.939a3.048,3.048,0,0,0,1.787,2.8,2.954,2.954,0,0,0,3.2-.518l5.63-5.077a1,1,0,0,1,1.337,0l5.63,5.077a2.961,2.961,0,0,0,1.99.775,3.011,3.011,0,0,0,1.18-.243,3.056,3.056,0,0,0,1.821-2.826V44.386c.18-.082,2.949-2.419,3.343-4.009a2.873,2.873,0,0,1,.641-1.21l1.992-1.052a5.974,5.974,0,0,0,3.8-7.2A3.081,3.081,0,0,1,123.5,27.9a5.931,5.931,0,0,0,1.788-4.263h0a5.931,5.931,0,0,0-1.788-4.263,3.081,3.081,0,0,1-.786-3.007,5.975,5.975,0,0,0-4.329-7.362,2.914,2.914,0,0,1-2.1-2.1,5.975,5.975,0,0,0-7.362-4.329,3.081,3.081,0,0,1-3.007-.786,5.975,5.975,0,0,0-8.526,0,3.081,3.081,0,0,1-3.007.786A5.975,5.975,0,0,0,87.013,6.9a2.914,2.914,0,0,1-2.1,2.1,5.975,5.975,0,0,0-4.329,7.362,3.081,3.081,0,0,1-.786,3.007,5.975,5.975,0,0,0,0,8.526,3.081,3.081,0,0,1,.786,3.007,5.974,5.974,0,0,0,3.8,7.2m26.562,26.9a1,1,0,0,1-1.664.736l-5.63-5.077a2.982,2.982,0,0,0-4,0l-5.63,5.077a1,1,0,0,1-1.664-.736V44.9a5.98,5.98,0,0,0,1.992-.184V59a1.66,1.66,0,0,0,2.774,1.231L98.3,59.153a4.966,4.966,0,0,1,3.266-1.292c.025,0,.051,0,.077,0s.051,0,.077,0a4.967,4.967,0,0,1,3.266,1.292l1.188,1.075A1.66,1.66,0,0,0,108.95,59V44.714a5.98,5.98,0,0,0,1.992.184V65.009Zm-8.3-17.813a5.925,5.925,0,0,0,3.267-1.7,2.974,2.974,0,0,1,1.049-.687V58.249l-.633-.573a6.961,6.961,0,0,0-3.683-1.738Zm-1.992,8.741a6.962,6.962,0,0,0-3.683,1.738l-.633.573V44.8a2.974,2.974,0,0,1,1.049.687,5.924,5.924,0,0,0,3.267,1.7ZM122.1,26.482a5.075,5.075,0,0,0-1.313,4.949,3.983,3.983,0,0,1-2.886,4.907,4.864,4.864,0,0,0-3.558,3.558,3.983,3.983,0,0,1-4.907,2.886,5.075,5.075,0,0,0-4.949,1.313,3.983,3.983,0,0,1-5.684,0,5.034,5.034,0,0,0-3.6-1.493,5.177,5.177,0,0,0-1.353.18A3.983,3.983,0,0,1,88.947,39.9a4.864,4.864,0,0,0-3.558-3.558A3.983,3.983,0,0,1,82.5,31.431a5.075,5.075,0,0,0-1.313-4.949,3.983,3.983,0,0,1,0-5.684A5.075,5.075,0,0,0,82.5,15.849a3.983,3.983,0,0,1,2.886-4.907,4.864,4.864,0,0,0,3.558-3.558A3.983,3.983,0,0,1,93.854,4.5,5.075,5.075,0,0,0,98.8,3.184a3.983,3.983,0,0,1,5.684,0A5.075,5.075,0,0,0,109.436,4.5a3.983,3.983,0,0,1,4.907,2.886,4.864,4.864,0,0,0,3.558,3.558,3.983,3.983,0,0,1,2.886,4.907A5.075,5.075,0,0,0,122.1,20.8a3.983,3.983,0,0,1,0,5.684Z" transform="translate(0 0)" fill="#3479b7"/>
    <path id="Path_53" data-name="Path 53" d="M217.445,134.07l-2.629-.382-1.176-2.382a1.66,1.66,0,0,0-2.977,0l-1.176,2.382-2.629.382a1.66,1.66,0,0,0-.92,2.832l1.9,1.854-.449,2.618a1.658,1.658,0,0,0,2.409,1.75l2.351-1.236,2.351,1.236a1.66,1.66,0,0,0,2.409-1.75l-.449-2.618,1.9-1.854a1.66,1.66,0,0,0-.92-2.832Zm-2.5,3.381a1.66,1.66,0,0,0-.477,1.469l.365,2.127-1.91-1a1.66,1.66,0,0,0-1.545,0l-1.91,1,.365-2.127a1.66,1.66,0,0,0-.477-1.47l-1.545-1.506,2.136-.31a1.66,1.66,0,0,0,1.25-.908l.955-1.935.955,1.935a1.66,1.66,0,0,0,1.25.908l2.136.31Z" transform="translate(-110.507 -113.065)" fill="#3479b7"/>
  </g>
</svg>
