<svg xmlns="http://www.w3.org/2000/svg" width="66.979" height="68" viewBox="0 0 66.979 68">
  <g id="jigsaw" transform="translate(-3.658)">
    <g id="Group_25" data-name="Group 25" transform="translate(3.658)">
      <g id="Group_24" data-name="Group 24" transform="translate(0)">
        <path id="Path_45" data-name="Path 45" d="M51.66,0H11.472A7.824,7.824,0,0,0,3.658,7.814V47.909a7.824,7.824,0,0,0,7.814,7.814h12.28V53.491H11.472a5.588,5.588,0,0,1-5.582-5.582V29.024H13.06a1.2,1.2,0,0,0,1.023-1.657,4.465,4.465,0,1,1,8.176,0,1.158,1.158,0,0,0,1.023,1.657H30.45v6.7a6.534,6.534,0,0,0-1.116-.093,6.7,6.7,0,0,0-2.679,12.838l.893-2.045a4.465,4.465,0,0,1,1.786-8.56,4.411,4.411,0,0,1,1.786.377,1.116,1.116,0,0,0,1.563-1.023V29.024h5.676a6.535,6.535,0,0,0-.095,1.116A6.717,6.717,0,0,0,43.622,36.7l.447-2.187A4.48,4.48,0,0,1,40.5,30.141a4.411,4.411,0,0,1,.377-1.786,1.116,1.116,0,0,0-1.023-1.563H32.682V21.115a6.535,6.535,0,0,0,1.116.095,6.7,6.7,0,0,0,0-13.4,6.535,6.535,0,0,0-1.116.095V2.233H51.66a5.588,5.588,0,0,1,5.582,5.582V26.792H50.072a1.116,1.116,0,0,0-1.023,1.563,4.411,4.411,0,0,1,.377,1.786H51.66a6.535,6.535,0,0,0-.095-1.116h6.793a1.116,1.116,0,0,0,1.116-1.116V7.814A7.824,7.824,0,0,0,51.66,0ZM33.8,10.047a4.465,4.465,0,1,1,0,8.931,4.411,4.411,0,0,1-1.786-.377,1.116,1.116,0,0,0-1.563,1.023V26.7H24.781a6.518,6.518,0,0,0,.087-1.024v-.093a6.7,6.7,0,0,0-13.4,0v.093a6.518,6.518,0,0,0,.087,1.024H5.891V7.814a5.588,5.588,0,0,1,5.582-5.582H30.45V9.4a1.116,1.116,0,0,0,1.563,1.023A4.411,4.411,0,0,1,33.8,10.047Z" transform="translate(-3.658)" fill="#3479b7"/>
      </g>
    </g>
    <g id="Group_27" data-name="Group 27" transform="translate(25.413 31.162)">
      <g id="Group_26" data-name="Group 26">
        <path id="Path_46" data-name="Path 46" d="M202.4,240.136l-9.385-6.462-3.6-9.63a1.116,1.116,0,0,0-1.436-.657l-.061.025-7.256,3.209a1.116,1.116,0,0,0-.592,1.42c.121.313.233.549.353.795a8.515,8.515,0,0,1,.365.838,4.467,4.467,0,1,1-8.634,1.342,1.116,1.116,0,0,0-1.509-1.1l-7.756,2.921a1.116,1.116,0,0,0-.652,1.436l2.784,7.438a6.292,6.292,0,0,0-1.083.3,6.712,6.712,0,1,0,5.721,12.091l2,5.332a1.116,1.116,0,0,0,1.437.654h0l11.06-4.167a6,6,0,0,0,3.535,3.157l.706-2.121a3.764,3.764,0,0,1-2.134-1.824l3.366-1.267a7.791,7.791,0,0,0,7.351,5.181v-2.233a5.616,5.616,0,0,1-5.582-5.582,1.116,1.116,0,0,0-.327-.789l-3.887-3.887a1.656,1.656,0,0,1-.153-2.153,1.625,1.625,0,0,1,1.2-.654,1.6,1.6,0,0,1,1.282.479l7.794,7.794,1.578-1.578-2.306-2.306a7.787,7.787,0,0,0-.1-5.219l-2.092-5.587,6.746,4.645a3.356,3.356,0,0,1,1.428,2.744v14.42h2.233v-14.42A5.591,5.591,0,0,0,202.4,240.136Zm-8.017,3.559a5.594,5.594,0,0,1,.326,2.571l-3.624-3.622a3.879,3.879,0,1,0-5.555,5.416l.069.069,3.531,3.531L173.354,257.6l-2.128-5.685a1.116,1.116,0,0,0-.8-.7,1.131,1.131,0,0,0-.242-.027,1.116,1.116,0,0,0-.781.318,4.465,4.465,0,1,1-4.675-7.411,4.3,4.3,0,0,1,1.1-.25,3.962,3.962,0,0,1,.7-.023,1.116,1.116,0,0,0,1.1-1.506l-2.916-7.785,5.316-2a6.7,6.7,0,1,0,12.845-3.637c-.1-.275-.2-.492-.285-.687l5.135-2.274Z" transform="translate(-159.563 -223.316)" fill="#3479b7"/>
      </g>
    </g>
  </g>
</svg>
