<svg xmlns="http://www.w3.org/2000/svg" width="68" height="67.91" viewBox="0 0 68 67.91">
  <g id="heart" transform="translate(0 -0.338)">
    <g id="Group_31" data-name="Group 31" transform="translate(22.669 0.338)">
      <g id="Group_30" data-name="Group 30" transform="translate(0 0)">
        <path id="Path_48" data-name="Path 48" d="M198.528.338a11.3,11.3,0,0,0-8.007,3.383A11.3,11.3,0,0,0,182.514.338c-6.519,0-11.826,5.749-11.826,12.818a14.093,14.093,0,0,0,3.369,8.959c3.669,4.482,14.934,16.895,15.413,17.425a1.421,1.421,0,0,0,1.048.465,1.442,1.442,0,0,0,1.054-.465c.479-.527,11.744-12.939,15.413-17.425a14.093,14.093,0,0,0,3.369-8.959C210.353,6.087,205.047.338,198.528.338Zm6.262,19.98c-2.978,3.638-11.322,12.9-14.271,16.158-2.949-3.261-11.293-12.52-14.271-16.158a11.4,11.4,0,0,1-2.728-7.165c0-5.5,4.035-9.982,8.993-9.982a8.643,8.643,0,0,1,6.876,3.559,1.469,1.469,0,0,0,2.258,0,8.652,8.652,0,0,1,6.879-3.559c4.958,0,8.993,4.479,8.993,9.984A11.4,11.4,0,0,1,204.789,20.318Z" transform="translate(-170.688 -0.338)" fill="#3479b7"/>
      </g>
    </g>
    <g id="Group_33" data-name="Group 33" transform="translate(0 34.336)">
      <g id="Group_32" data-name="Group 32">
        <path id="Path_49" data-name="Path 49" d="M67.851,276.948a9.254,9.254,0,0,0-10.591-4.87l-9.18,2.295c-.408-3.539-2.5-5.627-6.692-6.675l-24.576-5.46c.076-.538.136-1.054.178-1.536a1.41,1.41,0,0,0-.436-1.15c-2.428-2.3-12.138-3.046-15.056-3.219a1.448,1.448,0,0,0-1.057.383A1.43,1.43,0,0,0,0,257.75v25.5a1.417,1.417,0,0,0,1.417,1.417h8.5a1.415,1.415,0,0,0,1.346-.977c.037-.113.229-.708.521-1.629l20.3,6.766a16.3,16.3,0,0,0,5.873,1.419c2.873,0,6.239-1.258,13.634-4.287l15.583-7.083a1.42,1.42,0,0,0,.68-1.927ZM8.882,281.833H2.83V259.269c4.553.36,9.469,1.142,11.254,2.009C13.333,267.482,9.936,278.5,8.882,281.833Zm41.578,1.521c-11.911,4.879-12.322,4.726-17.43,2.8l-20.414-6.8c1.164-3.856,2.788-9.576,3.717-14.314l24.4,5.423c3.139.785,4.4,2.02,4.573,4.607l-2.72.68a7.047,7.047,0,0,1-3.105.074l-12.291-2.459a1.416,1.416,0,0,0-.555,2.777L38.932,278.6a9.934,9.934,0,0,0,1.944.19,9.768,9.768,0,0,0,2.4-.295l3.8-.949h.014l10.854-2.714a6.45,6.45,0,0,1,6.559,2.142Z" transform="translate(0 -256.333)" fill="#3479b7"/>
      </g>
    </g>
  </g>
</svg>
