<svg xmlns="http://www.w3.org/2000/svg" xmlns:xlink="http://www.w3.org/1999/xlink" width="65.324" height="86.663" viewBox="0 0 65.324 86.663">
  <defs>
    <clipPath id="clip-path">
      <circle id="Ellipse_10" data-name="Ellipse 10" cx="25.674" cy="25.674" r="25.674" transform="translate(1343.988 545.676)" fill="black"/>
    </clipPath>
  </defs>
  <g id="Group_69" data-name="Group 69" transform="translate(-1337.171 -538.889)">
    <g id="Group_52" data-name="Group 52">
      <g id="Group_51" data-name="Group 51">
        <path id="Path_225" data-name="Path 225" d="M1379.909,613.418a1.516,1.516,0,0,0-1.222-1.03l-5.18-.753-2.316-4.694a1.514,1.514,0,0,0-2.715,0l-2.316,4.694-5.18.753a1.513,1.513,0,0,0-.839,2.582l3.748,3.654-.885,5.158a1.513,1.513,0,0,0,2.2,1.6l4.633-2.436,4.634,2.436a1.513,1.513,0,0,0,2.2-1.6l-.885-5.158,3.748-3.654A1.515,1.515,0,0,0,1379.909,613.418Zm-5.874,3.841a1.946,1.946,0,0,0-.56,1.726l.645,3.757-3.379-1.776a1.946,1.946,0,0,0-1.814,0l-3.379,1.776.645-3.757a1.947,1.947,0,0,0-.56-1.726l-2.733-2.665,3.777-.548a1.95,1.95,0,0,0,1.468-1.066l1.688-3.422,1.689,3.422a1.95,1.95,0,0,0,1.468,1.066l3.777.548Z" fill="#fff"/>
      </g>
    </g>
    <g id="Group_52-2" data-name="Group 52">
      <g id="Group_51-2" data-name="Group 51">
        <path id="Path_225-2" data-name="Path 225" d="M1402.421,613.215a1.517,1.517,0,0,0-1.222-1.031l-5.18-.753-2.316-4.693a1.513,1.513,0,0,0-2.715,0l-2.316,4.693-5.18.753a1.514,1.514,0,0,0-.839,2.582l3.748,3.654-.885,5.159a1.513,1.513,0,0,0,2.2,1.6l4.634-2.436,4.633,2.436a1.514,1.514,0,0,0,2.2-1.6l-.886-5.159,3.748-3.654A1.512,1.512,0,0,0,1402.421,613.215Zm-5.874,3.84a1.95,1.95,0,0,0-.56,1.726l.646,3.758-3.38-1.777a1.952,1.952,0,0,0-1.814,0l-3.379,1.777.646-3.758a1.953,1.953,0,0,0-.56-1.726l-2.734-2.664,3.777-.549a1.947,1.947,0,0,0,1.468-1.066l1.689-3.421,1.688,3.421a1.947,1.947,0,0,0,1.468,1.066l3.777.549Z" fill="#fff"/>
      </g>
    </g>
    <g id="Group_52-3" data-name="Group 52">
      <g id="Group_51-3" data-name="Group 51">
        <path id="Path_225-3" data-name="Path 225" d="M1357.4,613.215a1.515,1.515,0,0,0-1.221-1.031l-5.18-.753-2.317-4.693a1.512,1.512,0,0,0-2.714,0l-2.317,4.693-5.18.753a1.513,1.513,0,0,0-.838,2.582l3.747,3.654-.885,5.159a1.514,1.514,0,0,0,2.2,1.6l4.634-2.436,4.634,2.436a1.513,1.513,0,0,0,2.2-1.6l-.885-5.159,3.747-3.654A1.512,1.512,0,0,0,1357.4,613.215Zm-5.874,3.84a1.95,1.95,0,0,0-.56,1.726l.646,3.758-3.379-1.777a1.952,1.952,0,0,0-1.814,0l-3.38,1.777.646-3.758a1.95,1.95,0,0,0-.56-1.726l-2.734-2.664,3.778-.549a1.947,1.947,0,0,0,1.468-1.066l1.688-3.421,1.689,3.421a1.945,1.945,0,0,0,1.467,1.066l3.778.549Z" fill="#fff"/>
      </g>
    </g>
    <g id="Group_65" data-name="Group 65">
      <path id="Path_263" data-name="Path 263" d="M1369.662,603.811a32.45,32.45,0,1,1,26.914-14.307,1.412,1.412,0,0,1-2.34-1.58,29.655,29.655,0,1,0-5.365,6,1.411,1.411,0,0,1,1.83,2.148A32.464,32.464,0,0,1,1369.662,603.811Z" fill="#fff"/>
      <circle id="Ellipse_9" data-name="Ellipse 9" cx="1.527" cy="1.527" r="1.527" transform="translate(1391.187 590.575)" fill="#fff"/>
    </g>
    <path id="Path_264" data-name="Path 264" d="M1369.662,598.279a26.929,26.929,0,1,1,26.93-26.929A26.961,26.961,0,0,1,1369.662,598.279Zm0-51.346a24.418,24.418,0,1,0,24.418,24.417A24.445,24.445,0,0,0,1369.662,546.933Z" fill="#fff"/>
    <g id="Group_68" data-name="Group 68">
      <g id="Group_67" data-name="Group 67" clip-path="url(#clip-path)">
        <g id="Group_66" data-name="Group 66">
          <path id="Path_207" data-name="Path 207" d="M1375.952,575.454h-12.587a11.342,11.342,0,0,0-11.326,11.329v10.069a1.26,1.26,0,0,0,1.259,1.26h32.727a1.261,1.261,0,0,0,1.26-1.26V586.783A11.343,11.343,0,0,0,1375.952,575.454Zm-3.242,3.181-2.741,3.288a.405.405,0,0,1-.622,0l-2.74-3.289a.4.4,0,0,1,.311-.664h5.481A.4.4,0,0,1,1372.71,578.635Zm-4.31,7.642V595.6h-7.553v-7.555a1.258,1.258,0,0,0-1.258-1.258h0a1.259,1.259,0,0,0-1.259,1.258v7.553h-3.776v-8.811a8.818,8.818,0,0,1,7.341-8.678l6.166,7.248A1.425,1.425,0,0,1,1368.4,586.277Zm9.022-8.174a8.817,8.817,0,0,1,7.341,8.678v8.813h-3.776v-7.553a1.259,1.259,0,0,0-1.259-1.258h0a1.259,1.259,0,0,0-1.259,1.258v7.553h-7.552v-9.319a1.422,1.422,0,0,1,.34-.924Z" fill="#fff"/>
          <path id="Path_208" data-name="Path 208" d="M1378.412,567.442v-3.776a1.259,1.259,0,0,0,1.259-1.259h0a10.07,10.07,0,1,0-20.14,0h0a1.259,1.259,0,0,0,1.259,1.259h0v3.776a8.811,8.811,0,0,0,17.622,0Zm-8.811-12.588a7.566,7.566,0,0,1,7.406,6.07,8.487,8.487,0,0,1-3.842-2.992,1.258,1.258,0,0,0-.922-.554h-.126a1.262,1.262,0,0,0-.889.369c-1.374,1.369-5.752,2.545-9.027,3.149a7.564,7.564,0,0,1,7.4-6.042Zm0,18.881a6.3,6.3,0,0,1-6.294-6.293l-.009-4.19a28.429,28.429,0,0,0,8.61-2.875,10.513,10.513,0,0,0,3.987,2.81v4.255a6.3,6.3,0,0,1-6.294,6.293Z" fill="#fff"/>
        </g>
      </g>
    </g>
  </g>
</svg>
