<svg xmlns="http://www.w3.org/2000/svg" width="66.583" height="85" viewBox="0 0 66.583 85">
  <g id="personal" transform="translate(-0.5)">
    <path id="Path_207" data-name="Path 207" d="M99.413,336H85.246A12.764,12.764,0,0,0,72.5,348.75v11.333a1.417,1.417,0,0,0,1.417,1.417h36.833a1.417,1.417,0,0,0,1.417-1.417V348.75A12.764,12.764,0,0,0,99.413,336Zm-.26,9.617L95,344.925l3.461-4.155Zm-2.766-6.784L92.329,343.7l-4.057-4.869ZM86.2,340.771l3.461,4.154-4.152.691ZM75.329,348.75a9.925,9.925,0,0,1,8.262-9.767l-1.164,8.149a1.417,1.417,0,0,0,1.635,1.6l6.851-1.142v11.079h-8.5V348.75H79.579v9.917h-4.25Zm34,9.917h-4.25V348.75h-2.833v9.917h-8.5V347.588l6.851,1.142a1.417,1.417,0,0,0,1.635-1.6l-1.165-8.149a9.923,9.923,0,0,1,8.262,9.767Zm0,0" transform="translate(-59.247 -276.5)" fill="#fff"/>
    <path id="Path_208" data-name="Path 208" d="M141.746,201v-4.25a1.417,1.417,0,0,0,1.417-1.417,11.333,11.333,0,1,0-22.667,0,1.417,1.417,0,0,0,1.417,1.417V201a9.917,9.917,0,0,0,19.833,0Zm-9.917-14.167a8.516,8.516,0,0,1,8.336,6.831,9.54,9.54,0,0,1-4.324-3.367,1.415,1.415,0,0,0-1.038-.623h-.142a1.417,1.417,0,0,0-1,.415c-1.547,1.541-6.474,2.864-10.16,3.544A8.513,8.513,0,0,1,131.829,186.833Zm0,21.25A7.093,7.093,0,0,1,124.746,201l-.01-4.716a32,32,0,0,0,9.69-3.235,11.834,11.834,0,0,0,4.487,3.162V201A7.092,7.092,0,0,1,131.829,208.083Zm0,0" transform="translate(-98.747 -151.417)" fill="#fff"/>
    <path id="Path_209" data-name="Path 209" d="M15.5,112.5h-.83a1.416,1.416,0,0,0-1.417,1.417v17h2.833V115.333h2.833a1.417,1.417,0,0,0,1-2.418l-8.5-8.5a1.416,1.416,0,0,0-2,0l-8.5,8.5a1.417,1.417,0,0,0,1,2.418H4.749v15.583H7.583v-17A1.416,1.416,0,0,0,6.166,112.5h-.83l5.08-5.081Zm0,0" transform="translate(0 -85.583)" fill="#fff"/>
    <path id="Path_210" data-name="Path 210" d="M129.916,11.333h2.833v4.25h2.833V9.917A1.416,1.416,0,0,0,134.166,8.5h-.83l5.08-5.081L143.5,8.5h-.83a1.416,1.416,0,0,0-1.417,1.417v8.5h2.833V11.333h2.833a1.417,1.417,0,0,0,1-2.418l-8.5-8.5a1.416,1.416,0,0,0-2,0l-8.5,8.5a1.417,1.417,0,0,0,1,2.418Zm0,0" transform="translate(-105.333)" fill="#fff"/>
    <path id="Path_211" data-name="Path 211" d="M283.917,64.915l-8.5-8.5a1.416,1.416,0,0,0-2,0l-8.5,8.5a1.417,1.417,0,0,0,1,2.418h2.833V82.917h2.833v-17a1.416,1.416,0,0,0-1.417-1.417h-.83l5.08-5.081L279.5,64.5h-.83a1.416,1.416,0,0,0-1.417,1.417v17h2.833V67.333h2.833a1.417,1.417,0,0,0,1-2.418Zm0,0" transform="translate(-217.25 -46.083)" fill="#fff"/>
    <path id="Path_212" data-name="Path 212" d="M152.5,104h2.833v5.667H152.5Zm0,0" transform="translate(-125.08 -85.583)" fill="#fff"/>
    <path id="Path_213" data-name="Path 213" d="M200.5,120h2.833v2.833H200.5Zm0,0" transform="translate(-164.58 -98.75)" fill="#fff"/>
    <path id="Path_214" data-name="Path 214" d="M200.5,152h2.833v2.833H200.5Zm0,0" transform="translate(-164.58 -125.083)" fill="#fff"/>
    <path id="Path_215" data-name="Path 215" d="M152.5,152h2.833v2.833H152.5Zm0,0" transform="translate(-125.08 -125.083)" fill="#fff"/>
    <path id="Path_216" data-name="Path 216" d="M288.5,224h2.833v5.667H288.5Zm0,0" transform="translate(-236.997 -184.333)" fill="#fff"/>
    <path id="Path_217" data-name="Path 217" d="M336.5,240h2.833v2.833H336.5Zm0,0" transform="translate(-276.497 -197.5)" fill="#fff"/>
    <path id="Path_218" data-name="Path 218" d="M24.5,272h2.833v2.833H24.5Zm0,0" transform="translate(-19.747 -223.833)" fill="#fff"/>
    <path id="Path_219" data-name="Path 219" d="M72.5,272h2.833v5.667H72.5Zm0,0" transform="translate(-59.247 -223.833)" fill="#fff"/>
    <path id="Path_220" data-name="Path 220" d="M72.5,320h2.833v2.833H72.5Zm0,0" transform="translate(-59.247 -263.333)" fill="#fff"/>
    <path id="Path_221" data-name="Path 221" d="M24.5,304h2.833v2.833H24.5Zm0,0" transform="translate(-19.747 -250.167)" fill="#fff"/>
    <path id="Path_222" data-name="Path 222" d="M336.5,272h2.833v2.833H336.5Zm0,0" transform="translate(-276.497 -223.833)" fill="#fff"/>
    <path id="Path_223" data-name="Path 223" d="M336.5,304h2.833v2.833H336.5Zm0,0" transform="translate(-276.497 -250.167)" fill="#fff"/>
  </g>
</svg>
