<svg xmlns="http://www.w3.org/2000/svg" width="84.51" height="85" viewBox="0 0 84.51 85">
  <g id="jigsaws" transform="translate(-0.359)">
    <path id="Path_147" data-name="Path 147" d="M348.443,25.356A26.811,26.811,0,0,0,321.706,0,1.409,1.409,0,0,0,320.3,1.409v7.8a1.411,1.411,0,0,0,.7,1.226,1.471,1.471,0,0,0,1.409,0,4.184,4.184,0,0,1,2.113-.578,4.226,4.226,0,0,1,0,8.452,3.944,3.944,0,0,1-1.409-.254,4.526,4.526,0,0,1-.7-.324,1.409,1.409,0,0,0-2.113,1.226v7.8a1.409,1.409,0,0,0,1.409,1.409h5.79a5.922,5.922,0,0,0-.155,1.409,7.043,7.043,0,1,0,14.087,0,5.885,5.885,0,0,0-.155-1.409h5.79a1.408,1.408,0,0,0,1.409-1.409C348.47,26.3,348.457,25.821,348.443,25.356Zm-9.185,0a1.409,1.409,0,0,0-1.226,2.113,4.562,4.562,0,0,1,.324.7,3.958,3.958,0,0,1,.253,1.409,4.226,4.226,0,1,1-8.452,0,3.974,3.974,0,0,1,.254-1.409,4.562,4.562,0,0,1,.324-.7,1.409,1.409,0,0,0-1.226-2.113h-6.4V20.975a5.925,5.925,0,0,0,1.409.155,7.043,7.043,0,1,0,0-14.087,6.737,6.737,0,0,0-1.409.141V2.859a23.99,23.99,0,0,1,22.5,22.5Zm0,0" transform="translate(-263.601)" fill="#fff"/>
    <path id="Path_148" data-name="Path 148" d="M67.965,105.356h-7.8a1.409,1.409,0,0,0-1.226.7,1.471,1.471,0,0,0,0,1.409,4.181,4.181,0,0,1,.577,2.113,4.226,4.226,0,0,1-8.452,0,3.974,3.974,0,0,1,.254-1.409,4.561,4.561,0,0,1,.324-.7,1.409,1.409,0,0,0-1.226-2.113h-6.4v-4.381a5.925,5.925,0,0,0,1.409.155,7.043,7.043,0,0,0,0-14.087,5.925,5.925,0,0,0-1.409.155V81.409A1.408,1.408,0,0,0,42.609,80a26.746,26.746,0,0,0-23.49,39.571l-.882.552a1.409,1.409,0,0,0-.575.711l-2.21,6.074L9.882,129.5l-.659-1.424a1.409,1.409,0,0,0-1.872-.683l-6.17,2.874a1.409,1.409,0,0,0-.692,1.872L8.871,150.1a1.409,1.409,0,0,0,1.872.68l6.155-2.874a1.409,1.409,0,0,0,.681-1.871l-.62-1.331,3.765-1.762,7.394,2.687a1.423,1.423,0,0,0,.442.083l13.356.368h.038a1.426,1.426,0,0,0,.594-.131l5.424-2.522a1.433,1.433,0,0,0,.509-.4l2.6-3.267,14.67-7.921a1.409,1.409,0,0,0,.606-1.831L63.366,123.6a26.661,26.661,0,0,0,6.008-16.835A1.408,1.408,0,0,0,67.965,105.356ZM41.2,82.886v6.327a1.409,1.409,0,0,0,2.113,1.226,4.526,4.526,0,0,1,.7-.324,3.944,3.944,0,0,1,1.409-.254,4.226,4.226,0,1,1,0,8.452,3.944,3.944,0,0,1-1.409-.254,4.527,4.527,0,0,1-.7-.324A1.409,1.409,0,0,0,41.2,98.961v6.4H36.819a5.885,5.885,0,0,0,.155-1.409,7.043,7.043,0,0,0-14.087,0,5.921,5.921,0,0,0,.155,1.409H18.7A23.973,23.973,0,0,1,41.2,82.886ZM18.7,108.174h6.353a1.409,1.409,0,0,0,1.226-2.113,4.561,4.561,0,0,1-.324-.7,3.974,3.974,0,0,1-.254-1.409,4.226,4.226,0,1,1,8.452,0,3.959,3.959,0,0,1-.253,1.409,4.561,4.561,0,0,1-.324.7,1.409,1.409,0,0,0,1.226,2.113H41.2v4.381a5.916,5.916,0,0,0-1.409-.155,6.962,6.962,0,0,0-4.626,1.748l-1.392-2.137a1.408,1.408,0,0,0-1.929-.423L21.5,118.076A23.771,23.771,0,0,1,18.7,108.174Zm22.5,22.734-7.591-2.77-1.81-3.882,1.817-1.472a7,7,0,0,0,6.175,3.7,5.916,5.916,0,0,0,1.409-.155ZM10.834,147.633,3.649,132.226l3.613-1.691,7.173,15.414Zm38.657-10.215a1.446,1.446,0,0,0-.434.364l-2.568,3.24-4.821,2.229-12.8-.351-7.729-2.817a1.428,1.428,0,0,0-1.079.048l-4.288,2.022-4.7-10.1,6.1-2.841a1.411,1.411,0,0,0,.73-.794l2.245-6.159,12.025-7.543,2.394,3.676-5.395,4.367a1.408,1.408,0,0,0-.389,1.691l2.522,5.41a1.411,1.411,0,0,0,.793.728l9.269,3.381a1.409,1.409,0,0,0,1.079-.048l18.586-8.673L63.239,130ZM60.881,122.2l-16.864,7.872v-5.759a1.409,1.409,0,0,0-2.113-1.226,4.47,4.47,0,0,1-.7.324,3.939,3.939,0,0,1-1.409.254,4.214,4.214,0,0,1-3.944-2.7l1.472-1.192a1.408,1.408,0,0,0,.293-1.863l-.891-1.368a4.281,4.281,0,0,1,4.479-1.074,4.468,4.468,0,0,1,.7.324,1.409,1.409,0,0,0,2.113-1.226v-6.4H48.4a5.921,5.921,0,0,0-.155,1.409,7.043,7.043,0,0,0,14.087,0,7.812,7.812,0,0,0-.14-1.409h4.3a23.915,23.915,0,0,1-5.612,14.032Zm0,0" transform="translate(0 -65.913)" fill="#fff"/>
  </g>
</svg>
