<svg xmlns="http://www.w3.org/2000/svg" width="85" height="84.982" viewBox="0 0 85 84.982">
  <g id="love" transform="translate(0 -0.054)">
    <g id="Group_30" data-name="Group 30" transform="translate(21.081 21.136)">
      <g id="Group_29" data-name="Group 29">
        <path id="Path_183" data-name="Path 183" d="M148.4,127.043a21.414,21.414,0,1,0,21.414,21.414A21.439,21.439,0,0,0,148.4,127.043Zm0,39.509a18.094,18.094,0,1,1,18.094-18.094A18.115,18.115,0,0,1,148.4,166.552Z" transform="translate(-126.984 -127.043)" fill="#fff"/>
      </g>
    </g>
    <g id="Group_32" data-name="Group 32" transform="translate(28.552 31.929)">
      <g id="Group_31" data-name="Group 31">
        <path id="Path_184" data-name="Path 184" d="M191.094,192.056a8.649,8.649,0,0,0-5.169,1.734,8.647,8.647,0,0,0-5.169-1.734,8.914,8.914,0,0,0-8.775,9.028c0,3.364,2.27,6.941,6.747,10.629a45.29,45.29,0,0,0,6.4,4.38,1.659,1.659,0,0,0,1.588,0,45.29,45.29,0,0,0,6.4-4.38c4.477-3.688,6.747-7.264,6.747-10.629A8.915,8.915,0,0,0,191.094,192.056Zm-5.169,20.669c-3.572-2.11-10.624-7.194-10.624-11.641a5.592,5.592,0,0,1,5.455-5.708,5.3,5.3,0,0,1,3.944,1.765,1.66,1.66,0,0,0,2.451,0,5.3,5.3,0,0,1,3.944-1.765,5.592,5.592,0,0,1,5.455,5.708C196.549,205.531,189.5,210.615,185.925,212.725Z" transform="translate(-171.981 -192.056)" fill="#fff"/>
      </g>
    </g>
    <g id="Group_34" data-name="Group 34" transform="translate(10.785 10.836)">
      <g id="Group_33" data-name="Group 33">
        <path id="Path_185" data-name="Path 185" d="M96.43,65h-.012A31.728,31.728,0,0,0,66.3,105.833a1.66,1.66,0,1,0,3.179-.958A28.407,28.407,0,0,1,96.442,68.317,1.66,1.66,0,0,0,96.43,65Z" transform="translate(-64.967 -64.997)" fill="#fff"/>
      </g>
    </g>
    <g id="Group_36" data-name="Group 36" transform="translate(40.211 33.087)">
      <g id="Group_35" data-name="Group 35">
        <path id="Path_186" data-name="Path 186" d="M275.124,200.255a1.66,1.66,0,1,0-3.205.865,28.408,28.408,0,0,1-27.4,35.768q-.3,0-.609-.007h-.037a1.66,1.66,0,0,0-.036,3.32c.226,0,.45.007.676.007a31.728,31.728,0,0,0,30.612-39.952Z" transform="translate(-242.212 -199.027)" fill="#fff"/>
      </g>
    </g>
    <g id="Group_38" data-name="Group 38" transform="translate(3.305 49.629)">
      <g id="Group_37" data-name="Group 37">
        <path id="Path_187" data-name="Path 187" d="M23.188,299.977l0-.013a1.66,1.66,0,1,0-3.237.736l.007.029a1.66,1.66,0,0,0,3.234-.752Z" transform="translate(-19.906 -298.672)" fill="#fff"/>
      </g>
    </g>
    <g id="Group_40" data-name="Group 40" transform="translate(2.306 2.361)">
      <g id="Group_39" data-name="Group 39">
        <path id="Path_188" data-name="Path 188" d="M54.024,13.949h0a40.19,40.19,0,0,0-40.133,40.19c0,.948.034,1.909.1,2.857a1.66,1.66,0,0,0,1.654,1.543c.039,0,.079,0,.119,0A1.66,1.66,0,0,0,17.3,56.761c-.061-.87-.093-1.752-.093-2.622a36.871,36.871,0,0,1,36.817-36.87,1.66,1.66,0,0,0,0-3.32Z" transform="translate(-13.889 -13.949)" fill="#fff"/>
      </g>
    </g>
    <g id="Group_42" data-name="Group 42" transform="translate(78.361 32.13)">
      <g id="Group_41" data-name="Group 41">
        <path id="Path_189" data-name="Path 189" d="M475.294,194.576l-.007-.029a1.66,1.66,0,0,0-3.234.752l0,.013a1.66,1.66,0,1,0,3.237-.736Z" transform="translate(-472.01 -193.262)" fill="#fff"/>
      </g>
    </g>
    <g id="Group_44" data-name="Group 44" transform="translate(40.89 38.151)">
      <g id="Group_43" data-name="Group 43">
        <path id="Path_190" data-name="Path 190" d="M288,231.074a1.66,1.66,0,1,0-3.312.234c.061.87.093,1.752.093,2.622a36.871,36.871,0,0,1-36.817,36.87,1.66,1.66,0,0,0,0,3.32h0A40.19,40.19,0,0,0,288.1,233.931C288.1,232.983,288.065,232.022,288,231.074Z" transform="translate(-246.304 -229.531)" fill="#fff"/>
      </g>
    </g>
    <g id="Group_46" data-name="Group 46" transform="translate(0 55.157)">
      <g id="Group_45" data-name="Group 45">
        <path id="Path_191" data-name="Path 191" d="M14.94,331.967a14.94,14.94,0,1,0,14.94,14.94A14.957,14.957,0,0,0,14.94,331.967Zm0,26.559a11.573,11.573,0,0,1-7.8-3.013v-.2a2.471,2.471,0,0,1,2.017-2.428l1.718-.321a6.95,6.95,0,0,0,8.125,0l1.718.32a2.471,2.471,0,0,1,2.017,2.428v.2h0A11.574,11.574,0,0,1,14.94,358.526Zm-3.653-11.62a3.652,3.652,0,1,1,3.652,3.652A3.656,3.656,0,0,1,11.287,346.907Zm13.931,5.411a5.786,5.786,0,0,0-3.861-2.688,6.972,6.972,0,1,0-12.835,0,5.785,5.785,0,0,0-3.861,2.686,11.618,11.618,0,1,1,21.9-5.41A11.548,11.548,0,0,1,25.218,352.318Z" transform="translate(0 -331.967)" fill="#fff"/>
      </g>
    </g>
    <g id="Group_48" data-name="Group 48" transform="translate(55.121 0.054)">
      <g id="Group_47" data-name="Group 47">
        <path id="Path_192" data-name="Path 192" d="M346.961.054a14.94,14.94,0,1,0,14.94,14.94A14.957,14.957,0,0,0,346.961.054Zm0,26.559a11.574,11.574,0,0,1-7.8-3.013v-.2a2.471,2.471,0,0,1,2.017-2.428l1.718-.321a6.95,6.95,0,0,0,8.125,0l1.718.32a2.471,2.471,0,0,1,2.017,2.428v.2h0A11.573,11.573,0,0,1,346.961,26.613Zm-3.652-11.619a3.652,3.652,0,1,1,3.652,3.652A3.656,3.656,0,0,1,343.309,14.994Zm13.93,5.411a5.786,5.786,0,0,0-3.861-2.687,6.972,6.972,0,1,0-12.836,0,5.785,5.785,0,0,0-3.861,2.687,11.619,11.619,0,1,1,20.557,0Z" transform="translate(-332.021 -0.054)" fill="#fff"/>
      </g>
    </g>
  </g>
</svg>
