<svg id="bar-chart" xmlns="http://www.w3.org/2000/svg" width="85" height="85" viewBox="0 0 85 85">
  <path id="Path_149" data-name="Path 149" d="M96.342,121.379a18.267,18.267,0,0,0,15.981,9.293c.466,0,.931-.032,1.4-.067l.021,0c.012,0,.022-.007.034-.007a18.319,18.319,0,0,0,11.572-5.317c.231-.23.433-.478.649-.718a1.464,1.464,0,0,0,.173-.191A18.406,18.406,0,1,0,96.3,121.3C96.308,121.33,96.329,121.351,96.342,121.379Zm10.314,5.391a15.476,15.476,0,0,1-5.353-3.487c-.354-.354-.684-.724-1-1.1h4.932a1.418,1.418,0,0,1,1.417,1.417Zm17-3.835c-.108.114-.2.236-.314.348a15.487,15.487,0,0,1-8.186,4.292v-13.9a1.417,1.417,0,0,1,1.416-1.416h5.667a1.417,1.417,0,0,1,1.416,1.416ZM101.3,101.244a15.572,15.572,0,0,1,25.186,17.468V113.68a4.255,4.255,0,0,0-4.25-4.25h-5.667a4.255,4.255,0,0,0-4.25,4.25v14.159a15.669,15.669,0,0,1-2.833-.264V123.6a4.255,4.255,0,0,0-4.25-4.25H98.45A15.607,15.607,0,0,1,101.3,101.244Zm0,0" transform="translate(-78.323 -78.264)" fill="#fff"/>
  <path id="Path_150" data-name="Path 150" d="M1.417,85H83.583a1.417,1.417,0,1,0,0-2.833H80l4.091-4.09a2.836,2.836,0,0,0,0-4.007l-3-3v0l0,0L69.063,59.045v0h0l-2-2a4.09,4.09,0,0,0-1.891-1.046V4.25A4.255,4.255,0,0,0,60.917,0H55.25A4.255,4.255,0,0,0,51,4.25V15.037A25.483,25.483,0,0,0,15.969,52.032c.331.331.686.622,1.03.931v29.2H14.166V59.5a4.254,4.254,0,0,0-4.25-4.25H4.25A4.255,4.255,0,0,0,0,59.5V83.583A1.417,1.417,0,0,0,1.417,85Zm26.917-2.833h-8.5V70.834h8.5Zm0-14.166h-8.5V55.2a25.32,25.32,0,0,0,8.5,3.633ZM34,82.167H31.167V59.316A25.694,25.694,0,0,0,34,59.488Zm11.333,0h-8.5V66.583h8.5Zm0-18.417h-8.5V59.316a25.475,25.475,0,0,0,8.5-2.495ZM51,82.167H48.167V58.159A4.208,4.208,0,0,0,51,59.281Zm1.03-26.128a1.459,1.459,0,0,1-2,0l-1.274-1.274a25.5,25.5,0,0,0,3.276-2.734,25.708,25.708,0,0,0,2.74-3.273l1.268,1.268a1.42,1.42,0,0,1,0,2Zm6.829-3.191a4.246,4.246,0,0,0-.816-4.824l-1.715-1.713a25.263,25.263,0,0,0,3.1-10.894h2.9V56.19c-.03.013-.058.032-.088.045Zm1.187,5.194-2,2L55.036,57.04l1-1,1-1Zm2.287,24.125h-8.5V59.844l2.39,2.389a4.244,4.244,0,0,0,.817,4.824l5.293,5.294Zm2.834,0V75.184l6.982,6.982ZM64.052,58.628a1.409,1.409,0,0,1,1,.415l1,1a1.417,1.417,0,0,0,2,2l2,2a1.417,1.417,0,1,0,2,2l2,2a1.417,1.417,0,1,0,2,2h0l2,2h0a1.417,1.417,0,0,0,2,2l0,0,2,2-6.013,6.012-2-2,2-2a1.417,1.417,0,1,0-2-2l-2,2-2-2,2-2a1.417,1.417,0,0,0-2-2l-2,2-2-2,2-2a1.417,1.417,0,1,0-2-2l-2,2-2-2,2-2a1.417,1.417,0,0,0-2-2l-2,2-1-1a1.42,1.42,0,0,1,0-2l4.007-4.007A1.412,1.412,0,0,1,64.052,58.628ZM53.833,4.25A1.418,1.418,0,0,1,55.25,2.833h5.667A1.418,1.418,0,0,1,62.333,4.25V32.583h-2.9a25.245,25.245,0,0,0-5.6-14.6ZM11.333,34a22.667,22.667,0,1,1,6.639,16.028A22.667,22.667,0,0,1,11.333,34Zm-8.5,25.5A1.418,1.418,0,0,1,4.25,58.083H9.917A1.417,1.417,0,0,1,11.333,59.5v4.25h-8.5Zm0,7.084h8.5V82.167h-8.5Zm0,0" fill="#fff"/>
  <path id="Path_151" data-name="Path 151" d="M425.216,17.066H419.55a1.417,1.417,0,1,0,0,2.833h5.667a1.417,1.417,0,0,0,0-2.833Zm0,0" transform="translate(-348.716 -14.233)" fill="#fff"/>
  <path id="Path_152" data-name="Path 152" d="M489.232,17.066h-1.416a1.417,1.417,0,1,0,0,2.833h1.416a1.417,1.417,0,1,0,0-2.833Zm0,0" transform="translate(-405.649 -14.233)" fill="#fff"/>
  <path id="Path_153" data-name="Path 153" d="M425.216,59.734H419.55a1.417,1.417,0,1,0,0,2.833h5.667a1.417,1.417,0,0,0,0-2.833Zm0,0" transform="translate(-348.716 -49.818)" fill="#fff"/>
  <path id="Path_154" data-name="Path 154" d="M489.232,59.734h-1.416a1.417,1.417,0,1,0,0,2.833h1.416a1.417,1.417,0,1,0,0-2.833Zm0,0" transform="translate(-405.649 -49.818)" fill="#fff"/>
  <path id="Path_155" data-name="Path 155" d="M425.216,102.4H419.55a1.417,1.417,0,1,0,0,2.833h5.667a1.417,1.417,0,0,0,0-2.833Zm0,0" transform="translate(-348.716 -85.399)" fill="#fff"/>
  <path id="Path_156" data-name="Path 156" d="M489.232,102.4h-1.416a1.417,1.417,0,1,0,0,2.833h1.416a1.417,1.417,0,1,0,0-2.833Zm0,0" transform="translate(-405.649 -85.399)" fill="#fff"/>
  <path id="Path_157" data-name="Path 157" d="M425.216,145.066H419.55a1.417,1.417,0,1,0,0,2.833h5.667a1.417,1.417,0,0,0,0-2.833Zm0,0" transform="translate(-348.716 -120.983)" fill="#fff"/>
  <path id="Path_158" data-name="Path 158" d="M489.232,145.066h-1.416a1.417,1.417,0,1,0,0,2.833h1.416a1.417,1.417,0,1,0,0-2.833Zm0,0" transform="translate(-405.649 -120.983)" fill="#fff"/>
  <path id="Path_159" data-name="Path 159" d="M425.216,187.734H419.55a1.417,1.417,0,1,0,0,2.833h5.667a1.417,1.417,0,0,0,0-2.833Zm0,0" transform="translate(-348.716 -156.568)" fill="#fff"/>
  <path id="Path_160" data-name="Path 160" d="M489.232,187.734h-1.416a1.417,1.417,0,1,0,0,2.833h1.416a1.417,1.417,0,1,0,0-2.833Zm0,0" transform="translate(-405.649 -156.568)" fill="#fff"/>
  <path id="Path_161" data-name="Path 161" d="M425.216,230.4H419.55a1.417,1.417,0,1,0,0,2.833h5.667a1.417,1.417,0,0,0,0-2.833Zm0,0" transform="translate(-348.716 -192.149)" fill="#fff"/>
  <path id="Path_162" data-name="Path 162" d="M489.232,230.4h-1.416a1.417,1.417,0,1,0,0,2.833h1.416a1.417,1.417,0,1,0,0-2.833Zm0,0" transform="translate(-405.649 -192.149)" fill="#fff"/>
  <path id="Path_163" data-name="Path 163" d="M425.216,273.066H419.55a1.417,1.417,0,1,0,0,2.833h5.667a1.417,1.417,0,0,0,0-2.833Zm0,0" transform="translate(-348.716 -227.733)" fill="#fff"/>
  <path id="Path_164" data-name="Path 164" d="M489.232,273.066h-1.416a1.417,1.417,0,1,0,0,2.833h1.416a1.417,1.417,0,1,0,0-2.833Zm0,0" transform="translate(-405.649 -227.733)" fill="#fff"/>
  <path id="Path_165" data-name="Path 165" d="M425.216,315.734H419.55a1.417,1.417,0,1,0,0,2.833h5.667a1.417,1.417,0,0,0,0-2.833Zm0,0" transform="translate(-348.716 -263.318)" fill="#fff"/>
  <path id="Path_166" data-name="Path 166" d="M489.232,315.734h-1.416a1.417,1.417,0,1,0,0,2.833h1.416a1.417,1.417,0,1,0,0-2.833Zm0,0" transform="translate(-405.649 -263.318)" fill="#fff"/>
</svg>
