<svg xmlns="http://www.w3.org/2000/svg" width="20.242" height="18" viewBox="0 0 20.242 18">
  <path id="Path_845" data-name="Path 845" d="M3.051,4.359a6.124,6.124,0,0,1,8.328-.309,6.124,6.124,0,0,1,8.647,8.624L12.71,20.013a1.884,1.884,0,0,1-2.562.1l-.1-.1L2.73,12.674a6.124,6.124,0,0,1,.32-8.315ZM4.383,5.691a4.239,4.239,0,0,0-.138,5.85l.138.145,7,7,5-5-3.33-3.33-1,1a2.827,2.827,0,1,1-4-4l1.98-1.981a4.24,4.24,0,0,0-5.5.178l-.145.138Zm7.995,2.664a.942.942,0,0,1,1.332,0l4,4,.667-.665a4.239,4.239,0,0,0-5.851-6.133l-.144.138-3,3a.942.942,0,0,0-.073,1.25l.073.082a.942.942,0,0,0,1.25.073l.082-.073Z" transform="translate(-1.257 -2.565)" fill="#0081d2"/>
</svg>
