<svg id="Page-1" xmlns="http://www.w3.org/2000/svg" width="40" height="40" viewBox="0 0 40 40">
  <g id="_040---Travel-Insurance" data-name="040---Travel-Insurance">
    <path id="Shape" d="M48.269,30.292,41.6,27.412a.667.667,0,0,0-.528,0l-6.667,2.88a.667.667,0,0,0-.4.612v7.888a4.12,4.12,0,0,0,1.739,3.342l5.208,3.707a.667.667,0,0,0,.773,0l5.208-3.707a4.121,4.121,0,0,0,1.733-3.343V30.9A.667.667,0,0,0,48.269,30.292Zm-.933,8.5a2.784,2.784,0,0,1-1.179,2.257L41.336,44.48l-4.821-3.432a2.783,2.783,0,0,1-1.179-2.257v-7.45l6-2.592,6,2.592Z" transform="translate(-11.336 -9.119)" fill="#fff"/>
    <path id="Shape-2" data-name="Shape" d="M39.067,39.8a.667.667,0,0,0-.8,1.067l2.667,2a.667.667,0,0,0,.921-.117l5.333-6.667a.667.667,0,0,0-1.041-.833l-4.933,6.162Z" transform="translate(-12.667 -11.668)" fill="#fff"/>
    <path id="Shape-3" data-name="Shape" d="M36.667,6.667H36a1.333,1.333,0,0,0-1.333-1.333H33.333A1.333,1.333,0,0,0,32,6.667H28.667V5.333A5.339,5.339,0,0,0,23.333,0H16.667a5.339,5.339,0,0,0-5.333,5.333V6.667H8A1.333,1.333,0,0,0,6.667,5.333H5.333A1.333,1.333,0,0,0,4,6.667H3.333A3.337,3.337,0,0,0,0,10V32.667A3.337,3.337,0,0,0,3.333,36H4a1.333,1.333,0,0,0,1.333,1.333H6.667A1.333,1.333,0,0,0,8,36H24l5.309,3.779a1.189,1.189,0,0,0,1.38,0l6.451-4.592A6.788,6.788,0,0,0,40,29.673V10A3.337,3.337,0,0,0,36.667,6.667Zm0,1.333a2,2,0,0,1,2,2v9.017L36,17.867V8ZM33.333,6.667h1.333V17.289l-1.333-.576ZM12.667,5.333a4,4,0,0,1,4-4h6.667a4,4,0,0,1,4,4V6.667h-2V6a2.667,2.667,0,0,0-2.667-2.667H17.333A2.667,2.667,0,0,0,14.667,6v.667h-2ZM16,6.667V6a1.333,1.333,0,0,1,1.333-1.333h5.333A1.333,1.333,0,0,1,24,6v.667Zm-12.667,28a2,2,0,0,1-2-2V10a2,2,0,0,1,2-2H4V34.667Zm2,1.333V6.667H6.667V36ZM8,8H32v8.137L30.3,15.4a4.333,4.333,0,1,0-7.609.6H18.872l-1.957-5.555a.667.667,0,0,0-.851-.407l-6.287,2.22a.667.667,0,0,0-.407.851l2.66,7.54a.667.667,0,0,0,.629.445.652.652,0,0,0,.221-.039l2.453-.865v4.473a.667.667,0,0,0,.667.667h4v4.339a6.78,6.78,0,0,0,2.215,4.994H8ZM20.4,19.419a.667.667,0,0,0-.4.612V24H16.667V17.333h6.667v.82ZM16,16a.667.667,0,0,0-.667.667v2.115l-2.267.8L10.85,13.293l5.029-1.776L17.458,16Zm12.079.1-1.179.509a3.011,3.011,0,1,1,1.179-.509Zm8.289,18L30,38.634,23.633,34.1a5.453,5.453,0,0,1-2.3-4.428v-9.2l2.917-1.261.016-.012L30,16.726l2.4,1.037.016.007,2.645,1.143.027.012,3.578,1.546v9.2a5.453,5.453,0,0,1-2.3,4.431Z" fill="#fff"/>
    <path id="Shape-4" data-name="Shape" d="M18.333,39a3.333,3.333,0,1,0,3.333,3.333A3.333,3.333,0,0,0,18.333,39Zm0,5.333a2,2,0,1,1,2-2A2,2,0,0,1,18.333,44.333Z" transform="translate(-5 -13)" fill="#fff"/>
  </g>
</svg>
