<svg id="food" xmlns="http://www.w3.org/2000/svg" width="40" height="40" viewBox="0 0 40 40">
  <g id="Group_206" data-name="Group 206" transform="translate(21.334 9.996)">
    <g id="Group_205" data-name="Group 205">
      <path id="Path_784" data-name="Path 784" d="M263,123.44l-.428-1.409a3.06,3.06,0,0,0-5.795,0l-.428,1.409a7.912,7.912,0,0,0-.221,3.667,3.449,3.449,0,0,0,1.776,2.4l-.479,10.715a2.111,2.111,0,0,0,.533,1.641,2.329,2.329,0,0,0,3.29.147q.077-.07.147-.147a2.083,2.083,0,0,0,.533-1.6l-.482-10.761a3.448,3.448,0,0,0,1.773-2.4A7.913,7.913,0,0,0,263,123.44Zm-1.093,3.435a2.114,2.114,0,0,1-1.383,1.593.667.667,0,0,0-.431.654l.507,11.254a.771.771,0,0,1-.2.6,1.03,1.03,0,0,1-1.449,0,.8.8,0,0,1-.2-.648l.5-11.21a.667.667,0,0,0-.431-.654,2.114,2.114,0,0,1-1.383-1.593,6.575,6.575,0,0,1,.183-3.044l.428-1.409a1.729,1.729,0,0,1,3.243,0l.428,1.409A6.582,6.582,0,0,1,261.91,126.875Z" transform="translate(-256.012 -119.955)" fill="#fff"/>
    </g>
  </g>
  <g id="Group_208" data-name="Group 208" transform="translate(11.333 10)">
    <g id="Group_207" data-name="Group 207">
      <path id="Path_785" data-name="Path 785" d="M142.667,120a.667.667,0,0,0-.667.667v5.724l-1.8,1.8a.667.667,0,0,0-.2.5l.583,11.667a.908.908,0,0,1-.252.679.939.939,0,0,1-1.327.006l-.006-.006a.908.908,0,0,1-.252-.679l.587-11.667a.667.667,0,0,0-.195-.5l-1.805-1.8v-5.724a.667.667,0,0,0-1.333,0v6a.667.667,0,0,0,.2.471l1.791,1.791-.569,11.373a2.252,2.252,0,1,0,4.5.219q.005-.109,0-.219l-.569-11.373,1.791-1.791a.667.667,0,0,0,.2-.471v-6A.667.667,0,0,0,142.667,120Z" transform="translate(-136 -120)" fill="#fff"/>
    </g>
  </g>
  <g id="Group_210" data-name="Group 210" transform="translate(13.333 10)">
    <g id="Group_209" data-name="Group 209">
      <path id="Path_786" data-name="Path 786" d="M160.667,120a.667.667,0,0,0-.667.667V126a.667.667,0,1,0,1.333,0v-5.333A.667.667,0,0,0,160.667,120Z" transform="translate(-160 -120)" fill="#fff"/>
    </g>
  </g>
  <g id="Group_212" data-name="Group 212" transform="translate(15.333 10)">
    <g id="Group_211" data-name="Group 211">
      <path id="Path_787" data-name="Path 787" d="M184.667,120a.667.667,0,0,0-.667.667V126a.667.667,0,1,0,1.333,0v-5.333A.667.667,0,0,0,184.667,120Z" transform="translate(-184 -120)" fill="#fff"/>
    </g>
  </g>
  <g id="Group_214" data-name="Group 214">
    <g id="Group_213" data-name="Group 213">
      <path id="Path_788" data-name="Path 788" d="M20,0A20,20,0,1,0,40,20,20,20,0,0,0,20,0Zm0,38.667A18.667,18.667,0,1,1,38.667,20,18.667,18.667,0,0,1,20,38.667Z" fill="#fff"/>
    </g>
  </g>
  <g id="Group_216" data-name="Group 216" transform="translate(17.843 31.912)">
    <g id="Group_215" data-name="Group 215">
      <path id="Path_789" data-name="Path 789" d="M218.434,383.551a.667.667,0,0,0-.728-.6l-.026,0h0a12.246,12.246,0,0,1-2.825,0,.667.667,0,0,0-.155,1.325,13.5,13.5,0,0,0,3.133,0A.667.667,0,0,0,218.434,383.551Z" transform="translate(-214.113 -382.949)" fill="#fff"/>
    </g>
  </g>
  <g id="Group_218" data-name="Group 218" transform="translate(28.275 11.171)">
    <g id="Group_217" data-name="Group 217">
      <path id="Path_790" data-name="Path 790" d="M341.22,134.291a.667.667,0,0,0-.939-.082l0,0a.667.667,0,0,0-.08.939,12,12,0,0,1-.707,16.231.667.667,0,0,0,.941.945A13.333,13.333,0,0,0,341.22,134.291Z" transform="translate(-339.295 -134.053)" fill="#fff"/>
    </g>
  </g>
  <g id="Group_221" data-name="Group 221" transform="translate(14.865 6.669)">
    <g id="Group_220" data-name="Group 220">
      <g id="Group_219" data-name="Group 219">
        <path id="Path_791" data-name="Path 791" d="M186.355,105.743h0Z" transform="translate(-185.688 -103.6)" fill="#fff"/>
        <path id="Path_792" data-name="Path 792" d="M186.661,80.4a13.451,13.451,0,0,0-7.847.482.666.666,0,1,0,.467,1.247,12.111,12.111,0,0,1,7.067-.433.667.667,0,0,0,.313-1.3Z" transform="translate(-178.382 -80.027)" fill="#fff"/>
      </g>
    </g>
  </g>
  <g id="Group_223" data-name="Group 223" transform="translate(6.666 11.874)">
    <g id="Group_222" data-name="Group 222">
      <path id="Path_793" data-name="Path 793" d="M84.822,159.081a12,12,0,0,1-1.205-15.525.667.667,0,1,0-1.066-.8l-.011.016a13.333,13.333,0,0,0,1.338,17.255.668.668,0,0,0,.945-.944Z" transform="translate(-79.989 -142.488)" fill="#fff"/>
    </g>
  </g>
</svg>
