<svg xmlns="http://www.w3.org/2000/svg" width="50" height="35.034" viewBox="0 0 50 35.034">
  <g id="lotus-flower" transform="translate(-2 -11.012)">
    <path id="Path_799" data-name="Path 799" d="M51.357,33.767a35.03,35.03,0,0,0-7.775-.689c1.5-3.8,1.809-8.372.9-13.642a.833.833,0,0,0-1.021-.667,29.434,29.434,0,0,0-7.957,3.583,26.031,26.031,0,0,0-7.933-11.166.833.833,0,0,0-1.1.075,29.124,29.124,0,0,0-7.377,11.5,29.53,29.53,0,0,0-8.562-3.993.833.833,0,0,0-1.021.667c-.9,5.27-.592,9.846.9,13.642a35.03,35.03,0,0,0-7.775.689.834.834,0,0,0-.583,1.12C5.681,43.954,12.74,46.043,18.476,46.043A27.462,27.462,0,0,0,27,44.63a27.456,27.456,0,0,0,8.525,1.417c5.735,0,12.795-2.09,16.416-11.157a.836.836,0,0,0-.584-1.122Zm-9.622-.6a21.947,21.947,0,0,0-8.745,2.417.818.818,0,0,0-.385.217h0a14.368,14.368,0,0,0-4.324,3.841,19.893,19.893,0,0,0-.424-4.583,18.112,18.112,0,0,1,7.667-10.715A28.974,28.974,0,0,1,43,20.647C43.707,25.548,43.277,29.752,41.734,33.168ZM27.124,12.975a24.278,24.278,0,0,1,6.954,10.372A20.154,20.154,0,0,0,27,32.252a19.861,19.861,0,0,0-6.478-8.45A26.375,26.375,0,0,1,27.124,12.975ZM11.007,20.642a28.7,28.7,0,0,1,8.06,4.125h0a17.855,17.855,0,0,1,7.077,10.287,19.851,19.851,0,0,0-.425,4.583c-3.376-4.533-8.742-6.095-13.455-6.473-1.542-3.412-1.972-7.617-1.257-12.52Zm6.321,23.74C11.089,44.043,6.612,40.955,4,35.2c3.777-.643,17.4-2.173,21.893,8.04a25.209,25.209,0,0,1-8.569,1.142Zm19.343,0A25.258,25.258,0,0,1,28.1,43.239c4.492-10.21,18.114-8.68,21.9-8.037-2.612,5.753-7.089,8.842-13.328,9.182Z" transform="translate(0)" fill="#fff"/>
    <rect id="Rectangle_152" data-name="Rectangle 152" width="1.667" height="1.667" transform="translate(26.166 17.079)" fill="#fff"/>
    <rect id="Rectangle_153" data-name="Rectangle 153" width="1.667" height="1.667" transform="translate(26.166 20.412)" fill="#fff"/>
    <rect id="Rectangle_154" data-name="Rectangle 154" width="1.667" height="1.667" transform="translate(26.166 23.745)" fill="#fff"/>
    <path id="Path_800" data-name="Path 800" d="M14,26.292a12.7,12.7,0,0,0,1.807,6.3l1.387-.925a11.166,11.166,0,0,1-1.527-5.372Z" transform="translate(-2 -2.547)" fill="#fff"/>
    <path id="Path_801" data-name="Path 801" d="M49.361,26.292H47.695a11.092,11.092,0,0,1-1.527,5.371l1.387.925a12.7,12.7,0,0,0,1.807-6.3Z" transform="translate(-7.362 -2.547)" fill="#fff"/>
  </g>
</svg>
