<svg xmlns="http://www.w3.org/2000/svg" width="47" height="47" viewBox="0 0 47 47">
  <g id="internet" transform="translate(-1 -1)">
    <path id="Path_308" data-name="Path 308" d="M48,26.774V13.129H42.171a18.937,18.937,0,0,0-35.342,0H1V26.774H6.829a18.851,18.851,0,0,0,2.514,4.548H3.274A2.277,2.277,0,0,0,1,33.6v9.1a2.277,2.277,0,0,0,2.274,2.274H6.306v1.516H4.79V48H15.4V46.484H13.887V44.968h3.032a2.277,2.277,0,0,0,2.274-2.274V38.13a18.6,18.6,0,0,0,10.613,0v4.564a2.277,2.277,0,0,0,2.274,2.274h3.032v1.516H33.6V48H44.21V46.484H42.694V44.968h3.032A2.277,2.277,0,0,0,48,42.694V33.6a2.277,2.277,0,0,0-2.274-2.274H39.657a18.848,18.848,0,0,0,2.514-4.548Zm-1.516-1.516H38.9V14.645h7.581Zm-9.1-12.129v6.065H34.34a25.967,25.967,0,0,0-1.254-7.581h6.729c.267.489.5,1,.725,1.516ZM24.512,37.27a16.8,16.8,0,0,1-6.348-7.463h12.7A16.8,16.8,0,0,1,24.512,37.27Zm8-7.463h6.359a17.486,17.486,0,0,1-11.658,7.368,19.412,19.412,0,0,0,5.3-7.368Zm-10.7,7.371a17.486,17.486,0,0,1-11.687-7.371h6.383A19.4,19.4,0,0,0,21.815,37.177ZM17.549,28.29A24.069,24.069,0,0,1,16.2,20.71h2.993v6.065H29.806V20.71h3.017a24.047,24.047,0,0,1-1.349,7.581Zm3.16-3.032V14.645H28.29V25.258Zm9.1-6.065V13.129H19.194v6.065H16.2a24.169,24.169,0,0,1,1.34-7.581H31.483a24.169,24.169,0,0,1,1.34,7.581ZM24.513,2.6A16.736,16.736,0,0,1,30.872,10.1H18.153A16.736,16.736,0,0,1,24.513,2.6ZM38.872,10.1H32.523a19.4,19.4,0,0,0-5.262-7.359A17.485,17.485,0,0,1,38.872,10.1Zm-17.1-7.365A19.4,19.4,0,0,0,16.5,10.1H10.128A17.49,17.49,0,0,1,21.771,2.731ZM9.185,11.613h6.754a25.967,25.967,0,0,0-1.254,7.581H11.613V13.129H8.459c.221-.519.459-1.027.725-1.516ZM2.516,14.645H10.1V25.258H2.516Zm9.1,12.129V20.71h3.072a25.829,25.829,0,0,0,1.261,7.581H9.185c-.267-.489-.5-1-.725-1.516Zm.758,19.71H7.823V44.968h4.548Zm4.548-3.032H3.274a.759.759,0,0,1-.758-.758v-.758H17.677v.758A.759.759,0,0,1,16.919,43.452Zm.758-3.032H2.516V33.6a.759.759,0,0,1,.758-.758h7.347a19.035,19.035,0,0,0,7.056,4.78Zm23.5,6.065H36.629V44.968h4.548Zm4.548-3.032H32.081a.759.759,0,0,1-.758-.758v-.758H46.484v.758A.759.759,0,0,1,45.726,43.452Zm0-10.613a.759.759,0,0,1,.758.758v6.823H31.323v-2.8a19.038,19.038,0,0,0,7.057-4.78Zm-5.91-4.548H33.079A25.854,25.854,0,0,0,34.34,20.71h3.047v6.065h3.154C40.32,27.293,40.082,27.8,39.816,28.29Z" fill="#fff"/>
    <path id="Path_309" data-name="Path 309" d="M53,21h4.548v1.516H53Z" transform="translate(-12.581 -4.839)" fill="#fff"/>
    <path id="Path_310" data-name="Path 310" d="M53,25h4.548v1.516H53Z" transform="translate(-12.581 -5.806)" fill="#fff"/>
    <path id="Path_311" data-name="Path 311" d="M53,29h4.548v1.516H53Z" transform="translate(-12.581 -6.774)" fill="#fff"/>
    <path id="Path_312" data-name="Path 312" d="M29,21h1.516v1.516H29Z" transform="translate(-6.774 -4.839)" fill="#fff"/>
    <path id="Path_313" data-name="Path 313" d="M33,21h1.516v1.516H33Z" transform="translate(-7.742 -4.839)" fill="#fff"/>
    <path id="Path_314" data-name="Path 314" d="M29,25h4.548v1.516H29Z" transform="translate(-6.774 -5.806)" fill="#fff"/>
    <path id="Path_315" data-name="Path 315" d="M29,29h4.548v1.516H29Z" transform="translate(-6.774 -6.774)" fill="#fff"/>
    <path id="Path_316" data-name="Path 316" d="M5,21H9.548v1.516H5Z" transform="translate(-0.968 -4.839)" fill="#fff"/>
    <path id="Path_317" data-name="Path 317" d="M5,25H9.548v1.516H5Z" transform="translate(-0.968 -5.806)" fill="#fff"/>
    <path id="Path_318" data-name="Path 318" d="M5,29H9.548v1.516H5Z" transform="translate(-0.968 -6.774)" fill="#fff"/>
    <path id="Path_319" data-name="Path 319" d="M27,41h1.516v1.516H27Z" transform="translate(-6.29 -9.677)" fill="#fff"/>
    <path id="Path_320" data-name="Path 320" d="M31,41h1.516v1.516H31Z" transform="translate(-7.258 -9.677)" fill="#fff"/>
    <path id="Path_321" data-name="Path 321" d="M35,41h1.516v1.516H35Z" transform="translate(-8.226 -9.677)" fill="#fff"/>
    <path id="Path_322" data-name="Path 322" d="M27,9h1.516v1.516H27Z" transform="translate(-6.29 -1.935)" fill="#fff"/>
    <path id="Path_323" data-name="Path 323" d="M31,9h1.516v1.516H31Z" transform="translate(-7.258 -1.935)" fill="#fff"/>
    <path id="Path_324" data-name="Path 324" d="M35,9h1.516v1.516H35Z" transform="translate(-8.226 -1.935)" fill="#fff"/>
  </g>
</svg>
