<svg id="browser" xmlns="http://www.w3.org/2000/svg" width="49.7" height="47" viewBox="0 0 49.7 47">
  <path id="Path_340" data-name="Path 340" d="M197.759,182.992H217a.728.728,0,0,0,0-1.456H197.759a.728.728,0,0,0,0,1.456Zm0,0" transform="translate(-177.905 -163.914)" fill="#fff"/>
  <path id="Path_341" data-name="Path 341" d="M197.759,216.612H217a.728.728,0,0,0,0-1.456H197.759a.728.728,0,0,0,0,1.456Zm0,0" transform="translate(-177.905 -194.271)" fill="#fff"/>
  <path id="Path_342" data-name="Path 342" d="M197.759,250.23H217a.728.728,0,0,0,0-1.456H197.759a.728.728,0,0,0,0,1.456Zm0,0" transform="translate(-177.905 -224.625)" fill="#fff"/>
  <path id="Path_343" data-name="Path 343" d="M197.759,283.851H217a.728.728,0,0,0,0-1.456H197.759a.728.728,0,0,0,0,1.456Zm0,0" transform="translate(-177.905 -254.983)" fill="#fff"/>
  <path id="Path_344" data-name="Path 344" d="M197.759,317.468H217a.728.728,0,0,0,0-1.456H197.759a.728.728,0,0,0,0,1.456Zm0,0" transform="translate(-177.905 -285.337)" fill="#fff"/>
  <path id="Path_345" data-name="Path 345" d="M197.759,351.089H217a.728.728,0,1,0,0-1.456H197.759a.728.728,0,1,0,0,1.456Zm0,0" transform="translate(-177.905 -315.694)" fill="#fff"/>
  <path id="Path_346" data-name="Path 346" d="M197.759,418.327H217a.728.728,0,0,0,0-1.456H197.759a.728.728,0,0,0,0,1.456Zm0,0" transform="translate(-177.905 -376.405)" fill="#fff"/>
  <path id="Path_347" data-name="Path 347" d="M197.759,384.706H217a.728.728,0,0,0,0-1.456H197.759a.728.728,0,0,0,0,1.456Zm0,0" transform="translate(-177.905 -346.048)" fill="#fff"/>
  <path id="Path_348" data-name="Path 348" d="M35.727,182.264a.728.728,0,0,0,.728.728h3.051a.728.728,0,0,0,0-1.456H36.455A.728.728,0,0,0,35.727,182.264Zm0,0" transform="translate(-32.259 -163.914)" fill="#fff"/>
  <path id="Path_349" data-name="Path 349" d="M39.5,215.156H36.451a.728.728,0,1,0,0,1.456H39.5a.728.728,0,0,0,0-1.456Zm0,0" transform="translate(-32.255 -194.271)" fill="#fff"/>
  <path id="Path_350" data-name="Path 350" d="M39.5,248.773H36.451a.728.728,0,1,0,0,1.456H39.5a.728.728,0,0,0,0-1.456Zm0,0" transform="translate(-32.255 -224.625)" fill="#fff"/>
  <path id="Path_351" data-name="Path 351" d="M39.5,282.395H36.451a.728.728,0,1,0,0,1.456H39.5a.728.728,0,0,0,0-1.456Zm0,0" transform="translate(-32.255 -254.983)" fill="#fff"/>
  <path id="Path_352" data-name="Path 352" d="M39.5,316.012H36.451a.728.728,0,1,0,0,1.456H39.5a.728.728,0,0,0,0-1.456Zm0,0" transform="translate(-32.255 -285.337)" fill="#fff"/>
  <path id="Path_353" data-name="Path 353" d="M39.5,349.633H36.451a.728.728,0,1,0,0,1.456H39.5a.728.728,0,1,0,0-1.456Zm0,0" transform="translate(-32.255 -315.694)" fill="#fff"/>
  <path id="Path_354" data-name="Path 354" d="M39.5,416.871H36.451a.728.728,0,1,0,0,1.456H39.5a.728.728,0,0,0,0-1.456Zm0,0" transform="translate(-32.255 -376.405)" fill="#fff"/>
  <path id="Path_355" data-name="Path 355" d="M39.5,383.25H36.451a.728.728,0,1,0,0,1.456H39.5a.728.728,0,0,0,0-1.456Zm0,0" transform="translate(-32.255 -346.048)" fill="#fff"/>
  <path id="Path_356" data-name="Path 356" d="M146.529,181.535h-1.274a.728.728,0,0,0,0,1.456h1.274a.728.728,0,0,0,0-1.456Zm0,0" transform="translate(-130.498 -163.914)" fill="#fff"/>
  <path id="Path_357" data-name="Path 357" d="M146.529,248.773h-1.274a.728.728,0,0,0,0,1.456h1.274a.728.728,0,0,0,0-1.456Zm0,0" transform="translate(-130.498 -224.625)" fill="#fff"/>
  <path id="Path_358" data-name="Path 358" d="M146.529,316.012h-1.274a.728.728,0,0,0,0,1.456h1.274a.728.728,0,0,0,0-1.456Zm0,0" transform="translate(-130.498 -285.337)" fill="#fff"/>
  <path id="Path_359" data-name="Path 359" d="M146.529,383.25h-1.274a.728.728,0,0,0,0,1.456h1.274a.728.728,0,0,0,0-1.456Zm0,0" transform="translate(-130.498 -346.048)" fill="#fff"/>
  <path id="Path_360" data-name="Path 360" d="M47.063,0H7.654A2.64,2.64,0,0,0,5.018,2.636v4.93H2.636A2.639,2.639,0,0,0,0,10.2V44.364A2.639,2.639,0,0,0,2.636,47H22.593a.728.728,0,1,0,0-1.456H11.531V14.08h31.7V44.364a1.181,1.181,0,0,1-1.18,1.18H25.99a.728.728,0,1,0,0,1.456H42.046a2.639,2.639,0,0,0,2.636-2.636v-4.93h2.381A2.639,2.639,0,0,0,49.7,36.8V25.165a.728.728,0,0,0-1.456,0V36.8a1.182,1.182,0,0,1-1.18,1.18H44.682V10.2a2.639,2.639,0,0,0-2.636-2.636H6.474V6.514h41.77V21.767a.728.728,0,0,0,1.456,0V2.636A2.639,2.639,0,0,0,47.063,0ZM1.456,10.2a1.182,1.182,0,0,1,1.18-1.18H5.057v3.6h-3.6Zm8.619,35.341H2.636a1.182,1.182,0,0,1-1.18-1.18V14.08h8.619ZM43.226,10.2v2.421H6.514v-3.6H42.046A1.182,1.182,0,0,1,43.226,10.2ZM6.474,5.057V2.636a1.184,1.184,0,0,1,1.18-1.18h2.421v3.6Zm5.057,0v-3.6H47.063a1.184,1.184,0,0,1,1.18,1.18V5.057Zm0,0" fill="#fff"/>
</svg>
