<svg id="cyber-security" xmlns="http://www.w3.org/2000/svg" width="47" height="47" viewBox="0 0 47 47">
  <path id="Path_299" data-name="Path 299" d="M103.95,32.9h-.783V8.617A3.921,3.921,0,0,0,99.25,4.7V3.917A3.921,3.921,0,0,0,95.333,0h-23.5a3.921,3.921,0,0,0-3.917,3.917V4.7A3.921,3.921,0,0,0,64,8.617v9.4h1.567v-9.4a2.353,2.353,0,0,1,2.35-2.35V17.233h1.567V3.917a2.353,2.353,0,0,1,2.35-2.35h23.5a2.353,2.353,0,0,1,2.35,2.35V30.55H99.25V6.267a2.353,2.353,0,0,1,2.35,2.35V32.9H90.633a3.431,3.431,0,0,0-2.442,1.013,1.884,1.884,0,0,1-1.342.554H82.8v1.567h4.05a3.44,3.44,0,0,0,2.45-1.013,1.875,1.875,0,0,1,1.334-.554h12.533v1.567A1.568,1.568,0,0,1,101.6,37.6H82.8v1.567h18.8a3.137,3.137,0,0,0,3.133-3.133v-2.35a.783.783,0,0,0-.783-.783Z" transform="translate(-57.733)" fill="#fff"/>
  <path id="Path_300" data-name="Path 300" d="M104,256h1.567v5.483H104Z" transform="translate(-93.817 -230.933)" fill="#fff"/>
  <path id="Path_301" data-name="Path 301" d="M143.995,32h1.567v1.567h-1.567Z" transform="translate(-129.895 -28.867)" fill="#fff"/>
  <path id="Path_302" data-name="Path 302" d="M175.995,32h1.567v1.567h-1.567Z" transform="translate(-158.762 -28.867)" fill="#fff"/>
  <path id="Path_303" data-name="Path 303" d="M207.995,32h1.567v1.567h-1.567Z" transform="translate(-187.629 -28.867)" fill="#fff"/>
  <path id="Path_304" data-name="Path 304" d="M144,64h23.5v1.567H144Z" transform="translate(-129.9 -57.733)" fill="#fff"/>
  <path id="Path_305" data-name="Path 305" d="M163.276,116.057c-.166-.043-.333-.091-.5-.144L162.3,117.4c.193.062.39.119.58.168a10.966,10.966,0,1,0-6.443-16.511A10.827,10.827,0,0,0,155,104.439l1.525.361a9.257,9.257,0,0,1,1.01-2.53h2.423a20.012,20.012,0,0,0-.551,4.7c0,.542.022,1.09.065,1.629l1.562-.125c-.019-.239-.033-.48-.043-.721h3.9v4.7h-2.35v1.567h2.35v2.315a9.381,9.381,0,0,1-1.614-.277Zm8.607-2.038a9.436,9.436,0,0,1-1.783,1.238c.2-.4.38-.813.545-1.238Zm1.421-1.567h-2.129a19.7,19.7,0,0,0,.749-4.7h3.117a9.234,9.234,0,0,1-1.737,4.7Zm-9.745-14.641a9.354,9.354,0,0,1,1.331-.207v3.1h-2.813a13.852,13.852,0,0,1,1.482-2.891Zm2.9-.207a9.366,9.366,0,0,1,1.331.207,13.85,13.85,0,0,1,1.482,2.891h-2.813Zm3.316,4.665a18.224,18.224,0,0,1,.585,3.917h-3.9v-3.917Zm5.268,3.917h-3.115a19.881,19.881,0,0,0-.536-3.917h2.422a9.31,9.31,0,0,1,1.228,3.917Zm-2.364-5.483h-1.742a16.826,16.826,0,0,0-.841-2.033,9.312,9.312,0,0,1,2.582,2.033Zm-11.423-2.033a16.837,16.837,0,0,0-.841,2.033H158.67A9.311,9.311,0,0,1,161.253,98.669Zm-.264,7.516a18.211,18.211,0,0,1,.584-3.917h3.316v3.917Zm5.467,1.567h3.9a17.945,17.945,0,0,1-.82,4.7h-3.08Zm2.492,6.267a13.061,13.061,0,0,1-1.16,2.107,9.34,9.34,0,0,1-1.333.208v-2.315Z" transform="translate(-139.823 -86.602)" fill="#fff"/>
  <path id="Path_306" data-name="Path 306" d="M21.15,205.332V201.4a9.4,9.4,0,0,0-18.8,0v3.932A2.638,2.638,0,0,0,0,207.951v9.615A2.637,2.637,0,0,0,2.634,220.2H20.866a2.637,2.637,0,0,0,2.634-2.634v-9.615a2.638,2.638,0,0,0-2.35-2.618Zm-9.4-11.766a7.842,7.842,0,0,1,7.833,7.833v3.917H18.017V201.4a6.267,6.267,0,0,0-12.533,0v3.917H3.917V201.4A7.842,7.842,0,0,1,11.75,193.567Zm4.7,11.75H7.05V201.4a4.7,4.7,0,0,1,9.4,0Zm5.483,12.249a1.069,1.069,0,0,1-1.067,1.067H2.634a1.069,1.069,0,0,1-1.067-1.067v-9.615a1.069,1.069,0,0,1,1.067-1.067H20.866a1.069,1.069,0,0,1,1.067,1.067Z" transform="translate(0 -173.2)" fill="#fff"/>
  <path id="Path_307" data-name="Path 307" d="M98.359,376a2.35,2.35,0,0,0-.783,4.565v1.7h1.567v-1.7A2.35,2.35,0,0,0,98.359,376Zm0,3.133a.783.783,0,1,1,.783-.783A.783.783,0,0,1,98.359,379.133Z" transform="translate(-86.609 -339.183)" fill="#fff"/>
</svg>
