<svg id="surface1" xmlns="http://www.w3.org/2000/svg" width="47" height="47" viewBox="0 0 47 47">
  <path id="Path_325" data-name="Path 325" d="M43.867,125v1.567a1.566,1.566,0,0,1,1.567,1.567v23.5H1.567v-23.5a1.566,1.566,0,0,1,1.567-1.567V125A3.133,3.133,0,0,0,0,128.133v26.633A3.133,3.133,0,0,0,3.133,157.9h15.4l-1.88,6.267H14.883v1.567H32.117v-1.567H30.349l-1.88-6.267h15.4A3.133,3.133,0,0,0,47,154.767V128.133A3.133,3.133,0,0,0,43.867,125ZM28.714,164.167H18.286l1.88-6.267h6.668Zm16.719-9.4a1.566,1.566,0,0,1-1.567,1.567H3.133a1.566,1.566,0,0,1-1.567-1.567V153.2H45.433Zm0,0" transform="translate(0 -118.733)" fill="#fff"/>
  <path id="Path_326" data-name="Path 326" d="M93.75,3.133v28.2h1.567V3.133a1.566,1.566,0,0,1,1.567-1.567h31.333a1.566,1.566,0,0,1,1.567,1.567v28.2h1.567V3.133A3.133,3.133,0,0,0,128.217,0H96.883A3.133,3.133,0,0,0,93.75,3.133Zm0,0" transform="translate(-89.05)" fill="#fff"/>
  <path id="Path_327" data-name="Path 327" d="M156.25,62.5h1.567v1.567H156.25Zm0,0" transform="translate(-148.417 -59.367)" fill="#fff"/>
  <path id="Path_328" data-name="Path 328" d="M218.75,62.5h1.567v1.567H218.75Zm0,0" transform="translate(-207.783 -59.367)" fill="#fff"/>
  <path id="Path_329" data-name="Path 329" d="M281.25,62.5h1.567v1.567H281.25Zm0,0" transform="translate(-267.15 -59.367)" fill="#fff"/>
  <path id="Path_330" data-name="Path 330" d="M156.25,125h31.333v1.567H156.25Zm0,0" transform="translate(-148.417 -118.733)" fill="#fff"/>
  <path id="Path_331" data-name="Path 331" d="M165.65,189.067a1.566,1.566,0,0,0-1.567-1.567h-6.267a1.566,1.566,0,0,0-1.567,1.567v4.7a1.566,1.566,0,0,0,1.567,1.567h6.267a1.566,1.566,0,0,0,1.567-1.567Zm-7.833,4.7v-4.7h6.267v4.7Zm0,0" transform="translate(-148.417 -178.1)" fill="#fff"/>
  <path id="Path_332" data-name="Path 332" d="M384.4,189.067a1.566,1.566,0,0,0-1.567-1.567h-6.267A1.566,1.566,0,0,0,375,189.067v4.7a1.566,1.566,0,0,0,1.567,1.567h6.267a1.566,1.566,0,0,0,1.567-1.567Zm-7.833,4.7v-4.7h6.267v4.7Zm0,0" transform="translate(-356.2 -178.1)" fill="#fff"/>
  <path id="Path_333" data-name="Path 333" d="M603.15,189.067a1.567,1.567,0,0,0-1.567-1.567h-6.267a1.566,1.566,0,0,0-1.567,1.567v4.7a1.566,1.566,0,0,0,1.567,1.567h6.267a1.567,1.567,0,0,0,1.567-1.567Zm-7.833,4.7v-4.7h6.267v4.7Zm0,0" transform="translate(-563.983 -178.1)" fill="#fff"/>
  <path id="Path_334" data-name="Path 334" d="M165.65,376.567A1.566,1.566,0,0,0,164.083,375h-6.267a1.566,1.566,0,0,0-1.567,1.567v4.7a1.566,1.566,0,0,0,1.567,1.567h6.267a1.566,1.566,0,0,0,1.567-1.567Zm-7.833,4.7v-4.7h6.267v4.7Zm0,0" transform="translate(-148.417 -356.2)" fill="#fff"/>
  <path id="Path_335" data-name="Path 335" d="M384.4,376.567A1.567,1.567,0,0,0,382.833,375h-6.267A1.567,1.567,0,0,0,375,376.567v4.7a1.566,1.566,0,0,0,1.567,1.567h6.267a1.566,1.566,0,0,0,1.567-1.567Zm-7.833,4.7v-4.7h6.267v4.7Zm0,0" transform="translate(-356.2 -356.2)" fill="#fff"/>
  <path id="Path_336" data-name="Path 336" d="M603.15,376.567A1.567,1.567,0,0,0,601.583,375h-6.267a1.567,1.567,0,0,0-1.567,1.567v4.7a1.566,1.566,0,0,0,1.567,1.567h6.267a1.566,1.566,0,0,0,1.567-1.567Zm-7.833,4.7v-4.7h6.267v4.7Zm0,0" transform="translate(-563.983 -356.2)" fill="#fff"/>
  <path id="Path_337" data-name="Path 337" d="M165.65,565.633v-1.567a1.566,1.566,0,0,0-1.567-1.567h-6.267a1.566,1.566,0,0,0-1.567,1.567v1.567h1.567v-1.567h6.267v1.567Zm0,0" transform="translate(-148.417 -534.3)" fill="#fff"/>
  <path id="Path_338" data-name="Path 338" d="M384.4,565.633v-1.567a1.567,1.567,0,0,0-1.567-1.567h-6.267A1.567,1.567,0,0,0,375,564.067v1.567h1.567v-1.567h6.267v1.567Zm0,0" transform="translate(-356.2 -534.3)" fill="#fff"/>
  <path id="Path_339" data-name="Path 339" d="M603.15,565.633v-1.567a1.567,1.567,0,0,0-1.567-1.567h-6.267a1.566,1.566,0,0,0-1.567,1.567v1.567h1.567v-1.567h6.267v1.567Zm0,0" transform="translate(-563.983 -534.3)" fill="#fff"/>
</svg>
