<svg xmlns="http://www.w3.org/2000/svg" width="20" height="24" viewBox="0 0 20 24">
  <g id="Group_260" data-name="Group 260" transform="translate(-376.743 -644)">
    <g id="Group_244" data-name="Group 244" transform="translate(374.743 641)">
      <path id="Path_805" data-name="Path 805" d="M12.414,5H21a1,1,0,0,1,1,1V20a1,1,0,0,1-1,1H3a1,1,0,0,1-1-1V4A1,1,0,0,1,3,3h7.414ZM4,5V19H20V7H11.586l-2-2Zm7,4h2v8H11Zm4,3h2v5H15ZM7,14H9v3H7Z" fill="#0081d2"/>
    </g>
    <rect id="Rectangle_217" data-name="Rectangle 217" width="4" height="4" transform="translate(379 664)" fill="#0081d2"/>
    <rect id="Rectangle_215" data-name="Rectangle 215" width="4" height="4" transform="translate(385 664)" fill="#0081d2"/>
    <rect id="Rectangle_216" data-name="Rectangle 216" width="4" height="4" transform="translate(391 664)" fill="#0081d2"/>
  </g>
</svg>
