<svg xmlns="http://www.w3.org/2000/svg" width="21.486" height="19.435" viewBox="0 0 21.486 19.435">
  <g id="Group_259" data-name="Group 259" transform="translate(-376 -556.565)">
    <g id="Group_243" data-name="Group 243" transform="translate(374.743 554)">
      <path id="Path_803" data-name="Path 803" d="M3.161,4.469A6.5,6.5,0,0,1,12,4.141,6.5,6.5,0,0,1,21.179,13.3l-7.765,7.79a2,2,0,0,1-2.719.1l-.11-.1L2.821,13.295a6.5,6.5,0,0,1,.34-8.826ZM4.575,5.883a4.5,4.5,0,0,0-.146,6.21l.146.154L12,19.672l5.3-5.3-3.535-3.535-1.06,1.06A3,3,0,1,1,8.464,7.651l2.1-2.1a4.5,4.5,0,0,0-5.837.189l-.154.146Zm8.486,2.828a1,1,0,0,1,1.414,0l4.242,4.242.708-.706a4.5,4.5,0,0,0-6.211-6.51l-.153.146L9.879,9.065A1,1,0,0,0,9.8,10.392l.078.087a1,1,0,0,0,1.327.078l.087-.078Z" fill="#0081d2"/>
    </g>
    <rect id="Rectangle_213" data-name="Rectangle 213" width="4" height="4" transform="translate(377 572)" fill="#0081d2"/>
    <rect id="Rectangle_214" data-name="Rectangle 214" width="4" height="4" transform="translate(393 572)" fill="#0081d2"/>
  </g>
</svg>
