<svg xmlns="http://www.w3.org/2000/svg" width="21.257" height="22" viewBox="0 0 21.257 22">
  <g id="Group_258" data-name="Group 258" transform="translate(-377.743 -472)">
    <g id="Group_240" data-name="Group 240" transform="translate(375.743 469)">
      <path id="Path_801" data-name="Path 801" d="M6.455,19,2,22.5V4A1,1,0,0,1,3,3H21a1,1,0,0,1,1,1V18a1,1,0,0,1-1,1Zm-.692-2H20V5H4V18.385ZM7,10H9a3,3,0,0,0,6,0h2A5,5,0,0,1,7,10Z" fill="#0081d2"/>
    </g>
    <rect id="Rectangle_210" data-name="Rectangle 210" width="4" height="4" transform="translate(383 490)" fill="#0081d2"/>
    <rect id="Rectangle_211" data-name="Rectangle 211" width="4" height="4" transform="translate(389 490)" fill="#0081d2"/>
    <rect id="Rectangle_212" data-name="Rectangle 212" width="4" height="4" transform="translate(395 490)" fill="#0081d2"/>
  </g>
</svg>
